<?xml version="1.0" standalone="no"?> <!DOCTYPE svg PUBLIC "-//W3C//DTD SVG 1.0//EN" "http://www.w3.org/TR/2001/REC-SVG-20010904/DTD/svg10.dtd" > <svg xmlns="http://www.w3.org/2000/svg" width="100%" height="100%">
<defs >
<font id="exo-demibold" horiz-adv-x="1091" ><font-face
    font-family="Exo"
    units-per-em="2048"
    panose-1="2 0 7 3 0 0 0 0 0 0"
    ascent="2052"
    descent="-601"
    alphabetic="0" />
<missing-glyph horiz-adv-x="748" d="M68 0V1365H612V0H68ZM136 68H544V1297H136V68Z" />
<glyph unicode=" " glyph-name="space" horiz-adv-x="512" />
<glyph unicode="!" glyph-name="exclam" horiz-adv-x="555" d="M147 47V207Q147 258 197 258H352Q399 258 399 207V47Q399 0 352 0H197Q147 0 147 47ZM150 1497H401L377 401H172L150 1497Z" />
<glyph unicode="&quot;" glyph-name="quotedbl" horiz-adv-x="860" d="M147 1362V1499H379V1362L358 1087H170L147 1362ZM483 1362V1499H715V1362L694 1087H506L483 1362Z" />
<glyph unicode="#" glyph-name="numbersign" horiz-adv-x="1449" d="M35 446L59 610H377L422 891H104L131 1055H453L528 1499H692L616 1055H899L973 1499H1137L1063 1055H1419L1393 891H1036L991 608H1348L1323 444H958L883 0H719L795 444L510 446L434 0H270L346
446H35ZM541 610L827 608L872 891H586L541 610Z" />
<glyph unicode="$" glyph-name="dollar" horiz-adv-x="1169" d="M96 1001V1133Q98 1336 202 1421T492 1511V1688H647V1507Q817 1497 1022 1456V1270Q647 1290 551 1290Q440 1294 387 1261T334 1118V1022Q334 858 514 858H733Q1077 858 1077 477V362Q1077 249 1041
171T941 52T805 -3T647 -16V-184H492V-10Q293 4 143 41V223Q471 207 625 207Q840 207 840 356V459Q840 539 807 580T690 621H475Q381 621 310 647T198 714T135 808T104 907T96 1001Z" />
<glyph unicode="%" glyph-name="percent" horiz-adv-x="1964" d="M74 979V1237Q74 1372 134 1435T344 1499H551Q696 1499 757 1435T819 1237V979Q819 842 758 779T547 715H340Q195 715 135 778T74 979ZM250 999Q250 938 272 915T358 891H528Q600 891 621 914T643
999V1214Q643 1280 620 1301T532 1323H362Q294 1323 272 1301T250 1214V999ZM440 0L1348 1499H1532L629 0H440ZM1147 268V526Q1147 661 1207 724T1417 788H1626Q1771 788 1831 725T1892 526V268Q1892 131 1832 68T1622 4H1413Q1268 4 1208 68T1147 268ZM1323 289Q1323
228 1345 204T1432 180H1604Q1676 180 1696 203T1716 289V504Q1716 570 1693 591T1608 612H1436Q1368 612 1346 591T1323 504V289Z" />
<glyph unicode="&amp;" glyph-name="ampersand" horiz-adv-x="1359" d="M37 324T63 479T227 754L383 887L268 1047Q190 1160 202 1256T278 1418T424 1495Q674 1528 983 1454V1284H618Q493 1284 470 1234T530 1065L926 528L1169 766L1249 670L1135 451L1055 360L1319
0H1040L887 209L748 82Q672 14 561 -5T332 19T143 168Q37 324 63 479ZM340 301Q393 233 471 216T627 262L752 381L504 711L379 604Q215 463 340 301Z" />
<glyph unicode="&apos;" glyph-name="quotesingle" horiz-adv-x="428" d="M96 1362V1499H336V1362L315 1087H119L96 1362Z" />
<glyph unicode="(" glyph-name="parenleft" horiz-adv-x="741" d="M129 668Q129 844 165 1021T252 1325T354 1554T441 1709L477 1761H707Q693 1741 670 1702T589 1541T485 1298T404 1002T367 668Q367 171 626 -299Q672 -382 707 -430H477Q463 -414 440 -383T357
-247T251 -24T167 282T129 668Z" />
<glyph unicode=")" glyph-name="parenright" horiz-adv-x="741" d="M35 -430Q49 -412 71 -376T152 -226T256 11T338 312T375 668Q375 1126 109 1631L35 1761H264Q278 1743 302 1707T385 1558T490 1323T574 1023T612 668Q612 122 356 -300Q304 -385 264 -430H35Z" />
<glyph unicode="*" glyph-name="asterisk" horiz-adv-x="884" d="M86 1159V1262L371 1315L381 1149L86 1159ZM211 850L262 1128L422 1090L309 819L211 850ZM346 1473L446 1509L590 1262L436 1196L346 1473ZM403 963L494 1102L723 918L664 834L403 963ZM500 1169L743
1329L799 1241L606 1042L500 1169Z" />
<glyph unicode="+" glyph-name="plus" horiz-adv-x="1013" d="M82 625V834H401V1155H610V834H934V625H610V303H401V625H82Z" />
<glyph unicode="," glyph-name="comma" horiz-adv-x="540" d="M147 51V205Q147 260 199 260H346Q395 260 395 205V-23Q395 -178 240 -187Q195 -189 158 -180V-94Q199 -94 210 -78T221 -37V0H199Q147 0 147 51Z" />
<glyph unicode="-" glyph-name="hyphen" horiz-adv-x="724" d="M41 489V698H684V489H41Z" />
<glyph unicode="." glyph-name="period" horiz-adv-x="544" d="M147 47V207Q147 258 197 258H348Q399 258 399 207V47Q399 0 348 0H197Q147 0 147 47Z" />
<glyph unicode="/" glyph-name="slash" horiz-adv-x="890" d="M35 -147L610 1577H858L283 -147H35Z" />
<glyph unicode="0" glyph-name="zero" horiz-adv-x="1300" d="M121 352V1139Q121 1313 221 1406T489 1499H825Q1011 1499 1095 1401T1180 1147V352Q1180 176 1087 88T823 0H487Q319 0 220 88T121 352ZM358 383Q358 223 530 223H778Q942 223 942 381V1118Q942 1276
784 1276H524Q436 1276 397 1229T358 1118V383Z" />
<glyph unicode="1" glyph-name="one" horiz-adv-x="751" d="M70 1169V1327L379 1499H614V0H377V1255L70 1169Z" />
<glyph unicode="2" glyph-name="two" horiz-adv-x="1210" d="M70 1294V1470Q381 1519 692 1520Q907 1520 1015 1391T1124 1069Q1124 967 1071 852T948 647T779 462T621 318T500 223H1124V0H84V211Q184 279 299 369T557 585T793 842T887 1069Q887 1294 633 1294H70Z" />
<glyph unicode="3" glyph-name="three" horiz-adv-x="1202" d="M51 1280V1446Q135 1477 248 1490T473 1504T711 1503Q879 1501 976 1404T1073 1151V1032Q1073 803 926 745Q1073 673 1073 442V344Q1073 170 978 78T696 -14H622H542Q526 -14 470 -13T394 -11T327
-7T254 0T191 10T123 24T63 43L66 211H618Q731 211 782 239T834 369V455Q834 551 782 589T631 631L190 647V836L631 856Q740 862 789 901T838 1024V1122Q838 1280 631 1280H51Z" />
<glyph unicode="4" glyph-name="four" horiz-adv-x="1257" d="M35 459L612 1499H879L375 578H823V950L891 1106H1061V578H1223V393L1061 348V4H823V348H104L35 459Z" />
<glyph unicode="5" glyph-name="five" horiz-adv-x="1226" d="M131 41V225H725Q889 225 889 387V555Q889 588 885 610T867 660T818 703T733 719H498Q437 719 397 686T356 586H135L180 1499H1073V1276H406L387 881Q436 926 532 934Q591 942 786 934Q960 930 1043
833T1126 573V354Q1126 254 1092 180T1001 68T885 11T762 -8Q553 -8 439 0T131 41Z" />
<glyph unicode="6" glyph-name="six" horiz-adv-x="1255" d="M113 786Q113 1161 213 1330T465 1507Q752 1523 1106 1468V1288H563Q356 1288 350 856Q565 897 811 897Q1008 897 1081 809T1155 565V324Q1155 -2 803 -2H506Q412 -2 346 32T224 149T141 391T113 786ZM350
682Q350 590 356 523T381 379T446 262T559 221H770Q846 221 882 250T918 362V543Q918 623 882 652T774 682H350Z" />
<glyph unicode="7" glyph-name="seven" horiz-adv-x="1128" d="M51 1276V1499H1008L1077 1380L561 0H295L780 1276H51Z" />
<glyph unicode="8" glyph-name="eight" horiz-adv-x="1286" d="M129 334V502Q129 686 297 729Q129 797 129 1022V1155Q129 1350 228 1429T504 1509H811Q985 1509 1071 1425T1157 1155V1036Q1159 999 1152 957T1107 863T1004 799Q1084 785 1121 697T1157 522V338Q1157
0 809 0H504Q416 0 350 16T244 64T181 128T146 204T132 273T129 334ZM367 352Q367 282 406 250T537 217H768Q838 217 879 251T920 352V520Q920 590 880 626T772 662H522Q366 662 367 520V352ZM367 1012Q367 869 522 868H772Q858 868 889 908T920 1012V1124Q920
1220 882 1257T768 1294H537Q447 1294 407 1262T367 1124V1012Z" />
<glyph unicode="9" glyph-name="nine" horiz-adv-x="1255" d="M104 942V1182Q104 1508 455 1507H754Q846 1507 913 1474T1035 1356T1117 1113T1145 719Q1145 344 1045 175T793 -2Q445 -22 154 39V217H694Q901 217 907 651Q682 608 449 608Q250 608 177 696T104
942ZM340 963Q340 885 377 854T485 823H907Q907 917 901 983T877 1125T813 1243T698 1284H487Q411 1284 376 1257T340 1143V963Z" />
<glyph unicode=":" glyph-name="colon" horiz-adv-x="544" d="M147 47V207Q147 258 197 258H348Q399 258 399 207V47Q399 0 348 0H197Q147 0 147 47ZM147 879V1038Q147 1089 197 1090H348Q399 1090 399 1038V879Q399 832 348 831H197Q147 832 147 879Z" />
<glyph unicode=";" glyph-name="semicolon" horiz-adv-x="548" d="M147 51V205Q147 228 161 244T199 260H346Q395 260 395 205V-23Q395 -178 240 -187Q195 -189 158 -180V-94Q199 -94 210 -78T221 -37V0H199Q176 0 162 14T147 51ZM150 879V1038Q150 1089 199 1090H350Q401
1090 401 1038V879Q401 832 350 831H199Q150 832 150 879Z" />
<glyph unicode="&lt;" glyph-name="less" horiz-adv-x="940" d="M86 608V838L854 1147V918L354 725L854 510V279L86 608Z" />
<glyph unicode="=" glyph-name="equal" horiz-adv-x="956" d="M41 397V606H915V397H41ZM41 834V1042H915V834H41Z" />
<glyph unicode="&gt;" glyph-name="greater" horiz-adv-x="940" d="M86 279V510L586 725L86 918V1147L854 838V608L86 279Z" />
<glyph unicode="?" glyph-name="question" horiz-adv-x="1110" d="M35 1288V1466Q379 1523 612 1513Q829 1513 934 1401T1040 1120V950Q1040 745 918 656T565 592V399H360V774H616Q700 778 752 821T805 952V1098Q805 1198 748 1243T561 1288H35ZM338 47V207Q338
258 387 258H541Q590 258 590 207V47Q590 0 541 0H387Q338 0 338 47Z" />
<glyph unicode="@" glyph-name="at" horiz-adv-x="1759" d="M113 14V670Q113 719 120 763T151 861T217 955T333 1022T508 1049H918Q1260 1049 1260 741V0H1100L1065 123L1048 109Q1031 95 999 74T928 32T836 -4T729 -18Q610 -20 539 56T467 242V336Q467 469 541
542T754 616H1061Q1063 729 1061 729Q1061 799 1027 823T918 848H508Q418 848 367 811T315 664V29Q315 -188 508 -188H1200Q1321 -188 1366 -135T1411 29V1006Q1411 1121 1354 1182T1200 1243H373V1389Q652 1446 985 1444H1200Q1382 1442 1498 1335T1614 1006V29Q1614
-393 1208 -393H508Q330 -393 222 -292T113 14ZM676 270Q676 237 706 210T782 184Q923 182 1061 279V475L778 449Q676 439 676 338V270Z" />
<glyph unicode="A" glyph-name="A" horiz-adv-x="1400" d="M78 0L600 1499H862L1364 0H1104L989 362H459L342 0H78ZM526 580H928L731 1176L526 580Z" />
<glyph unicode="B" glyph-name="B" horiz-adv-x="1230" d="M139 0V1499H741Q954 1499 1053 1385T1153 1102Q1153 983 1105 892T954 778Q1044 760 1107 669T1171 432Q1171 0 745 0H139ZM377 217H739Q934 217 934 442Q934 544 886 612T739 680H377V217ZM377 889H731Q917
889 918 1087Q918 1282 731 1282H377V889Z" />
<glyph unicode="C" glyph-name="C" horiz-adv-x="1175" d="M96 754Q96 1141 204 1328T602 1516Q870 1516 1116 1454V1268L1100 1269Q1084 1270 1056 1272T992 1277T912 1283T824 1288T733 1291T645 1292Q522 1292 461 1255T367 1100T334 750Q334 478 400 345T645
211Q741 211 859 215T1047 223L1116 227V41Q919 -12 641 -12Q622 -12 602 -12Q332 -10 214 187T96 754Z" />
<glyph unicode="D" glyph-name="D" horiz-adv-x="1351" d="M139 0V1499H748Q1272 1499 1272 743Q1272 587 1242 457T1151 222T987 59T748 0H139ZM377 219H733Q887 219 960 361T1034 745Q1034 1040 959 1161T733 1282H377V219Z" />
<glyph unicode="E" glyph-name="E" horiz-adv-x="1161" d="M135 279V1204Q135 1366 223 1434Q306 1499 422 1499Q429 1499 436 1499Q1007 1479 1092 1466V1272H479Q430 1272 405 1253T376 1214T373 1157V860L1001 840V645L373 625V328Q373 277 395 252T438 224T500
221H1092V29L457 -6Q443 -7 429 -7Q135 -7 135 279Z" />
<glyph unicode="F" glyph-name="F" horiz-adv-x="1161" d="M135 0V1202Q135 1360 222 1432Q304 1500 423 1499Q430 1499 436 1499Q1007 1479 1092 1466V1272H479Q430 1272 405 1253T376 1214T373 1157V860L1001 840V645L373 625V0H135Z" />
<glyph unicode="G" glyph-name="G" horiz-adv-x="1257" d="M96 758Q96 932 115 1058T185 1293T335 1459T582 1516Q865 1516 1137 1454V1268Q1135 1268 1101 1271T1014 1278T899 1287T761 1295T625 1298Q449 1298 392 1179T334 754Q334 441 392 329T618 215Q684
215 761 238T882 286L926 309V629H668V782Q805 831 1024 831Q1114 831 1163 827V0H991L930 100Q797 -6 584 -10Q572 -10 561 -10Q453 -10 371 24Q281 63 229 129T146 300T106 510T96 758Z" />
<glyph unicode="H" glyph-name="H" horiz-adv-x="1304" d="M139 0V1499H377V836H965V1499H1202V0H965V614H377V0H139Z" />
<glyph unicode="I" glyph-name="I" horiz-adv-x="479" d="M139 0V1499H377V0H139Z" />
<glyph unicode="J" glyph-name="J" horiz-adv-x="731" d="M61 45L66 227Q159 215 217 215Q265 215 289 223Q389 255 391 418V1499H629V338Q629 107 520 37Q443 -11 306 -11Q298 -11 290 -11Q141 -8 61 45Z" />
<glyph unicode="K" glyph-name="K" horiz-adv-x="1259" d="M139 0V1499H369V856H508L920 1499H1200L721 750L1200 0H920L508 639H371V0H139Z" />
<glyph unicode="L" glyph-name="L" horiz-adv-x="1118" d="M139 279V1499H377V330Q377 291 387 268T419 236T457 225T504 223H1059V0H438Q139 0 139 279Z" />
<glyph unicode="M" glyph-name="M" horiz-adv-x="1699" d="M96 0L215 1499H545L848 393L1147 1499H1475L1606 0H1372L1276 1081L981 0H721L418 1081L332 0H96Z" />
<glyph unicode="N" glyph-name="N" horiz-adv-x="1388" d="M139 0V1499H381L1049 440V1499H1286V0H1049L379 1053V0H139Z" />
<glyph unicode="O" glyph-name="O" horiz-adv-x="1376" d="M113 739Q113 911 132 1040T192 1252T280 1387T402 1466T544 1501T709 1509Q830 1509 908 1497T1068 1441T1195 1315T1270 1090T1300 739Q1300 544 1273 407T1199 190T1074 65T913 6T709 -8Q584 -8 504
4T342 59T215 182T142 400T113 739ZM350 739Q350 565 365 466T425 309T532 233T709 215Q850 215 921 254T1028 405T1063 739Q1063 895 1049 996T1011 1156T938 1243T842 1279T709 1286T578 1280T481 1246T407 1160T367 999T350 739Z" />
<glyph unicode="P" glyph-name="P" horiz-adv-x="1216" d="M111 0V1499H745Q823 1499 884 1482T1008 1420T1106 1281T1141 1047Q1141 918 1114 826T1050 685T955 611T851 578Q816 573 772 573Q759 573 745 573Q688 575 522 592T348 614V0H111ZM348 791H731Q813
791 857 844T901 1044Q899 1282 731 1282H348V791Z" />
<glyph unicode="Q" glyph-name="Q" horiz-adv-x="1376" d="M113 739Q113 911 131 1039T189 1251T276 1387T397 1466T539 1501T707 1509Q807 1509 875 1501T1018 1467T1138 1388T1224 1251T1282 1039T1300 739Q1300 544 1273 408T1199 192T1073 66T911 6T707 -8Q619
-8 558 -3T429 20T317 71T230 159T165 293T127 483T113 739ZM350 739Q350 510 383 401T486 253T707 215Q848 215 920 254T1028 405T1063 739Q1063 895 1048 996T1010 1156T937 1243T840 1279T707 1286T575 1280T478 1246T405 1160T366 999T350 739ZM627 -68H770Q834
-146 951 -146Q1020 -146 1106 -119V-326Q1055 -343 999 -343Q978 -343 956 -340Q877 -332 806 -307T685 -218T627 -68Z" />
<glyph unicode="R" glyph-name="R" horiz-adv-x="1232" d="M111 0V1499H762Q1147 1499 1147 1038Q1147 929 1127 849T1084 726T1018 655T957 618T901 600L1196 0H930L657 584L348 612V0H111ZM350 805H743Q829 805 868 848T907 1038Q907 1179 864 1230T743 1282H350V805Z" />
<glyph unicode="S" glyph-name="S" horiz-adv-x="1204" d="M113 1001V1133Q113 1342 220 1425T518 1511Q531 1511 544 1511Q663 1511 819 1495Q993 1477 1073 1456V1268Q811 1288 569 1288Q555 1288 543 1288Q446 1288 401 1262Q350 1232 350 1118V1022Q350 922
391 890T528 858H786Q886 858 958 823T1065 729T1114 609T1128 477V362Q1128 247 1094 169T996 52T866 -1T713 -16Q375 -16 160 41V229Q376 207 654 207Q666 207 678 207Q891 207 891 356V459Q891 537 858 579T743 621H492Q491 621 490 621Q113 621 113 1001Z"
/>
<glyph unicode="T" glyph-name="T" horiz-adv-x="1204" d="M74 1276V1499H1157V1276H729V0H492V1276H74Z" />
<glyph unicode="U" glyph-name="U" horiz-adv-x="1370" d="M139 655V1499H377V655Q377 534 391 453T428 323T496 251T587 220T709 213Q775 213 817 221T904 255T972 329T1012 458T1028 655V1499H1268V655Q1268 518 1249 411T1202 234T1125 116T1034 43T926 6T818
-8T709 -10H689Q579 -10 524 -6T382 32T252 132T174 330T139 655Z" />
<glyph unicode="V" glyph-name="V" horiz-adv-x="1392" d="M78 1499H332L705 328L1096 1499H1350L836 0H569L78 1499Z" />
<glyph unicode="W" glyph-name="W" horiz-adv-x="2009" d="M78 1499H332L702 342L1008 1499H1266L1149 1079L1399 334L1714 1499H1968L1534 0H1268L1038 670L836 0H569L78 1499Z" />
<glyph unicode="X" glyph-name="X" horiz-adv-x="1280" d="M78 1499H340L655 944L975 1499H1237L788 754L1227 0H965L655 551L346 0H84L520 754L78 1499Z" />
<glyph unicode="Y" glyph-name="Y" horiz-adv-x="1325" d="M78 1499H336L664 756L1024 1499H1282L780 489V0H543V489L78 1499Z" />
<glyph unicode="Z" glyph-name="Z" horiz-adv-x="1144" d="M61 0V223L793 1276H61V1499H1085V1276L375 223H1085V0H61Z" />
<glyph unicode="[" glyph-name="bracketleft" horiz-adv-x="673" d="M147 -41V1352Q147 1510 220 1617T469 1724H641V1516H512Q453 1516 419 1468T385 1329V-35Q385 -125 419 -173T512 -221H641V-430H469Q147 -430 147 -41Z" />
<glyph unicode="\" glyph-name="backslash" horiz-adv-x="890" d="M35 1577H283L858 -147H610L35 1577Z" />
<glyph unicode="]" glyph-name="bracketright" horiz-adv-x="673" d="M35 -221H162Q221 -221 255 -173T289 -35V1329Q289 1419 255 1467T162 1516H35V1724H205Q299 1724 365 1692T465 1603T512 1485T526 1352V-41Q526 -430 205 -430H35V-221Z" />
<glyph unicode="^" glyph-name="asciicircum" horiz-adv-x="792" d="M86 1087L313 1360H502L707 1087H532L403 1219L262 1087H86Z" />
<glyph unicode="_" glyph-name="underscore" horiz-adv-x="1380" d="M41 -2V207H1339V-2H41Z" />
<glyph unicode="`" glyph-name="grave" horiz-adv-x="495" d="M35 1368H264L463 1087H293L35 1368Z" />
<glyph unicode="a" glyph-name="a" horiz-adv-x="1062" d="M70 270V381Q70 510 144 590T371 670Q555 669 647 669T739 670Q740 716 740 739T739 764Q739 848 702 878T586 909Q459 909 104 887V1040Q292 1103 612 1108Q616 1108 620 1108Q977 1108 977 770V0H793L739
123Q733 113 679 81T534 19T365 -12Q228 -10 149 70T70 270ZM307 299Q307 236 336 212T416 188Q550 188 739 281V514L408 489Q308 479 307 371V299Z" />
<glyph unicode="b" glyph-name="b" horiz-adv-x="1136" d="M104 0V1608H340V1028Q510 1104 696 1104Q807 1104 879 1062T989 938T1039 763T1053 539Q1053 -12 696 -12Q606 -12 502 30T342 115L293 0H104ZM342 276Q482 198 647 198Q648 198 649 198Q815 198 815
545Q815 756 775 830T649 905Q477 905 342 860V276Z" />
<glyph unicode="c" glyph-name="c" horiz-adv-x="1015" d="M86 545Q86 713 111 824T188 994T300 1075T444 1098Q716 1098 934 1036V885Q705 897 522 897Q477 897 452 893T399 871T357 814T333 709T324 539Q324 328 366 261T522 193Q606 193 712 197T884 206L948
211V55Q921 45 895 36T838 21T786 9T726 1T673 -4T613 -7T559 -9T500 -10H444Q362 -10 302 13T191 94T113 265T86 545Z" />
<glyph unicode="d" glyph-name="d" horiz-adv-x="1136" d="M86 539Q86 643 94 722T124 875T186 998T289 1075T442 1104Q628 1104 799 1028V1608H1034V0H846L799 115Q742 70 637 29T442 -12Q86 -12 86 539ZM324 545Q324 199 489 199Q653 199 799 276V860Q662 905
489 905Q403 905 364 831T324 545Z" />
<glyph unicode="e" glyph-name="e" horiz-adv-x="1075" d="M86 549Q86 725 110 833T197 999T342 1076T561 1096Q643 1096 697 1092T807 1074T895 1036T955 967T994 860T1006 705Q1006 439 711 438H324Q324 284 372 237T545 190Q844 190 985 213V47Q815 -10 444
-10Q239 -10 163 114T86 549ZM324 625H664Q768 625 768 713Q768 836 734 868T573 901Q493 901 457 896T383 865T335 782T324 625Z" />
<glyph unicode="f" glyph-name="f" horiz-adv-x="823" d="M35 893V1053L215 1087V1290Q215 1609 510 1610Q657 1610 791 1561V1415L573 1417Q528 1417 503 1408T467 1373T455 1322T453 1247V1087H721V893H453V0H215V893H35Z" />
<glyph unicode="g" glyph-name="g" horiz-adv-x="1142" d="M82 219Q82 285 113 336T207 403Q86 481 86 705Q86 898 181 995T455 1092H1108V942L971 905Q973 901 981 884T992 858T1002 830T1013 792T1018 746T1020 684Q1020 635 1012 588T980 488T919 395T815 331T662
305H385Q301 305 301 252Q301 193 385 193H756Q897 193 977 114T1057 -115V-238Q1057 -297 1043 -348T993 -447T891 -524T727 -553H420Q268 -553 177 -473T86 -238V-86L176 25Q82 86 82 219ZM324 0V-215Q324 -299 363 -325T471 -352H690Q766 -352 792 -319T819
-219V-125Q819 -66 794 -38T700 -10H412L324 0ZM324 705Q324 508 477 508H623Q713 508 750 564Q782 615 782 689Q782 697 782 705Q778 803 744 846T621 889H483Q324 889 324 705Z" />
<glyph unicode="h" glyph-name="h" horiz-adv-x="1120" d="M104 0V1604H342V967Q481 1059 551 1082Q624 1106 707 1106Q877 1106 956 1003T1036 737V0H799V739Q799 905 655 905Q563 905 499 883T342 803V0H104Z" />
<glyph unicode="i" glyph-name="i" horiz-adv-x="442" d="M86 1253V1409Q86 1462 135 1462H309Q356 1462 356 1409V1253Q356 1206 309 1206H135Q86 1206 86 1253ZM100 0V1087H338V0H100Z" />
<glyph unicode="j" glyph-name="j" horiz-adv-x="477" d="M104 1253V1409Q104 1462 154 1462H328Q375 1462 375 1409V1253Q375 1206 328 1206H154Q104 1206 104 1253ZM121 -553V1087H358V-8Q358 -28 358 -47Q358 -384 291 -553H121Z" />
<glyph unicode="k" glyph-name="k" horiz-adv-x="1097" d="M104 0V1602H342V715H410L758 1087H1065L629 618L1065 0H780L410 520H342V0H104Z" />
<glyph unicode="l" glyph-name="l" horiz-adv-x="630" d="M104 387V1604H342V416Q342 301 367 256T444 195Q583 152 598 152V0H381Q246 0 175 90T104 387Z" />
<glyph unicode="m" glyph-name="m" horiz-adv-x="1808" d="M104 0V1087H289L342 965Q420 1018 450 1036T552 1078T698 1102Q800 1102 876 1063T987 954Q1177 1101 1395 1102Q1555 1102 1639 1001T1724 731V0H1487V733Q1487 813 1448 857T1343 901Q1157 901 1028
805V733V0H791V733Q791 813 751 857T645 901Q555 901 495 879T342 799V0H104Z" />
<glyph unicode="n" glyph-name="n" horiz-adv-x="1120" d="M104 0V1087H289L342 967Q420 1018 451 1037T556 1081T707 1106Q877 1106 956 1003T1036 737V0H799V739Q799 905 655 905Q563 905 499 883T342 803V0H104Z" />
<glyph unicode="o" glyph-name="o" horiz-adv-x="1153" d="M86 528Q86 858 193 978T578 1098Q857 1098 962 975T1067 528Q1067 223 962 107T578 -10Q302 -10 194 111T86 528ZM324 528Q324 413 337 345T386 244T463 202T578 193Q656 193 695 201T770 242T817 344T829
528Q829 696 805 774T732 874T578 897T423 875T350 774T324 528Z" />
<glyph unicode="p" glyph-name="p" horiz-adv-x="1136" d="M104 -553V1087H293L340 975Q395 1018 500 1059T696 1100Q1052 1100 1053 549Q1053 424 1040 332T989 156T879 28T696 -16Q514 -16 340 57V-553H104ZM340 227Q475 182 649 182Q735 182 775 257T815 541Q815
889 649 889Q485 889 340 811V227Z" />
<glyph unicode="q" glyph-name="q" horiz-adv-x="1136" d="M86 549Q86 1100 477 1100Q776 1100 1032 1042V-553H795V59Q652 -20 481 -20Q479 -20 477 -20Q256 -20 171 123T86 549ZM324 553Q324 485 325 456T330 372T346 291T378 234T432 191T512 178Q651 178 795
225V905H512Q461 905 423 880T367 819T338 730T326 640T324 553Z" />
<glyph unicode="r" glyph-name="r" horiz-adv-x="860" d="M104 0V1087H297L342 950Q401 995 442 1023T550 1075T688 1100Q782 1100 819 1085V854Q766 862 666 862Q564 862 491 836T342 741V0H104Z" />
<glyph unicode="s" glyph-name="s" horiz-adv-x="1038" d="M70 719V813Q70 1098 352 1098Q790 1098 915 1051V893H408Q342 893 325 873T307 801V735Q307 704 314 686T337 661T366 651T408 649H690Q831 649 901 574T971 373V266Q971 -10 705 -10Q549 -10 358 3T115
41V197H645Q733 197 733 281V350Q733 395 714 415T645 436H367Q217 436 144 500T70 719Z" />
<glyph unicode="t" glyph-name="t" horiz-adv-x="778" d="M35 895V1038L219 1090L264 1393H457V1090H727V895H457V418Q457 303 481 258T559 195Q698 152 713 152V0H487Q219 0 219 389V895H35Z" />
<glyph unicode="u" glyph-name="u" horiz-adv-x="1120" d="M86 352V1087H324V348Q324 184 467 184Q561 184 625 206T780 287V1087H1018V0H834L780 119Q766 111 718 81T649 41T586 13T504 -12T416 -18Q246 -18 166 85T86 352Z" />
<glyph unicode="v" glyph-name="v" horiz-adv-x="1134" d="M35 1087H291L565 295L846 1087H1100L690 0H432L35 1087Z" />
<glyph unicode="w" glyph-name="w" horiz-adv-x="1673" d="M35 1087H291L545 295L772 1087H1014L926 774L1126 295L1384 1087H1640L1266 0H1006L815 444L672 0H403L35 1087Z" />
<glyph unicode="x" glyph-name="x" horiz-adv-x="1134" d="M41 0L424 545L41 1087H332L565 729L805 1087H1094L709 539L1077 0H805L567 356L332 0H41Z" />
<glyph unicode="y" glyph-name="y" horiz-adv-x="1165" d="M37 1087H289L504 295Q510 275 519 260T538 236T559 222T580 216T599 214T614 214L623 215L874 1087H1126L713 -344L561 -553H397L565 0Q342 0 268 258L37 1087Z" />
<glyph unicode="z" glyph-name="z" horiz-adv-x="956" d="M51 879V1087H905V879L397 211H905V2H82V209L608 879H51Z" />
<glyph unicode="{" glyph-name="braceleft" horiz-adv-x="655" d="M35 590V776Q84 780 110 785T167 816T197 885V1343Q197 1513 304 1618T623 1724V1516Q529 1516 482 1467T434 1286V874Q434 712 246 684Q330 670 381 621T432 500V-29Q432 -236 623 -229V-430Q195
-430 195 -78V481Q195 538 148 566T35 590Z" />
<glyph unicode="|" glyph-name="bar" horiz-adv-x="503" d="M150 -147V1577H358V-147H150Z" />
<glyph unicode="}" glyph-name="braceright" horiz-adv-x="655" d="M35 -229Q127 -231 175 -180T223 -29V500Q223 572 274 621T410 684Q222 713 221 874V1286Q221 1417 174 1466T35 1516V1724Q246 1724 352 1619T459 1343V885Q459 852 473 830T517 797T566 783T623
776V590Q557 594 509 567T461 481V-78Q461 -238 362 -334T35 -430V-229Z" />
<glyph unicode="~" glyph-name="asciitilde" horiz-adv-x="872" d="M86 1190L112 1216Q131 1235 139 1242T164 1265T193 1288T222 1305T255 1321T289 1329T330 1333Q377 1333 442 1298T547 1262Q629 1262 737 1343L786 1235Q745 1190 724 1168T652 1116T553 1087Q506
1087 434 1123T324 1159Q295 1159 270 1152T228 1137T182 1112T133 1087L86 1190Z" />
</font>
</defs>
</svg>
