<?xml version="1.0" standalone="no"?> <!DOCTYPE svg PUBLIC "-//W3C//DTD SVG 1.0//EN" "http://www.w3.org/TR/2001/REC-SVG-20010904/DTD/svg10.dtd" > <svg xmlns="http://www.w3.org/2000/svg" width="100%" height="100%">
<defs >
<font id="exo-light" horiz-adv-x="1081" ><font-face
    font-family="Exo"
    units-per-em="2048"
    panose-1="2 0 3 3 0 0 0 0 0 0"
    ascent="2052"
    descent="-596"
    alphabetic="0" />
<missing-glyph horiz-adv-x="748" d="M68 0V1365H612V0H68ZM136 68H544V1297H136V68Z" />
<glyph unicode=" " glyph-name="space" horiz-adv-x="532" />
<glyph unicode="!" glyph-name="exclam" horiz-adv-x="542" d="M188 39V160Q188 203 229 203H311Q350 203 350 160V39Q350 0 311 0H229Q188 0 188 39ZM201 1497H336L324 401H213L201 1497Z" />
<glyph unicode="&quot;" glyph-name="quotedbl" horiz-adv-x="694" d="M164 1362V1499H283V1362L264 1087H182L164 1362ZM416 1362V1499H535V1362L516 1087H434L416 1362Z" />
<glyph unicode="#" glyph-name="numbersign" horiz-adv-x="1382" d="M45 487L57 567H397L455 932H115L129 1012H467L545 1499H625L547 1012H899L977 1499H1055L979 1012H1341L1327 932H965L907 565H1270L1257 485H895L817 0H739L815 485L463 487L385 0H307L383
487H45ZM477 567L827 565L885 932H535L477 567Z" />
<glyph unicode="$" glyph-name="dollar" horiz-adv-x="1183" d="M125 1012V1147Q127 1354 231 1432T526 1511V1688H618V1507Q692 1501 837 1485T999 1466V1378L528 1397Q387 1403 315 1351T242 1147V1012Q242 889 307 842T485 795H733Q833 795 901 767T1001 688T1046
584T1059 459V319Q1059 -37 618 -16V-182H526V-8Q264 12 170 29V113Q190 113 280 109T468 102T649 100Q942 100 942 319V459Q942 568 894 622T733 676H487Q125 676 125 1012Z" />
<glyph unicode="%" glyph-name="percent" horiz-adv-x="1953" d="M96 971V1243Q96 1378 153 1438T360 1499H567Q712 1499 769 1439T827 1243V971Q827 836 770 776T563 715H356Q211 715 154 775T96 971ZM195 971Q195 879 230 846T356 813H563Q661 813 695 846T729
971V1243Q729 1333 694 1367T567 1401H360Q262 1401 229 1368T195 1243V971ZM475 0L1372 1499H1483L586 0H475ZM1128 260V532Q1128 667 1185 727T1393 788H1599Q1744 788 1802 728T1860 532V260Q1860 125 1803 65T1595 4H1389Q1244 4 1186 64T1128 260ZM1227 260Q1227
168 1262 135T1389 102H1595Q1693 102 1727 135T1761 260V532Q1761 622 1727 656T1599 690H1393Q1295 690 1261 658T1227 532V260Z" />
<glyph unicode="&amp;" glyph-name="ampersand" horiz-adv-x="1314" d="M55 322T79 477T242 750L418 899L289 1073Q209 1184 221 1274T293 1422T432 1491Q668 1520 977 1464V1386H561Q465 1386 409 1358T343 1266T410 1102L930 399L1190 664L1229 625L1110 422L1001
309L1225 0H1083L915 227L768 90Q686 14 576 -5T354 20T168 168Q55 322 79 477ZM266 233Q344 133 465 110T684 170L844 319L485 803L326 670Q86 469 266 233Z" />
<glyph unicode="&apos;" glyph-name="quotesingle" horiz-adv-x="327" d="M104 1362V1499H223V1362L207 1087H125L104 1362Z" />
<glyph unicode="(" glyph-name="parenleft" horiz-adv-x="671" d="M172 668Q172 826 206 995T288 1296T383 1536T464 1703L498 1761H625Q611 1738 588 1700T508 1538T406 1292T325 996T289 668Q289 179 549 -300Q594 -383 627 -430H498Q486 -412 463 -378T384
-232T285 2T207 305T172 668Z" />
<glyph unicode=")" glyph-name="parenright" horiz-adv-x="669" d="M45 -430Q59 -410 81 -374T162 -221T265 16T346 316T383 668Q383 1117 117 1632L45 1761H174Q186 1738 208 1700T287 1539T387 1294T465 998T500 668Q500 488 466 308T384 0T289 -228T208 -380L174
-430H45Z" />
<glyph unicode="*" glyph-name="asterisk" horiz-adv-x="919" d="M115 1178V1241L401 1282L408 1167L115 1178ZM262 844L317 1120L434 1094L322 825L262 844ZM381 1473L442 1497L592 1251L483 1202L381 1473ZM449 987L512 1087L741 907L709 856L449 987ZM537 1157L776
1317L807 1262L614 1067L537 1157Z" />
<glyph unicode="+" glyph-name="plus" horiz-adv-x="1058" d="M115 672V786H471V1145H588V786H946V672H588V313H471V672H115Z" />
<glyph unicode="," glyph-name="comma" horiz-adv-x="483" d="M164 43V160Q164 205 205 205H281Q322 205 322 160V-41Q322 -111 284 -141T209 -169L172 -166V-119Q205 -121 214 -105T223 -66V0H205Q164 0 164 43Z" />
<glyph unicode="-" glyph-name="hyphen" horiz-adv-x="712" d="M45 537V651H668V537H45Z" />
<glyph unicode="." glyph-name="period" horiz-adv-x="487" d="M164 39V160Q164 203 203 203H283Q326 203 326 160V39Q326 0 283 0H203Q164 0 164 39Z" />
<glyph unicode="/" glyph-name="slash" horiz-adv-x="786" d="M45 -147L621 1577H741L166 -147H45Z" />
<glyph unicode="0" glyph-name="zero" horiz-adv-x="1329" d="M160 332V1167Q160 1327 259 1413T512 1499H827Q1003 1499 1086 1407T1169 1167V332Q1169 0 827 0H512Q358 0 259 80T160 332ZM276 332Q276 221 342 169T512 117H827Q1052 117 1053 332V1167Q1053
1382 827 1382H512Q397 1382 337 1324T276 1167V332Z" />
<glyph unicode="1" glyph-name="one" horiz-adv-x="735" d="M92 1245V1325L436 1499H553V0H436V1366L92 1245Z" />
<glyph unicode="2" glyph-name="two" horiz-adv-x="1222" d="M92 1401V1485Q364 1520 694 1520Q903 1520 1006 1397T1110 1090Q1110 979 1040 846T875 606T658 386T461 217T326 117H1110V0H106V109Q200 177 284 240T508 423T744 646T916 873T991 1094Q991 1241
916 1321T690 1401H92Z" />
<glyph unicode="3" glyph-name="three" horiz-adv-x="1220" d="M68 1386V1458Q242 1511 698 1503Q866 1501 958 1407T1051 1165V1024Q1051 907 999 838T877 745Q1051 659 1051 451V330Q1051 -14 686 -14Q520 -14 448 -13T263 -2T80 31L84 104H676Q791 104 860
150T930 330V451Q930 570 858 626T686 686L207 700V788L686 807Q801 811 867 866T934 1024V1165Q934 1276 864 1331T688 1386H68Z" />
<glyph unicode="4" glyph-name="four" horiz-adv-x="1214" d="M45 467L694 1499H831L221 522H868V967L926 1120H985V522H1169V432L985 401V4H868V401H100L45 467Z" />
<glyph unicode="5" glyph-name="five" horiz-adv-x="1265" d="M174 31V115H797Q901 115 958 179T1016 344V559Q1016 786 797 786H481Q405 786 345 734T285 598H178L223 1499H1087V1382H332L303 817Q326 846 376 872T489 903Q544 907 604 907T722 905T797 903Q971
903 1052 812T1133 563V340Q1133 242 1099 169T1011 61T903 9T797 -8Q418 -8 174 31Z" />
<glyph unicode="6" glyph-name="six" horiz-adv-x="1284" d="M150 786Q150 1161 251 1336T502 1511Q850 1511 1100 1479V1395H520Q446 1395 393 1336T315 1180T278 997T266 825Q561 860 819 860Q1009 860 1079 779T1149 557V303Q1149 -2 819 -2H535Q445 -2 379
33T259 153T178 396T150 786ZM266 743Q266 114 535 115H819Q919 115 976 155T1034 309V557Q1034 663 977 703T819 743H266Z" />
<glyph unicode="7" glyph-name="seven" horiz-adv-x="1110" d="M68 1382V1499H993L1042 1417L518 0H379L893 1382H68Z" />
<glyph unicode="8" glyph-name="eight" horiz-adv-x="1312" d="M172 315V516Q172 702 356 739Q172 790 172 1022V1155Q172 1350 266 1429T532 1509H811Q979 1509 1061 1425T1143 1155V1022Q1143 991 1136 958T1111 886T1059 820T977 782Q1061 764 1102 685T1143
516V315Q1143 221 1110 155T1023 57T918 13T809 0H532Q432 0 361 25T253 85T198 169T175 248T172 315ZM289 309Q289 116 532 117H809Q895 117 960 165T1026 309V524Q1026 708 815 709H510Q424 709 357 665T289 524V309ZM289 1012Q289 824 510 823H815Q928 823 977
880T1026 1012V1151Q1026 1280 974 1336T811 1393H532Q403 1393 346 1342T289 1151V1012Z" />
<glyph unicode="9" glyph-name="nine" horiz-adv-x="1284" d="M137 948V1202Q137 1507 467 1507H752Q842 1507 907 1473T1027 1353T1109 1109T1137 719Q1137 346 1036 170T784 -6Q368 -6 186 27V111H764Q840 111 893 170T971 325T1008 509T1020 682Q707 645 467
645Q277 645 207 726T137 948ZM252 948Q252 842 309 802T467 762H1020Q1020 1391 752 1391H467Q367 1391 310 1351T252 1196V948Z" />
<glyph unicode=":" glyph-name="colon" horiz-adv-x="489" d="M164 39V160Q164 203 203 203H283Q326 203 326 160V39Q326 0 283 0H203Q164 0 164 39ZM164 926V1047Q164 1088 203 1087H283Q326 1087 326 1047V926Q326 887 283 887H203Q164 887 164 926Z" />
<glyph unicode=";" glyph-name="semicolon" horiz-adv-x="489" d="M164 43V160Q164 178 175 191T205 205H281Q322 205 322 160V-41Q322 -111 284 -141T209 -169L172 -166V-119Q205 -121 214 -105T223 -66V0H205Q189 0 177 13T164 43ZM166 926V1047Q166 1090 207
1090H287Q328 1090 328 1047V926Q328 887 287 887H207Q166 887 166 926Z" />
<glyph unicode="&lt;" glyph-name="less" horiz-adv-x="974" d="M115 666V786L862 1139V1012L270 725L862 418V287L115 666Z" />
<glyph unicode="=" glyph-name="equal" horiz-adv-x="964" d="M45 434V551H920V434H45ZM45 897V1014H920V897H45Z" />
<glyph unicode="&gt;" glyph-name="greater" horiz-adv-x="974" d="M115 287V418L707 725L115 1012V1139L862 786V666L115 287Z" />
<glyph unicode="?" glyph-name="question" horiz-adv-x="1099" d="M45 1395V1479Q371 1520 602 1513Q1010 1515 1010 1135V928Q1010 539 496 606V399H377V702H641Q895 710 895 928V1135Q895 1276 824 1335T588 1395H45ZM354 39V160Q354 203 395 203H479Q518 203
518 160V39Q518 0 479 0H395Q379 0 367 11T354 39Z" />
<glyph unicode="@" glyph-name="at" horiz-adv-x="1742" d="M150 0V713Q150 748 153 777T174 861T225 952T327 1019T494 1049H924Q1053 1049 1145 982T1237 762V0H1149L1126 131L1102 116Q1077 101 1037 79T949 35T841 -3T729 -18Q616 -20 541 48T467 221V330Q467
455 536 528T731 602H1122Q1124 758 1122 758Q1122 854 1071 893T918 932H494Q388 932 327 885T266 713V0Q266 -246 494 -246H1188Q1321 -246 1377 -187T1434 0V1049Q1434 1176 1369 1246T1188 1317H371V1391Q592 1436 961 1434H1188Q1356 1430 1453 1333T1550
1049V0Q1550 -365 1188 -365H494Q334 -365 242 -271T150 0ZM582 324T582 280T584 233Q584 180 630 138T743 98Q874 96 1122 215V522L741 494Q673 488 628 447T584 326Q582 324 582 280Z" />
<glyph unicode="A" glyph-name="A" horiz-adv-x="1363" d="M102 0L657 1499H782L1311 0H1174L1026 453H399L244 0H102ZM442 569H985L719 1329L442 569Z" />
<glyph unicode="B" glyph-name="B" horiz-adv-x="1222" d="M184 0V1499H741Q882 1499 973 1440T1097 1299T1130 1114Q1130 987 1074 896T915 780Q997 762 1067 669T1137 418Q1137 0 741 0H184ZM301 117H741Q1020 117 1020 422Q1020 551 944 639Q870 725 747 725Q744
725 741 725H301V117ZM301 844H741Q868 844 940 913T1014 1114Q1014 1118 1014 1122Q1014 1266 940 1323Q864 1382 741 1382H301V844Z" />
<glyph unicode="C" glyph-name="C" horiz-adv-x="1177" d="M125 754Q125 944 146 1076T221 1311T374 1465T625 1516Q828 1516 1104 1464V1376L1086 1377Q1069 1378 1041 1380T974 1385T891 1391T802 1395T711 1398T625 1399Q484 1399 404 1347T283 1152T242 750Q242
105 625 104Q721 104 841 109T1032 119L1104 123V33Q862 -12 625 -12Q125 -12 125 754Z" />
<glyph unicode="D" glyph-name="D" horiz-adv-x="1353" d="M184 0V1499H727Q860 1499 959 1449T1114 1323T1204 1141T1249 941T1260 743Q1260 608 1230 482T1140 246T973 68T727 0H184ZM301 121H727Q866 121 963 214T1102 444T1143 745Q1143 1382 727 1382H301V121Z" />
<glyph unicode="E" glyph-name="E" horiz-adv-x="1171" d="M184 252V1233Q184 1374 258 1438Q328 1499 429 1499Q435 1499 442 1499L1075 1470V1382H442Q362 1382 332 1345T301 1233V805L993 788V698L301 682V252Q301 203 314 173T354 130T403 114T463 111H1075V25L463
-6Q452 -6 441 -6Q398 -6 362 0Q318 8 275 32T208 113T184 252Z" />
<glyph unicode="F" glyph-name="F" horiz-adv-x="1171" d="M184 0V1233Q184 1374 258 1438Q328 1499 429 1499Q435 1499 442 1499L1075 1470V1382H442Q362 1382 332 1345T301 1233V805L993 788V698L301 682V0H184Z" />
<glyph unicode="G" glyph-name="G" horiz-adv-x="1261" d="M125 758Q125 893 134 995T173 1200T253 1368T389 1475T594 1516Q674 1516 837 1499T1110 1460V1368Q1108 1368 1072 1371T980 1379T860 1388T722 1396T594 1399Q385 1399 314 1248T242 754Q242 396 319
251T602 104Q672 104 778 129T956 178L1028 203V678H651V756Q801 797 1006 797Q1072 797 1145 791V0H1059L1032 104Q827 -10 606 -10Q604 -10 602 -10Q596 -10 590 -10Q475 -10 390 28Q301 68 251 132T171 302T133 510T125 758Z" />
<glyph unicode="H" glyph-name="H" horiz-adv-x="1323" d="M184 0V1499H301V782H1079V1499H1196V0H1079V668H301V0H184Z" />
<glyph unicode="I" glyph-name="I" horiz-adv-x="428" d="M184 0V1499H301V0H184Z" />
<glyph unicode="J" glyph-name="J" horiz-adv-x="727" d="M80 43L88 125Q139 111 174 105T261 93Q277 91 291 91Q323 91 347 100Q381 111 415 135T466 212T483 338V1499H600V338Q600 109 494 37Q419 -12 298 -12Q293 -12 288 -12Q160 -10 80 43Z" />
<glyph unicode="K" glyph-name="K" horiz-adv-x="1210" d="M184 0V1499H301V811H516L995 1499H1137L625 752L1137 0H995L516 692H303V0H184Z" />
<glyph unicode="L" glyph-name="L" horiz-adv-x="1140" d="M184 258V1499H301V258Q301 209 314 180T354 137T403 120T463 117H1067V0H463Q404 0 361 8T274 41T208 121T184 258Z" />
<glyph unicode="M" glyph-name="M" horiz-adv-x="1636" d="M125 0L248 1499H410L821 195L1223 1499H1386L1520 0H1403L1286 1298L885 0H764L350 1298L242 0H125Z" />
<glyph unicode="N" glyph-name="N" horiz-adv-x="1380" d="M184 0V1499H303L1137 219V1499H1253V0H1137L301 1280V0H184Z" />
<glyph unicode="O" glyph-name="O" horiz-adv-x="1382" d="M150 739Q150 946 177 1089T249 1315T371 1441T525 1497T719 1509Q817 1509 884 1501T1023 1467T1138 1388T1218 1251T1271 1039T1288 739Q1288 542 1263 407T1195 191T1077 65T921 6T719 -8Q617 -8 548
0T409 33T295 109T216 242T165 447T150 739ZM266 739Q266 571 281 461T326 279T414 170T540 121T719 109Q895 109 986 153T1124 333T1171 739Q1171 895 1160 1005T1120 1188T1058 1301T967 1362T857 1387T719 1393Q662 1393 628 1392T548 1385T476 1366T415 1332T362
1275T322 1193T291 1081T274 931T266 739Z" />
<glyph unicode="P" glyph-name="P" horiz-adv-x="1191" d="M137 0V1499H737Q1095 1499 1096 1073Q1096 952 1073 865T1015 733T928 663T835 632T737 627Q676 627 469 642T254 662V0H137ZM254 745H737Q852 745 916 811Q978 875 977 1061Q977 1067 977 1073Q977
1173 955 1240T892 1334T818 1371T737 1380H254V745Z" />
<glyph unicode="Q" glyph-name="Q" horiz-adv-x="1382" d="M150 739Q150 911 166 1039T219 1251T300 1387T414 1466T551 1501T717 1509Q838 1509 914 1497T1069 1441T1191 1314T1261 1089T1288 739Q1288 542 1263 407T1194 191T1075 65T919 6T717 -8Q615 -8 546
0T407 33T294 109T216 242T165 447T150 739ZM266 739Q266 530 287 407T366 217T502 130T717 109Q805 109 865 118T980 151T1068 220T1126 335T1161 504T1171 739Q1171 856 1164 947T1141 1106T1106 1222T1054 1301T992 1351T913 1379T822 1391T717 1393Q643 1393
602 1390T505 1374T419 1337T356 1265T306 1149T278 977T266 739ZM672 -68H752Q838 -165 962 -165Q1026 -165 1100 -139V-264Q1042 -286 979 -286Q911 -286 837 -259Q697 -207 672 -68Z" />
<glyph unicode="R" glyph-name="R" horiz-adv-x="1200" d="M137 0V1499H752Q1102 1499 1102 1063Q1102 653 819 633L1141 0H1014L694 629Q258 654 254 655V0H137ZM254 754H752Q805 754 838 762T909 797T964 891T983 1063Q983 1165 964 1231T908 1329T837 1370T752
1380H254V754Z" />
<glyph unicode="S" glyph-name="S" horiz-adv-x="1196" d="M150 1012V1147Q150 1354 254 1432T551 1511Q729 1511 1044 1466V1376Q550 1394 551 1395Q536 1396 522 1396Q402 1396 338 1350Q266 1298 266 1147V1012Q266 877 323 836T506 795H778Q876 795 943 767T1042
688T1088 583T1102 459V319Q1102 215 1068 146T972 42T844 -4T692 -16Q618 -16 440 0T190 29V119Q385 101 692 100Q985 100 985 319V459Q985 568 938 622T778 676H510Q393 676 318 703T207 783T161 887T150 1012Z" />
<glyph unicode="T" glyph-name="T" horiz-adv-x="1200" d="M94 1382V1499H1141V1382H670V0H553V1382H94Z" />
<glyph unicode="U" glyph-name="U" horiz-adv-x="1390" d="M184 655V1499H301V655Q301 565 308 493T324 366T355 269T393 201T443 156T499 127T567 113T639 108T719 106H727Q811 106 858 111T967 146T1063 231T1120 393T1145 655V1499H1262V655Q1262 518 1244
411T1201 234T1129 116T1044 43T940 6T836 -8T727 -10H710Q620 -10 574 -7T455 13T343 73T262 185T202 374T184 655Z" />
<glyph unicode="V" glyph-name="V" horiz-adv-x="1363" d="M102 1499H231L696 176L1184 1499H1311L758 0H633L102 1499Z" />
<glyph unicode="W" glyph-name="W" horiz-adv-x="1976" d="M102 1499H231L694 190L1110 1499H1241L1077 973L1372 182L1796 1499H1923L1438 0H1313L1016 780L758 0H633L102 1499Z" />
<glyph unicode="X" glyph-name="X" horiz-adv-x="1198" d="M102 1499H233L621 844L1014 1499H1145L698 754L1135 0H1004L621 651L240 0H109L545 754L102 1499Z" />
<glyph unicode="Y" glyph-name="Y" horiz-adv-x="1282" d="M102 1499H231L645 674L1102 1499H1229L705 532V0H588V532L102 1499Z" />
<glyph unicode="Z" glyph-name="Z" horiz-adv-x="1142" d="M80 0V117L918 1382H80V1499H1069V1382L231 117H1069V0H80Z" />
<glyph unicode="[" glyph-name="bracketleft" horiz-adv-x="661" d="M195 -78V1372Q195 1429 204 1480T239 1592T325 1688T473 1724H616V1608H473Q399 1608 355 1547T311 1372V-78Q311 -184 352 -248T473 -313H616V-430H473Q385 -430 326 -394T240 -298T204 -187T195
-78Z" />
<glyph unicode="\" glyph-name="backslash" horiz-adv-x="786" d="M45 1577H166L741 -147H621L45 1577Z" />
<glyph unicode="]" glyph-name="bracketright" horiz-adv-x="661" d="M45 -313H188Q268 -313 309 -249T350 -78V1372Q350 1485 307 1546T188 1608H45V1724H188Q276 1724 335 1689T422 1593T458 1481T467 1372V-78Q467 -135 458 -186T422 -298T336 -394T188 -430H45V-313Z" />
<glyph unicode="^" glyph-name="asciicircum" horiz-adv-x="813" d="M115 1087L365 1354H475L698 1087H590L418 1264L225 1087H115Z" />
<glyph unicode="_" glyph-name="underscore" horiz-adv-x="1368" d="M45 -2V115H1323V-2H45Z" />
<glyph unicode="`" glyph-name="grave" horiz-adv-x="466" d="M45 1360H193L422 1087H317L45 1360Z" />
<glyph unicode="a" glyph-name="a" horiz-adv-x="1062" d="M92 258V383Q92 510 165 582T365 655Q599 654 716 654T834 655Q835 723 835 757T834 793Q834 995 633 995Q632 995 631 995Q438 995 127 963V1047Q342 1106 637 1108Q640 1108 644 1108Q776 1108 862
1031Q950 952 950 793V0H864L834 131L803 117Q772 103 721 81T612 38T486 2T365 -12Q248 -12 170 59T92 258ZM209 268Q209 182 253 143T365 104Q368 104 371 104Q533 104 834 215V567L365 539Q209 529 209 375V268Z" />
<glyph unicode="b" glyph-name="b" horiz-adv-x="1132" d="M137 0V1608H250V1022Q342 1059 460 1081T653 1104Q764 1104 839 1057T953 924T1005 747T1020 539Q1020 457 1011 384T976 237T910 109T805 22T653 -12Q559 -12 429 35T252 121L219 0H137ZM252 205Q477
105 653 104Q768 104 835 214T903 539Q903 793 839 890T653 987Q463 987 252 932V205Z" />
<glyph unicode="c" glyph-name="c" horiz-adv-x="1024" d="M115 373T115 545T140 830T217 1000T327 1077T473 1098Q641 1098 920 1044V963Q656 981 473 981Q412 981 373 968T299 911T248 776T231 537Q231 287 288 197T473 106L934 135V49Q735 -6 473 -10Q389 -10
331 10T220 87T142 258Z" />
<glyph unicode="d" glyph-name="d" horiz-adv-x="1132" d="M115 539Q115 656 129 747T180 924T293 1057T479 1104Q555 1104 673 1082T883 1022V1608H995V0H915L881 121Q834 82 704 35T479 -12Q373 -12 298 37T185 171T131 345T115 539ZM231 539Q231 320 298 212T479
104Q659 104 881 205V932Q668 987 479 987Q358 987 295 891T231 539Z" />
<glyph unicode="e" glyph-name="e" horiz-adv-x="1075" d="M115 549Q115 729 138 837T222 1003T359 1078T569 1096Q657 1096 711 1091T824 1064T913 1002T964 889T985 711Q985 592 917 536T705 479H231Q231 256 285 181T473 106Q782 106 965 133V47Q762 -10 473
-10Q266 -8 191 113T115 549ZM231 594H705Q785 594 826 619T868 711Q868 803 855 856T803 937T715 972T571 979Q499 979 459 976T374 960T308 922T266 854T239 749T231 594Z" />
<glyph unicode="f" glyph-name="f" horiz-adv-x="806" d="M45 971V1057L238 1087V1290Q238 1335 240 1367T254 1449T289 1531T359 1586T469 1610Q633 1610 762 1569V1495H498Q494 1495 491 1495Q405 1495 380 1447Q354 1397 354 1290V1087H678V971H354V0H238V971H45Z" />
<glyph unicode="g" glyph-name="g" horiz-adv-x="1146" d="M102 -57L166 104Q109 148 109 240Q109 295 144 343T248 399Q109 471 109 705Q109 1092 463 1092H1102V1006L915 975Q917 973 926 961T940 942T953 921T968 893T980 860T990 817T996 766T999 705Q999
648 986 592T940 469T836 363T662 322H342Q225 322 225 242Q225 199 259 178T336 156H768Q899 156 970 80T1042 -123V-244Q1042 -553 735 -553H428Q278 -553 190 -472T102 -238V-57ZM221 72V-238Q221 -436 426 -436Q427 -436 428 -436H735Q925 -436 926 -244V-129Q926
-43 888 -1T750 41H338Q303 41 275 49T233 65L221 72ZM225 705Q225 590 279 514T449 438H651Q776 438 830 519Q883 597 883 698Q883 701 883 705Q879 840 832 907T680 975H457Q225 975 225 705Z" />
<glyph unicode="h" glyph-name="h" horiz-adv-x="1118" d="M137 0V1606H254V961Q332 1008 383 1033T513 1082T670 1106Q826 1106 916 1004T1006 758V0H889V758Q889 867 830 928T670 989Q553 989 470 964T254 870V0H137Z" />
<glyph unicode="i" glyph-name="i" horiz-adv-x="382" d="M115 1268V1382Q115 1425 156 1425H231Q270 1425 270 1382V1268Q270 1227 231 1227H156Q115 1227 115 1268ZM131 0V1087H248V0H131Z" />
<glyph unicode="j" glyph-name="j" horiz-adv-x="430" d="M137 1268V1382Q137 1425 178 1425H254Q293 1425 293 1382V1268Q293 1227 254 1227H178Q137 1227 137 1268ZM156 -553V1087H272V-8Q272 -37 272 -65Q272 -381 231 -553H156Z" />
<glyph unicode="k" glyph-name="k" horiz-adv-x="1021" d="M137 0V1602H254V684H350L811 1087H977L461 625L977 0H827L350 565H254V0H137Z" />
<glyph unicode="l" glyph-name="l" horiz-adv-x="612" d="M137 387V1604H254V387Q254 305 265 252T300 172T344 134T395 117Q553 80 567 80V0H401Q137 0 137 387Z" />
<glyph unicode="m" glyph-name="m" horiz-adv-x="1861" d="M137 0V1087H217L254 958Q332 1005 381 1031T507 1079T659 1102Q759 1102 840 1058T958 940Q1046 1010 1167 1056T1411 1102Q1558 1102 1652 1003T1747 752V0H1630V752Q1630 854 1570 919T1411 985Q1186
985 987 860Q997 833 997 756V0H881V752Q881 854 820 919T659 985Q546 985 468 960T254 866V0H137Z" />
<glyph unicode="n" glyph-name="n" horiz-adv-x="1118" d="M137 0V1087H217L254 961Q332 1008 383 1033T513 1082T670 1106Q826 1106 916 1004T1006 758V0H889V758Q889 864 829 926T670 989Q553 989 470 964T254 870V0H137Z" />
<glyph unicode="o" glyph-name="o" horiz-adv-x="1165" d="M115 528Q115 856 217 977T584 1098Q852 1098 952 972T1053 528Q1053 225 952 108T584 -10Q316 -10 216 110T115 528ZM231 528Q231 387 252 300T324 172T431 119T584 106Q682 106 739 119T846 176T915
304T936 528Q936 680 917 771T849 908T743 967T584 981Q504 981 456 974T360 943T287 870T247 737T231 528Z" />
<glyph unicode="p" glyph-name="p" horiz-adv-x="1132" d="M137 -551V1087H219L252 967Q299 1006 429 1053T653 1100Q739 1100 804 1066T910 979T975 851T1010 704T1020 549Q1020 432 1006 341T953 164T840 31T653 -16Q577 -16 460 6T250 66V-551H137ZM252 156Q463
101 653 100Q774 100 838 197T903 549Q903 764 836 873T653 983Q473 983 252 883V156Z" />
<glyph unicode="q" glyph-name="q" horiz-adv-x="1138" d="M115 549Q115 813 209 956T492 1100Q635 1100 1001 1061V-553H885V59Q690 -20 497 -20Q494 -20 492 -20Q377 -20 301 21T185 144T130 321T115 549ZM231 549Q231 469 235 413T254 292T296 189T373 123T492
96Q666 96 885 152V983H492Q231 983 231 549Z" />
<glyph unicode="r" glyph-name="r" horiz-adv-x="870" d="M137 0V1087H217L254 950Q258 952 290 970T329 993T365 1013T406 1034T445 1051T488 1069T529 1081T575 1092T621 1097T674 1100Q785 1100 825 1083V969Q776 981 674 981Q594 981 518 962T402 925T254 856V0H137Z" />
<glyph unicode="s" glyph-name="s" horiz-adv-x="1034" d="M92 737V831Q92 962 157 1030T375 1098Q590 1098 889 1069V983H375Q273 983 241 947T209 831V737Q209 645 247 622T375 598H678Q805 598 874 531T944 346V246Q944 94 872 42T678 -10Q608 -10 407 3T137
23V106H678H683Q685 106 687 106Q828 106 827 246V346Q827 483 678 483H375Q221 483 157 534T92 737Z" />
<glyph unicode="t" glyph-name="t" horiz-adv-x="753" d="M45 973V1059L238 1090L268 1393H354V1090H686V973H354V387Q354 283 377 222T428 143T496 117Q654 82 668 82V0H502Q238 0 238 387V973H45Z" />
<glyph unicode="u" glyph-name="u" horiz-adv-x="1118" d="M115 330V1087H231V330Q231 224 291 161T451 98Q568 98 648 125T866 219V1087H983V0H903L866 127Q788 80 737 55T607 6T451 -18Q295 -18 205 84T115 330Z" />
<glyph unicode="v" glyph-name="v" horiz-adv-x="1085" d="M45 1087H172L541 170L915 1087H1040L598 0H479L45 1087Z" />
<glyph unicode="w" glyph-name="w" horiz-adv-x="1624" d="M45 1087H174L522 170L840 1087H967L842 719L1094 170L1452 1087H1579L1157 0H1038L784 563L586 0H459L45 1087Z" />
<glyph unicode="x" glyph-name="x" horiz-adv-x="1042" d="M55 0L449 545L55 1087H201L518 643L842 1087H987L592 541L977 0H842L522 442L201 0H55Z" />
<glyph unicode="y" glyph-name="y" horiz-adv-x="1116" d="M47 1087H176L453 238Q476 172 516 142Q550 117 577 117Q581 117 584 117L612 121L938 1087H1067L588 -344L455 -553H385L571 0Q395 0 328 225L47 1087Z" />
<glyph unicode="z" glyph-name="z" horiz-adv-x="946" d="M68 971V1087H879V971L252 119H879V2H100V119L733 971H68Z" />
<glyph unicode="{" glyph-name="braceleft" horiz-adv-x="643" d="M45 629V737Q84 741 104 744T160 760T212 796T229 860V1343Q229 1507 318 1615T598 1724V1608Q477 1608 412 1550T346 1343V860Q346 788 298 742T176 684Q248 674 296 626T344 514V-78Q344 -324
598 -313V-430Q489 -430 413 -399T298 -313T244 -202T227 -78V506Q227 569 170 602T45 629Z" />
<glyph unicode="|" glyph-name="bar" horiz-adv-x="507" d="M197 -147V1577H313V-147H197Z" />
<glyph unicode="}" glyph-name="braceright" horiz-adv-x="643" d="M45 -313Q299 -323 299 -78V514Q299 577 347 625T467 684Q393 696 345 742T297 860V1343Q297 1490 232 1549T45 1608V1724Q235 1724 324 1616T414 1343V860Q414 821 431 797T483 760T538 745T598
737V629Q530 635 473 602T416 506V-78Q416 -146 400 -202T345 -312T231 -398T45 -430V-313Z" />
<glyph unicode="~" glyph-name="asciitilde" horiz-adv-x="919" d="M115 1171Q127 1181 157 1209T202 1248T242 1276T292 1298T346 1305Q391 1305 466 1256T578 1206Q601 1206 622 1211T668 1230T704 1249T743 1274T774 1296L807 1235Q803 1231 778 1207T743 1173T709
1144T668 1116T627 1101T578 1094Q531 1094 455 1143T342 1192Q307 1192 279 1182T207 1146T145 1110L115 1171Z" />
</font>
</defs>
</svg>
