<?xml version="1.0" standalone="no"?> <!DOCTYPE svg PUBLIC "-//W3C//DTD SVG 1.0//EN" "http://www.w3.org/TR/2001/REC-SVG-20010904/DTD/svg10.dtd" > <svg xmlns="http://www.w3.org/2000/svg" width="100%" height="100%">
<defs >
<font id="exo-light-italic" horiz-adv-x="1077" ><font-face
    font-family="Exo"
    units-per-em="2048"
    panose-1="2 0 3 3 0 0 0 0 0 0"
    ascent="2052"
    descent="-598"
    alphabetic="0" />
<missing-glyph horiz-adv-x="748" d="M68 0V1365H612V0H68ZM136 68H544V1297H136V68Z" />
<glyph unicode=" " glyph-name="space" horiz-adv-x="499" />
<glyph unicode="!" glyph-name="exclam" horiz-adv-x="522" d="M174 39L193 160Q199 203 240 203H324Q365 203 356 160L338 39Q332 0 293 0H209Q168 0 174 39ZM252 408L412 1497H549L362 408H252Z" />
<glyph unicode="&quot;" glyph-name="quotedbl" horiz-adv-x="714" d="M319 1087L344 1362L367 1499H485L463 1362L401 1087H319ZM573 1087L596 1362L618 1499H739L717 1362L655 1087H573Z" />
<glyph unicode="#" glyph-name="numbersign" horiz-adv-x="1368" d="M115 487L139 567H479L594 932H254L283 1012H618L774 1499H854L698 1012H1053L1204 1499H1284L1133 1012H1495L1466 932H1104L989 565H1352L1327 485H965L809 0H729L885 485L530 487L377 0H297L453
487H115ZM557 567L909 565L1024 932H672L557 567Z" />
<glyph unicode="$" glyph-name="dollar" horiz-adv-x="1175" d="M164 29L178 111Q198 111 288 107T476 100T657 98Q708 98 755 107T853 139T938 208T983 319L1004 459Q1022 578 992 627T831 676H584Q480 676 409 707T311 788T273 897T276 1012L297 1147Q332 1354
445 1431T756 1511L784 1688H874L848 1507Q920 1501 1065 1485T1223 1466L1208 1376L752 1397Q609 1401 524 1348T416 1147L393 1012Q375 893 423 844T602 795H850Q950 795 1013 766T1100 690T1130 583T1122 459L1100 319Q1045 -37 606 -16L580 -182H487L516 -8Q252
15 164 29Z" />
<glyph unicode="%" glyph-name="percent" horiz-adv-x="1984" d="M236 971L279 1243Q299 1380 362 1439T584 1499H791Q930 1499 980 1440T1010 1243L967 971Q944 828 882 772T666 715H459Q197 715 236 971ZM336 971Q322 879 351 847T471 815H678Q776 815 815 846T868
971L909 1243Q925 1337 900 1369T776 1401H569Q471 1401 432 1368T377 1243L336 971ZM461 0L1595 1499H1708L573 0H461ZM1167 258L1210 530Q1230 667 1294 726T1513 786H1720Q1859 786 1910 727T1942 530L1898 258Q1875 115 1812 59T1595 2H1389Q1128 2 1167 258ZM1268
258Q1254 166 1283 133T1403 100H1610Q1706 100 1746 132T1800 258L1843 530Q1857 622 1831 654T1706 686H1499Q1401 686 1363 655T1311 530L1268 258Z" />
<glyph unicode="&amp;" glyph-name="ampersand" horiz-adv-x="1323" d="M98 318T143 473T350 750L545 899L444 1073Q376 1190 397 1279T485 1422T641 1489Q901 1518 1196 1464L1184 1389H762Q653 1389 588 1360T505 1269T547 1104L958 393L1264 659L1300 627L1149
410L1018 293L1192 0H1071L936 227L780 90Q698 18 587 -3T366 17T190 164Q98 318 143 473ZM283 558T250 441T287 225Q355 121 477 104T705 174L879 324L602 797L424 662Q283 558 250 441Z" />
<glyph unicode="&apos;" glyph-name="quotesingle" horiz-adv-x="344" d="M266 1087L291 1362L313 1499H432L410 1362L348 1087H266Z" />
<glyph unicode="(" glyph-name="parenleft" horiz-adv-x="645" d="M233 322T235 454T260 715Q289 883 349 1057T476 1359T605 1591T709 1749L750 1802H887Q871 1782 843 1745T741 1591T603 1352T474 1054T377 709Q344 516 349 349T384 46T448 -186T512 -336L541
-389H412Q406 -379 398 -361T364 -282T318 -155T276 13T244 218Z" />
<glyph unicode=")" glyph-name="parenright" horiz-adv-x="647" d="M-27 -389Q-11 -371 17 -335T120 -184T258 53T388 352T485 705Q516 893 511 1058T476 1359T412 1594T349 1748L322 1802H449Q455 1792 463 1773T495 1691T540 1561T582 1391T615 1186T625 955T602
702Q571 526 510 349T383 44T255 -185T153 -338L113 -389H-27Z" />
<glyph unicode="*" glyph-name="asterisk" horiz-adv-x="929" d="M285 1178L295 1241L588 1284L578 1165L285 1178ZM381 844L479 1120L592 1094L436 825L381 844ZM588 987L668 1087L870 907L827 856L588 987ZM598 1473L664 1497L774 1251L657 1202L598 1473ZM702
1157L969 1317L991 1262L766 1067L702 1157Z" />
<glyph unicode="+" glyph-name="plus" horiz-adv-x="1060" d="M205 670L223 788H580L635 1145H754L696 788H1055L1036 670H678L621 313H504L561 670H205Z" />
<glyph unicode="," glyph-name="comma" horiz-adv-x="481" d="M145 -166L152 -119Q205 -121 215 -66L225 0H205Q164 0 170 43L188 160Q194 205 238 205H315Q356 205 348 160L317 -41Q307 -111 264 -141T183 -169L145 -166Z" />
<glyph unicode="-" glyph-name="hyphen" horiz-adv-x="710" d="M123 535L141 653H764L745 535H123Z" />
<glyph unicode="." glyph-name="period" horiz-adv-x="487" d="M168 39L188 160Q192 203 236 203H315Q358 203 352 160L332 39Q326 0 285 0H205Q164 0 168 39Z" />
<glyph unicode="/" glyph-name="slash" horiz-adv-x="745" d="M16 -147L864 1577H987L139 -147H16Z" />
<glyph unicode="0" glyph-name="zero" horiz-adv-x="1318" d="M195 332L328 1167Q381 1499 731 1499H1047Q1221 1499 1290 1404T1337 1167L1204 332Q1175 156 1076 78T809 0H494Q340 0 254 80T195 332ZM311 332Q291 205 345 162T512 119H827Q1050 119 1087 332L1221
1167Q1237 1276 1194 1328T1028 1380H713Q480 1380 446 1167L311 332Z" />
<glyph unicode="1" glyph-name="one" horiz-adv-x="768" d="M274 1237L289 1321Q471 1321 672 1483L692 1499H807L573 0H455L670 1348Q617 1309 511 1273T274 1237Z" />
<glyph unicode="2" glyph-name="two" horiz-adv-x="1204" d="M96 0L115 109Q1096 740 1153 1092Q1202 1401 899 1401H303L317 1485Q596 1520 926 1520Q1127 1520 1210 1398T1272 1087Q1260 981 1173 850T979 614T732 395T511 224T356 119H1112L1094 0H96Z" />
<glyph unicode="3" glyph-name="three" horiz-adv-x="1206" d="M80 31L92 106H686Q788 106 871 160T975 334L993 455Q1005 529 992 577T943 646T873 676T786 686L311 700L328 788L807 807Q922 811 997 867T1090 1026L1110 1167Q1147 1384 901 1384H283L293 1458Q475
1511 934 1503Q1090 1501 1170 1406T1229 1165L1206 1024Q1186 901 1123 831T989 745Q1055 716 1095 643T1116 451L1096 330Q1043 -14 678 -14Q512 -14 440 -13T257 -2T80 31Z" />
<glyph unicode="4" glyph-name="four" horiz-adv-x="1212" d="M113 467L924 1499H1069L305 522H940L1010 967L1096 1120H1155L1061 522H1245L1231 432L1042 399L979 4H858L920 399H156L113 467Z" />
<glyph unicode="5" glyph-name="five" horiz-adv-x="1249" d="M162 31L176 115H793Q895 115 964 181T1049 342L1083 553Q1122 786 907 786H596Q516 786 447 734T365 598H254L442 1499H1309L1288 1380H535L418 817Q492 899 629 905Q703 907 745 907T845 905T922
903Q1074 903 1148 807T1200 557L1167 338Q1112 -6 778 -10Q400 -10 162 31Z" />
<glyph unicode="6" glyph-name="six" horiz-adv-x="1280" d="M254 786Q313 1161 442 1336T721 1511Q1086 1511 1313 1479L1300 1393H723Q651 1393 589 1333T485 1179T418 996T379 825Q682 860 930 860Q1028 862 1093 834T1183 760T1218 661T1217 557L1178 303Q1151
139 1057 70T809 0H522Q129 0 254 786ZM365 743Q267 112 532 113H817Q1030 113 1061 309L1100 553Q1118 664 1074 703T915 743H365Z" />
<glyph unicode="7" glyph-name="seven" horiz-adv-x="1114" d="M274 1380L293 1499H1219L1253 1417L506 0H367L1100 1380H274Z" />
<glyph unicode="8" glyph-name="eight" horiz-adv-x="1300" d="M197 221T197 251T203 315L233 516Q249 622 318 681T467 748Q367 775 333 855T313 1026L336 1159Q367 1356 467 1432T748 1509H1026Q1186 1509 1259 1417T1307 1151L1284 1018Q1276 948 1222 872T1075
780Q1157 753 1189 678T1204 516L1174 315Q1158 215 1118 148T1020 50T911 10T793 0H516Q418 0 351 26T252 88T209 172ZM319 309Q303 205 357 162T537 119H807Q893 119 965 164T1053 309L1087 524Q1103 626 1050 666T911 707H604Q518 707 444 664T354 524L319 309ZM430
1012Q412 906 471 865T621 823H926Q1039 823 1095 879T1165 1012L1188 1151Q1208 1286 1165 1339T1006 1393H729Q592 1393 531 1337T451 1151L430 1012Z" />
<glyph unicode="9" glyph-name="nine" horiz-adv-x="1280" d="M176 29L190 115H766Q840 115 902 174T1006 328T1072 511T1112 682Q809 647 555 647Q457 645 393 675T304 750T270 849T272 952L313 1208Q360 1507 690 1507H971Q1362 1507 1237 715Q1178 340 1049
168T770 -4Q366 -4 176 29ZM389 950Q373 839 419 802T578 764H1126Q1224 1395 961 1395H674Q457 1395 426 1198L389 950Z" />
<glyph unicode=":" glyph-name="colon" horiz-adv-x="491" d="M172 39L190 160Q196 203 240 203H319Q364 203 354 160L336 39Q328 0 289 0H207Q191 0 181 11T172 39ZM309 926L328 1047Q334 1088 377 1087H457Q502 1087 492 1047L473 926Q467 887 424 887H344Q303
887 309 926Z" />
<glyph unicode=";" glyph-name="semicolon" horiz-adv-x="489" d="M145 -166L152 -119Q205 -121 215 -66L225 0H205Q189 0 178 13T170 43L188 160Q190 178 204 191T238 205H315Q356 205 348 160L317 -41Q307 -111 264 -141T183 -169L145 -166ZM311 926L332 1047Q336
1090 379 1090H459Q502 1090 496 1047L475 926Q469 887 428 887H348Q307 887 311 926Z" />
<glyph unicode="&lt;" glyph-name="less" horiz-adv-x="968" d="M203 664L223 786L1026 1139L1006 1012L348 719L909 406L891 287L203 664Z" />
<glyph unicode="=" glyph-name="equal" horiz-adv-x="952" d="M109 434L129 553H1004L983 434H109ZM180 897L201 1014H1075L1055 897H180Z" />
<glyph unicode="&gt;" glyph-name="greater" horiz-adv-x="970" d="M147 287L168 418L838 727L262 1028L283 1139L973 786L954 664L147 287Z" />
<glyph unicode="?" glyph-name="question" horiz-adv-x="1105" d="M256 1401L270 1479Q598 1520 827 1513Q1034 1513 1121 1409T1180 1135L1147 928Q1114 715 972 644T584 606L566 505Q549 404 551 399H430L477 705Q653 701 741 705Q854 707 934 761T1030 928L1063
1135Q1086 1280 1026 1340T797 1401H256ZM356 39L375 160Q381 203 422 203H502Q545 203 539 160L520 39Q512 0 471 0H391Q350 0 356 39Z" />
<glyph unicode="@" glyph-name="at" horiz-adv-x="1798" d="M131 18L297 1067Q356 1432 717 1432H1485Q1653 1432 1725 1338T1772 1067L1663 342Q1657 303 1651 273T1621 188T1564 97T1466 34T1317 6H1223L1192 129Q1143 74 1045 34T840 -8Q650 -12 565 113T528
563Q553 725 604 838T719 1008T843 1088T969 1114Q1100 1118 1231 1088T1434 987L1307 123Q1350 123 1381 129T1449 155T1509 223T1544 342L1655 1067Q1659 1124 1661 1165T1648 1233T1619 1276T1579 1300T1531 1311T1477 1313H700Q626 1313 570 1290T484 1226T438
1148T414 1067L250 18Q230 -103 279 -176T453 -250H1241L1229 -324Q1014 -367 633 -367H432Q274 -367 189 -258T131 18ZM616 356T637 265T703 143T834 111Q1033 103 1202 233L1311 948Q1168 1001 977 997Q698 991 641 520Q616 356 637 265Z" />
<glyph unicode="A" glyph-name="A" horiz-adv-x="1339" d="M92 0L885 1499H1008L1300 0H1182L1094 451H461L223 0H92ZM524 569H1071L926 1341L524 569Z" />
<glyph unicode="B" glyph-name="B" horiz-adv-x="1216" d="M164 0L401 1499H961Q1168 1500 1240 1390Q1295 1307 1295 1192Q1295 1156 1290 1116Q1272 975 1197 889T1022 780Q1090 768 1149 666Q1192 592 1192 490Q1192 452 1186 410Q1135 0 723 0H164ZM303 119H741Q1020
119 1069 420Q1074 452 1074 481Q1074 571 1028 639Q968 727 844 727Q841 727 838 727H397L303 119ZM418 844H858Q983 844 1066 914T1171 1118Q1179 1165 1179 1203Q1178 1287 1138 1325Q1078 1380 944 1380H502L418 844Z" />
<glyph unicode="C" glyph-name="C" horiz-adv-x="1173" d="M217 480Q215 510 215 540Q215 650 238 760Q269 953 309 1081T418 1313T594 1466T852 1516Q1026 1516 1325 1458L1311 1368Q1088 1397 888 1397Q864 1397 840 1397Q787 1397 748 1391T658 1364T566 1299T485
1187T411 1008T354 750Q334 626 334 524Q334 384 372 285Q436 115 627 106Q655 105 691 105Q840 105 1118 125L1106 35Q916 -12 618 -12Q479 -12 387 55T260 231T217 480Z" />
<glyph unicode="D" glyph-name="D" horiz-adv-x="1359" d="M164 0L401 1497Q401 1499 946 1499Q1077 1499 1169 1445T1306 1310Q1350 1230 1367 1122Q1381 1035 1381 957Q1381 938 1380 920Q1376 826 1360 737Q1227 0 713 0H164ZM301 123H729Q838 123 929 176T1081
320T1183 518T1243 745Q1263 872 1263 974Q1262 1132 1214 1226Q1134 1380 926 1380H500L301 123Z" />
<glyph unicode="E" glyph-name="E" horiz-adv-x="1157" d="M201 256L356 1237Q399 1499 639 1499Q648 1499 657 1499L1288 1470L1274 1380H639Q496 1380 475 1233L406 805L1098 788L1083 698L387 680L319 252Q315 230 315 211Q314 189 320 173Q330 143 354 130T400
114T459 111H1073L1059 25L438 -6Q428 -7 418 -7Q316 -8 250 50Q196 97 195 191Q195 221 201 256Z" />
<glyph unicode="F" glyph-name="F" horiz-adv-x="1153" d="M164 0L358 1231Q399 1499 640 1499Q649 1499 659 1499L1290 1470L1276 1380H639Q561 1380 524 1344T475 1233L410 805L1100 788L1085 698L389 680L283 0H164Z" />
<glyph unicode="G" glyph-name="G" horiz-adv-x="1267" d="M222 480Q221 501 221 521Q221 639 246 758Q271 905 298 1012T372 1219T480 1380T635 1477T846 1513Q856 1513 867 1513Q1032 1513 1329 1456L1317 1362Q1098 1393 831 1397Q768 1397 717 1385T610 1331T511
1222T430 1033T367 750Q345 609 345 497Q345 363 377 270Q435 104 623 104Q625 104 627 104Q699 104 806 132T986 187L1059 215L1137 676H760L774 756Q930 797 1135 797Q1198 797 1272 791L1147 0H1061L1047 115Q992 72 861 30T614 -12Q473 -12 382 55T259 232T222
480Z" />
<glyph unicode="H" glyph-name="H" horiz-adv-x="1308" d="M174 0L412 1499H528L416 784H1192L1307 1499H1425L1188 0H1069L1176 666H397L291 0H174Z" />
<glyph unicode="I" glyph-name="I" horiz-adv-x="438" d="M184 0L422 1499H541L303 0H184Z" />
<glyph unicode="J" glyph-name="J" horiz-adv-x="708" d="M78 43L100 127Q147 115 183 108T268 96Q280 95 291 95Q326 95 354 104Q391 117 428 141T490 216T528 338L713 1499H829L645 338Q610 109 492 37Q411 -12 289 -12Q284 -12 279 -12Q150 -10 78 43Z" />
<glyph unicode="K" glyph-name="K" horiz-adv-x="1140" d="M164 0L401 1499H520L410 811H633L1208 1499H1356L733 745L1118 0H977L623 692H393L283 0H164Z" />
<glyph unicode="L" glyph-name="L" horiz-adv-x="1101" d="M203 258L401 1499H518L319 258Q315 237 315 218Q314 196 320 180Q330 150 355 138T402 122T461 119H1067L1049 0H444Q324 0 252 58Q198 102 197 194Q197 224 203 258Z" />
<glyph unicode="M" glyph-name="M" horiz-adv-x="1619" d="M145 0L504 1499H657L868 197L1479 1499H1645L1540 0H1421L1516 1296L905 0H782L575 1290L264 0H145Z" />
<glyph unicode="N" glyph-name="N" horiz-adv-x="1339" d="M164 0L401 1499H516L1122 219L1327 1499H1444L1206 0H1094L485 1282L283 0H164Z" />
<glyph unicode="O" glyph-name="O" horiz-adv-x="1376" d="M209 450Q211 574 238 743Q271 950 319 1092T421 1317T558 1442T719 1497T918 1509Q1014 1509 1082 1499T1216 1462T1320 1380T1382 1241Q1405 1163 1405 1049Q1405 1040 1405 1030Q1403 903 1376 735Q1353
594 1324 486T1261 299T1180 166T1086 77T973 24T846 -2T700 -8Q604 -8 539 0T405 34T298 112T234 245Q209 320 209 433Q209 441 209 450ZM348 278Q368 208 419 172T535 123T707 111Q834 111 914 133T1066 221T1182 413T1260 739Q1280 872 1285 974Q1287 1016 1287
1052Q1287 1104 1283 1144Q1276 1212 1251 1259T1197 1333T1118 1373T1025 1389T911 1393Q837 1393 796 1390T696 1374T603 1337T527 1265T458 1149T402 977T354 739Q327 574 328 464Q328 349 348 278Z" />
<glyph unicode="P" glyph-name="P" horiz-adv-x="1210" d="M154 0L391 1499H997Q1144 1499 1234 1404Q1299 1335 1299 1190Q1299 1137 1290 1073Q1276 981 1253 909T1204 790T1140 711T1073 662T999 637T930 628T860 627Q799 627 592 640T377 657L270 0H154ZM389
745H877Q930 745 970 756T1052 799T1123 900T1169 1073Q1176 1145 1178 1195Q1178 1201 1178 1207Q1178 1249 1162 1279Q1144 1313 1129 1333T1085 1364T1033 1377T979 1380H489L389 745Z" />
<glyph unicode="Q" glyph-name="Q" horiz-adv-x="1386" d="M217 450Q219 575 246 743Q279 950 327 1092T429 1317T566 1442T727 1497T926 1509Q1022 1509 1090 1499T1224 1462T1328 1380T1390 1241Q1413 1163 1413 1049Q1413 1040 1413 1030Q1411 903 1384 735Q1361
594 1332 486T1269 299T1188 166T1094 77T981 24T854 -2T709 -8Q613 -8 547 0T413 34T306 112T242 245Q217 320 217 433Q217 442 217 450ZM356 278Q375 209 427 172T543 123T715 111Q842 111 923 133T1074 221T1190 413T1268 739Q1288 872 1293 974Q1295 1016 1295
1052Q1295 1104 1291 1144Q1284 1212 1259 1259T1206 1333T1127 1373T1033 1389T920 1393Q846 1393 804 1390T704 1374T612 1337T536 1265T466 1149T410 977T362 739Q335 574 335 464Q335 350 356 278ZM639 -68H721Q792 -164 915 -164Q980 -164 1059 -137L1038
-264Q966 -284 892 -284Q879 -284 866 -283Q778 -279 710 -221T639 -68Z" />
<glyph unicode="R" glyph-name="R" horiz-adv-x="1249" d="M154 0L391 1499H1006Q1294 1499 1294 1173Q1294 1120 1286 1059Q1239 653 940 633L1159 0H1030L821 623Q794 623 586 634T375 647L270 0H154ZM391 745H879Q1133 745 1167 1063Q1176 1114 1176 1156Q1176
1184 1172 1206Q1163 1264 1152 1297T1112 1349T1056 1374T987 1380H492L391 745Z" />
<glyph unicode="S" glyph-name="S" horiz-adv-x="1165" d="M162 27L176 119Q317 103 674 102Q965 102 999 319L1022 459Q1027 494 1027 524Q1028 587 1004 623Q970 676 848 676H582Q467 676 396 706T299 786T267 895Q265 915 265 934Q265 974 274 1014L295 1149Q313
1262 355 1337T461 1450T595 1500Q655 1511 732 1512Q744 1512 756 1511Q973 1507 1239 1466L1225 1376L735 1393Q720 1394 706 1394Q584 1394 514 1348Q436 1296 414 1147L391 1012Q385 977 385 948T388 896T401 858T420 832T446 814T478 803T516 797T556 795H600H866Q1146
795 1146 543Q1146 502 1139 455L1116 315Q1100 206 1052 136T932 35T798 -6T653 -16Q557 -16 393 -1T162 27Z" />
<glyph unicode="T" glyph-name="T" horiz-adv-x="1220" d="M285 1380L303 1499H1364L1346 1380H868L649 0H532L750 1380H285Z" />
<glyph unicode="U" glyph-name="U" horiz-adv-x="1359" d="M244 400Q246 500 262 631L399 1499H520L381 631Q364 516 362 431Q362 423 362 416Q362 340 376 288Q392 230 417 194T488 140T583 114T700 106Q806 106 880 128T1019 205T1127 365T1196 631L1333 1499H1452L1315
631Q1288 467 1247 355T1136 157T957 31T694 -10Q610 -10 546 1T423 39T329 113Q294 160 268 230Q244 295 244 386Q244 393 244 400Z" />
<glyph unicode="V" glyph-name="V" horiz-adv-x="1370" d="M307 1499H432L686 180L1380 1499H1516L723 0H600L307 1499Z" />
<glyph unicode="W" glyph-name="W" horiz-adv-x="2035" d="M307 1499H426L682 182L1368 1499H1501L1221 950L1368 174L2054 1499H2183L1403 0H1280L1130 780L723 0H600L307 1499Z" />
<glyph unicode="X" glyph-name="X" horiz-adv-x="1189" d="M78 0L643 745L309 1499H434L721 850L1214 1499H1358L776 733L1100 0H975L696 627L221 0H78Z" />
<glyph unicode="Y" glyph-name="Y" horiz-adv-x="1288" d="M307 1499H432L713 680L1294 1499H1434L756 532L672 0H553L637 532L307 1499Z" />
<glyph unicode="Z" glyph-name="Z" horiz-adv-x="1116" d="M72 0L90 119L1124 1380H291L309 1499H1298L1280 1380L246 119H1079L1061 0H72Z" />
<glyph unicode="[" glyph-name="bracketleft" horiz-adv-x="618" d="M156 -203T151 -143T158 -37L391 1438Q403 1510 420 1560T473 1661T571 1738T723 1765H866L848 1647H705Q627 1647 578 1600T510 1438L276 -37Q256 -166 282 -219T401 -272H545L524 -389H381Q295
-389 240 -351T170 -258Z" />
<glyph unicode="\" glyph-name="backslash" horiz-adv-x="827" d="M289 1577H399L702 -147H592L289 1577Z" />
<glyph unicode="]" glyph-name="bracketright" horiz-adv-x="622" d="M-27 -389L-8 -272H135Q297 -272 330 -61L563 1413Q586 1548 557 1597T440 1647H297L315 1765H459Q531 1765 580 1740T651 1676T683 1587T690 1496T682 1413L449 -61Q424 -215 355 -302T117 -389H-27Z" />
<glyph unicode="^" glyph-name="asciicircum" horiz-adv-x="825" d="M274 1087L567 1356H678L858 1087H754L618 1276L401 1087H274Z" />
<glyph unicode="_" glyph-name="underscore" horiz-adv-x="1359" d="M39 -2L57 115H1335L1317 -2H39Z" />
<glyph unicode="`" glyph-name="grave" horiz-adv-x="495" d="M256 1360H393L606 1087H502L256 1360Z" />
<glyph unicode="a" glyph-name="a" horiz-adv-x="1110" d="M164 322Q162 345 162 370Q162 457 184 569Q207 700 245 796T325 948T423 1039T524 1087T629 1108Q663 1112 700 1112Q792 1112 904 1088Q1062 1054 1135 981L991 0H909L895 123Q825 78 714 32T500 -14Q424
-14 370 0T264 51T193 154T164 322ZM295 510Q281 421 282 353Q282 254 309 198Q356 101 494 102Q572 102 648 119T765 152T901 209L1012 942Q848 997 721 997Q678 997 639 991Q567 981 521 960T429 889T351 747T295 510Z" />
<glyph unicode="b" glyph-name="b" horiz-adv-x="1128" d="M123 0L377 1608H492L397 1022Q612 1104 807 1104Q1110 1104 1110 736Q1110 646 1092 535Q1078 447 1060 379T1007 232T926 100Q881 48 806 16Q739 -13 659 -12Q649 -12 639 -12Q543 -8 420 38T258 121L205
0H123ZM272 205Q485 107 657 106Q905 106 973 539Q991 650 991 732Q991 824 969 880Q928 988 795 987Q617 987 387 930L272 205Z" />
<glyph unicode="c" glyph-name="c" horiz-adv-x="1011" d="M182 549Q207 696 244 799T319 960T412 1050T514 1091T629 1100Q787 1100 1067 1044L1053 961Q804 983 625 983Q617 983 610 983Q549 983 510 971T429 915T357 779T299 537Q280 422 280 340Q280 248 304
198Q350 104 471 104L936 133L924 47Q705 -12 465 -12Q164 -9 164 351Q164 439 182 549Z" />
<glyph unicode="d" glyph-name="d" horiz-adv-x="1107" d="M170 352Q168 380 168 408Q168 477 182 545Q202 666 231 756T310 930T443 1059T637 1104Q713 1104 826 1082T1026 1022L1120 1608H1233L979 0H897L883 121Q828 82 699 35T475 -12Q373 -12 302 40T205
173T170 352ZM299 539Q285 453 285 383Q286 281 316 216Q368 106 483 106Q653 106 897 205L1012 930Q801 987 621 987Q504 987 422 890T299 539Z" />
<glyph unicode="e" glyph-name="e" horiz-adv-x="1081" d="M180 569Q200 682 220 752T278 898T370 1014T510 1081T713 1108Q920 1108 1022 1036Q1106 977 1106 852Q1106 825 1102 795Q1086 668 1002 588T812 480Q705 452 589 448Q556 447 527 447Q451 448 393
456Q313 468 285 479Q269 380 270 309Q270 231 288 186Q324 100 451 98Q485 96 523 96Q694 96 952 133L940 45Q723 -14 440 -14Q245 -14 185 126Q154 199 154 316Q154 424 180 569ZM297 561Q311 559 333 557T424 552Q458 550 490 550T553 552Q614 555 692 568T828
607T931 681T985 795Q988 818 988 838Q988 920 936 952Q870 992 713 991Q594 991 517 965T398 870T341 754T305 600Q299 573 297 561Z" />
<glyph unicode="f" glyph-name="f" horiz-adv-x="794" d="M188 971L203 1055L406 1087L424 1204Q457 1417 520 1511T745 1608Q750 1608 755 1608Q856 1608 1004 1569L993 1491H743Q643 1491 605 1432T541 1204L522 1087H870L850 971H502L344 0H225L383 971H188Z" />
<glyph unicode="g" glyph-name="g" horiz-adv-x="1118" d="M76 -508L88 -432L594 -442Q597 -442 599 -442Q680 -442 750 -385Q821 -326 840 -213L883 59Q683 -18 494 -18Q491 -18 489 -18Q335 -18 256 60T170 268Q169 296 169 325Q169 433 186 563Q227 821 345
960T641 1100Q737 1100 839 1092T1040 1072T1157 1059L956 -213Q927 -393 817 -482Q722 -559 610 -559Q593 -559 575 -557L76 -508ZM286 337Q286 328 286 319Q286 230 331 167Q381 98 489 98Q661 98 897 156L1028 979L645 983Q565 983 502 940T399 827T338 689T303
551Q291 438 286 337Z" />
<glyph unicode="h" glyph-name="h" horiz-adv-x="1110" d="M123 0L377 1606H496L393 961Q477 1008 533 1033T673 1082T834 1106Q990 1106 1062 1004Q1117 926 1118 825Q1118 793 1112 758L991 0H874L995 758Q999 785 999 809Q999 882 962 927Q913 987 813 987Q696
987 610 962T379 868L242 0H123Z" />
<glyph unicode="i" glyph-name="i" horiz-adv-x="364" d="M123 0L295 1087H414L242 0H123ZM307 1280L322 1382Q328 1423 369 1423H446Q479 1423 479 1390Q479 1386 479 1382L463 1280Q457 1239 416 1239H340Q306 1239 306 1270Q306 1275 307 1280Z" />
<glyph unicode="j" glyph-name="j" horiz-adv-x="399" d="M57 -553L317 1087H434L262 -8Q207 -352 131 -553H57ZM328 1280L344 1382Q350 1423 393 1423H469Q503 1423 503 1394Q503 1389 502 1382L485 1280Q479 1239 438 1239H362Q327 1239 327 1270Q327 1275 328 1280Z" />
<glyph unicode="k" glyph-name="k" horiz-adv-x="991" d="M123 0L377 1602H496L342 635Q532 660 708 805T920 1087H1051Q1004 917 859 781T578 592L969 0H827L459 561Q436 555 389 553T330 553L242 0H123Z" />
<glyph unicode="l" glyph-name="l" horiz-adv-x="608" d="M182 387L375 1604H492L299 387Q291 328 289 285Q289 275 289 267Q289 236 294 213Q301 184 308 168T333 142T364 127T401 119Q546 86 553 86L539 0H401Q172 0 172 263Q172 319 182 387Z" />
<glyph unicode="m" glyph-name="m" horiz-adv-x="1853" d="M123 0L295 1087H375L393 958Q485 1009 531 1032T659 1078T821 1102Q915 1102 988 1053T1085 928Q1325 1102 1573 1102Q1714 1102 1795 1002Q1858 924 1858 816Q1858 785 1853 752L1733 0H1616L1735 752Q1739
776 1739 798Q1739 868 1700 918Q1649 984 1552 983Q1329 983 1108 860Q1110 848 1108 807T1102 750L983 0H866L985 752Q988 774 988 793Q988 866 948 918Q897 984 801 983Q684 983 603 959T377 866L242 0H123Z" />
<glyph unicode="n" glyph-name="n" horiz-adv-x="1110" d="M123 0L295 1087H375L393 961Q479 1008 533 1033T671 1082T831 1106Q987 1106 1061 1004Q1117 926 1118 824Q1118 792 1112 758L991 0H874L995 758Q999 784 999 807Q999 880 961 926Q911 988 813 987Q696
987 610 962T379 868L242 0H123Z" />
<glyph unicode="o" glyph-name="o" horiz-adv-x="1150" d="M184 532Q235 860 355 979T739 1098Q993 1098 1081 958Q1138 867 1138 711Q1138 627 1122 524Q1071 219 958 105T582 -10Q318 -10 228 114Q168 196 168 351Q168 432 184 532ZM285 366Q285 357 285 349Q285
292 297 251Q311 205 333 176T397 132T480 112T586 106Q682 106 741 119T856 176T946 304T1004 528Q1020 622 1022 693Q1022 704 1022 714Q1022 772 1012 814Q1000 864 978 896T918 946T834 972T725 979Q627 979 568 966T452 907T361 771T301 528Q287 434 285 366Z"
/>
<glyph unicode="p" glyph-name="p" horiz-adv-x="1122" d="M35 -553L303 1071Q506 1096 803 1096Q914 1096 986 1045T1084 912T1117 729Q1119 703 1119 676Q1119 600 1104 524Q1028 -18 656 -18Q656 -18 655 -18Q573 -18 454 2T250 59L152 -553H35ZM268 154Q450
98 590 98Q629 98 664 102Q791 112 869 207T987 543Q1002 635 1002 707Q1002 977 795 977H401L268 154Z" />
<glyph unicode="q" glyph-name="q" horiz-adv-x="1130" d="M168 328Q167 346 167 363Q167 454 186 555Q274 1100 651 1100Q856 1100 1155 1061L901 -553H782L879 59Q673 -20 490 -20Q487 -20 485 -20Q370 -20 299 24T200 145T168 328ZM285 316Q285 312 285 308Q285
213 333 156Q383 98 494 98Q678 98 895 152L1026 983H633Q555 983 495 942T397 832T339 694T305 549Q287 416 285 316Z" />
<glyph unicode="r" glyph-name="r" horiz-adv-x="849" d="M123 0L295 1087H375L389 950Q397 954 439 976T493 1004T544 1028T599 1053T651 1071T711 1087T769 1096T834 1100Q945 1100 983 1083L965 967Q908 981 815 981Q790 981 765 979T721 976T676 968T636 959T594
946T555 933T511 915T470 896T423 876T375 854L242 0H123Z" />
<glyph unicode="s" glyph-name="s" horiz-adv-x="1036" d="M131 16L145 100H686Q833 100 856 238L872 346Q876 365 876 382Q876 481 748 481H457Q302 482 240 538Q194 579 195 668Q195 701 201 741L215 842Q238 977 312 1040T541 1104Q779 1104 1051 1077L1036
989H522Q354 989 334 838L317 737Q313 712 312 693T316 660T324 635T339 619T356 608T380 602Q400 600 404 600H432H461H754Q882 600 946 530Q996 476 996 393Q996 369 991 342L973 221Q961 141 929 90T849 18T761 -10T666 -16Q596 -16 397 -3T131 16Z" />
<glyph unicode="t" glyph-name="t" horiz-adv-x="749" d="M188 971L203 1059L399 1090L477 1393H565L518 1090H850L829 971H500L408 387Q396 320 397 272Q398 220 404 192Q410 166 430 150T464 128T508 117Q653 84 659 84L647 0H510Q366 0 312 93Q277 152 278
255Q278 314 289 387L381 971H188Z" />
<glyph unicode="u" glyph-name="u" horiz-adv-x="1107" d="M156 330L274 1087H393L272 330Q267 299 268 272Q268 200 303 158Q352 100 455 100Q572 100 657 126T889 219L1026 1087H1143L971 0H891L874 127Q784 78 732 54T597 6T436 -18Q278 -18 204 82Q149 157
150 258Q150 293 156 330Z" />
<glyph unicode="v" glyph-name="v" horiz-adv-x="1064" d="M193 1087H315L543 147L963 922Q1012 1016 1024 1087H1114Q1123 1060 1123 1031Q1123 971 1087 899L602 0H455L193 1087Z" />
<glyph unicode="w" glyph-name="w" horiz-adv-x="1638" d="M193 1087H311L535 154L952 915Q1003 1013 1016 1083H1100Q1108 1058 1108 1030Q1108 969 1071 895L989 731L1116 160L1546 920Q1599 1031 1608 1087H1694Q1704 1057 1704 1026Q1704 964 1665 899L1155
0H1036L903 588L584 0H455L193 1087Z" />
<glyph unicode="x" glyph-name="x" horiz-adv-x="1017" d="M49 0L530 547L221 1087H360L612 643L1004 1087H1155L676 535L979 0H842L590 438L209 0H49Z" />
<glyph unicode="y" glyph-name="y" horiz-adv-x="1114" d="M193 1087H315L457 238Q467 177 507 148Q544 121 577 121Q579 121 581 121L614 123L1018 928Q1059 1008 1071 1096H1165Q1175 1065 1175 1032Q1175 970 1139 901L692 2Q641 -100 597 -174T489 -339T350
-485T201 -551V-469Q224 -459 248 -441T292 -403T337 -354T378 -303T417 -244T452 -188T485 -130T513 -80T538 -34L555 0Q530 0 504 7T440 35T376 105T336 225L193 1087Z" />
<glyph unicode="z" glyph-name="z" horiz-adv-x="927" d="M92 2L106 119L866 971H217L233 1087H1044L1028 971L276 119H891L887 90Q883 61 878 32L872 2H92Z" />
<glyph unicode="{" glyph-name="braceleft" horiz-adv-x="614" d="M137 682L156 793Q160 793 182 794T214 796T244 800T276 807T304 819T330 837T347 864T358 901L434 1389Q495 1766 864 1765L846 1649Q723 1649 649 1589T553 1384L477 901Q465 831 410 785T276
727Q348 717 389 668T420 555L334 18Q307 -146 360 -211T541 -272L522 -389Q416 -389 344 -351T246 -254T209 -121T215 25L301 547Q311 610 258 648T137 682Z" />
<glyph unicode="|" glyph-name="bar" horiz-adv-x="481" d="M152 -147L424 1577H541L270 -147H152Z" />
<glyph unicode="}" glyph-name="braceright" horiz-adv-x="606" d="M-27 -389L-8 -272Q117 -274 188 -217T283 -18L367 502Q379 570 433 614T563 672Q493 682 453 732T422 848L502 1348Q531 1516 477 1584T297 1649L315 1765Q417 1765 488 1728T587 1631T626 1494T618
1341L541 852Q531 786 584 751T705 717L686 606Q502 612 483 498L399 -20Q344 -389 -27 -389Z" />
<glyph unicode="~" glyph-name="asciitilde" horiz-adv-x="929" d="M287 1171Q301 1181 336 1209T387 1248T432 1276T486 1298T541 1305Q586 1305 652 1256T756 1206Q779 1206 801 1211T847 1229T887 1249T929 1274T965 1296L989 1235Q983 1229 948 1199T898 1158T853
1129T796 1102T739 1094Q692 1094 624 1143T518 1192T452 1182T377 1146T309 1110L287 1171Z" />
</font>
</defs>
</svg>
