<?xml version="1.0" standalone="no"?> <!DOCTYPE svg PUBLIC "-//W3C//DTD SVG 1.0//EN" "http://www.w3.org/TR/2001/REC-SVG-20010904/DTD/svg10.dtd" > <svg xmlns="http://www.w3.org/2000/svg" width="100%" height="100%">
<defs >
<font id="exo-extrabold-italic" horiz-adv-x="1055" ><font-face
    font-family="Exo"
    units-per-em="2048"
    panose-1="2 0 8 3 0 0 0 0 0 0"
    ascent="2044"
    descent="-669"
    alphabetic="0" />
<missing-glyph horiz-adv-x="2048" />
<glyph unicode=" " glyph-name="space" horiz-adv-x="512" />
<glyph unicode="!" glyph-name="exclam" horiz-adv-x="561" d="M131 47L164 256Q170 307 221 307H426Q475 307 467 256L432 47Q426 0 379 0H174Q125 0 131 47ZM207 403L348 1497H678L469 403H207Z" />
<glyph unicode="&quot;" glyph-name="quotedbl" horiz-adv-x="958" d="M313 1087L332 1362L354 1499H676L653 1362L590 1087H313ZM715 1087L737 1362L758 1499H1079L1057 1362L993 1087H715Z" />
<glyph unicode="#" glyph-name="numbersign" horiz-adv-x="1501" d="M92 414L164 643H471L541 858H231L305 1087H623L764 1499H993L852 1087H1071L1212 1499H1442L1300 1087H1649L1577 858H1229L1157 641H1507L1438 412H1071L930 0H700L842 412L621 414L479 0H250L391
414H92ZM700 643L928 641L999 858H770L700 643Z" />
<glyph unicode="$" glyph-name="dollar" horiz-adv-x="1163" d="M131 49L172 307Q438 287 643 287Q799 287 817 397L825 457Q835 520 817 547T721 575H561Q459 575 387 613T284 701T238 821T225 937T233 1028L252 1155Q268 1261 310 1333T419 1442T557 1493T721
1511L750 1688H944L918 1509Q1096 1501 1264 1448L1223 1188Q1002 1206 778 1206Q682 1208 638 1185T582 1085L573 1034Q563 966 587 939T700 911H866Q972 911 1044 863T1140 747T1174 599T1167 459L1155 373Q1135 248 1087 166T968 47T831 -3T676 -16L649 -184H455L481
-14Q362 -10 299 2T131 49Z" />
<glyph unicode="%" glyph-name="percent" horiz-adv-x="1976" d="M213 1010L250 1251Q273 1382 345 1440T573 1499H780Q1059 1499 1012 1208L975 967Q952 834 880 775T653 715H446Q309 715 251 795T213 1010ZM410 0L1569 1499H1794L647 0H410ZM446 1032Q438 983
452 962T518 940H649Q704 940 727 962T758 1032L780 1182Q788 1237 772 1255T705 1274H575Q524 1274 501 1256T469 1182L446 1032ZM1204 291L1241 532Q1261 667 1334 727T1563 788H1769Q2048 788 2003 496L1968 254Q1948 119 1873 62T1642 4H1434Q1297 4 1241 81T1204
291ZM1436 322Q1430 273 1444 251T1511 229H1638Q1695 229 1718 251T1747 322L1769 471Q1777 526 1762 544T1696 563H1567Q1516 563 1491 545T1458 471L1436 322Z" />
<glyph unicode="&amp;" glyph-name="ampersand" horiz-adv-x="1411" d="M78 328T116 477T315 748L498 885L424 1016Q363 1131 383 1232T477 1406T641 1493Q901 1534 1239 1454L1200 1208H891Q768 1208 748 1172T788 1026L1024 614L1303 852L1401 707L1257 457L1163
367L1374 0H1004L901 180L745 61Q671 4 564 -11T344 19T168 174Q78 328 116 477ZM440 356Q475 303 527 293T645 332L754 422L625 637L508 553Q379 450 440 356Z" />
<glyph unicode="&apos;" glyph-name="quotesingle" horiz-adv-x="487" d="M270 1087L291 1362L313 1499H651L629 1362L565 1087H270Z" />
<glyph unicode="(" glyph-name="parenleft" horiz-adv-x="802" d="M178 168T181 316T209 623Q232 768 274 905T366 1143T470 1334T573 1483T662 1587T726 1650L750 1669H1057Q1041 1649 1012 1612T906 1457T766 1219T637 921T545 575Q514 378 520 212T556 -91T619
-322T681 -470L709 -522H406Q400 -514 389 -499T345 -429T288 -314T235 -151T193 59Z" />
<glyph unicode=")" glyph-name="parenright" horiz-adv-x="806" d="M-41 -522Q-25 -504 4 -469T108 -322T247 -88T376 214T473 573Q502 757 496 921T459 1222T394 1459T334 1614L307 1669H610Q616 1661 627 1644T669 1569T726 1447T779 1280T821 1071T835 820T809
528Q784 372 742 230T654 -15T557 -207T461 -351T379 -447T321 -505L299 -522H-41Z" />
<glyph unicode="*" glyph-name="asterisk" horiz-adv-x="864" d="M250 1159L270 1286L563 1331L545 1149L250 1159ZM311 854L406 1135L578 1090L426 815L311 854ZM526 948L651 1102L852 918L762 815L526 948ZM565 1477L692 1518L784 1264L604 1196L565 1477ZM666
1169L936 1333L991 1227L758 1028L666 1169Z" />
<glyph unicode="+" glyph-name="plus" horiz-adv-x="964" d="M150 592L193 866H479L524 1155H799L754 866H1044L1001 592H711L664 303H389L436 592H150Z" />
<glyph unicode="," glyph-name="comma" horiz-adv-x="526" d="M98 -180L117 -70Q158 -70 171 -57T188 -20L190 0H168Q117 0 125 51L158 254Q168 309 217 309H414Q463 309 455 254L410 -23Q382 -204 182 -193Q134 -191 98 -180Z" />
<glyph unicode="-" glyph-name="hyphen" horiz-adv-x="722" d="M125 457L168 731H811L768 457H125Z" />
<glyph unicode="." glyph-name="period" horiz-adv-x="530" d="M123 47L158 256Q164 307 215 307H416Q469 307 459 256L424 47Q416 0 367 0H166Q117 0 123 47Z" />
<glyph unicode="/" glyph-name="slash" horiz-adv-x="976" d="M4 -147L852 1577H1198L350 -147H4Z" />
<glyph unicode="0" glyph-name="zero" horiz-adv-x="1277" d="M154 377L270 1106Q331 1499 686 1499H1022Q1223 1499 1304 1391T1362 1122L1245 377Q1184 0 844 0H508Q320 0 223 98T154 377ZM492 393T500 364T529 323T568 308T614 305H764Q832 305 868 332T918
438L1018 1061Q1028 1133 1004 1163T918 1194H745Q616 1194 598 1061L500 440Q492 393 500 364Z" />
<glyph unicode="1" glyph-name="one" horiz-adv-x="765" d="M229 1114L262 1331Q305 1331 407 1385T561 1499H893L655 0H319L506 1167Q430 1114 229 1114Z" />
<glyph unicode="2" glyph-name="two" horiz-adv-x="1193" d="M70 0L117 293Q252 375 425 499T772 785T961 1040Q977 1138 928 1175T745 1212H248L287 1462Q590 1519 905 1520Q1124 1520 1225 1372T1294 1008Q1286 953 1261 894T1206 786T1122 679T1032 586T931
496T839 421T749 354T682 305H1180L1130 0H70Z" />
<glyph unicode="3" glyph-name="three" horiz-adv-x="1185" d="M59 43L100 293H588Q705 293 754 315T815 414L821 459Q827 504 821 530T787 569T732 586T647 592L274 610L319 883L696 899Q809 903 856 927T915 1026L922 1073Q932 1128 907 1157T845 1192T743 1198H229L268
1446Q356 1475 475 1489T706 1504T946 1503Q1110 1499 1201 1388T1266 1104L1249 1008Q1212 777 1040 745Q1200 694 1155 406L1143 330Q1088 -14 692 -14H616H536Q520 -14 464 -13T387 -11T318 -7T245 0T182 10T117 24T59 43Z" />
<glyph unicode="4" glyph-name="four" horiz-adv-x="1284" d="M98 459L752 1499H1118L588 618H877L928 932L1016 1090H1290L1214 618H1354L1313 360L1165 307L1118 4H782L827 307H143L98 459Z" />
<glyph unicode="5" glyph-name="five" horiz-adv-x="1216" d="M111 41L154 307H715Q776 307 812 330T857 377T870 436L887 537Q907 670 788 670H643Q534 670 516 561H197L389 1499H1317L1268 1194H668L610 913Q667 950 762 961Q821 967 948 958Q1110 948 1180
837T1229 555L1196 324Q1143 -8 741 -8Q530 -8 414 0T111 41Z" />
<glyph unicode="6" glyph-name="six" horiz-adv-x="1236" d="M180 258T180 416T213 817Q244 1012 295 1149T412 1358T542 1462T682 1503Q971 1536 1339 1462L1298 1206H815Q762 1206 721 1186T656 1138T613 1061T586 975T567 881Q700 922 942 922Q1048 922 1118
888T1215 798T1252 670T1245 524L1212 303Q1183 123 1078 61T782 -2H496Q402 -2 337 35T226 165ZM495 467T521 385T655 303H766Q821 303 853 326T895 416L911 510Q923 584 908 608T827 633H528Q495 467 521 385Z" />
<glyph unicode="7" glyph-name="seven" horiz-adv-x="1140" d="M229 1194L279 1499H1253L1315 1356L614 0H252L877 1194H229Z" />
<glyph unicode="8" glyph-name="eight" horiz-adv-x="1269" d="M158 385L178 516Q192 602 243 656T379 723Q313 754 283 812T255 929T264 1053L285 1186Q297 1268 327 1328T398 1423T495 1477T606 1503T731 1509H1047Q1223 1509 1302 1410T1354 1122L1337 1022Q1327
961 1281 895T1143 815Q1229 795 1250 695T1253 500L1229 332Q1217 254 1194 196T1137 102T1069 45T985 14T899 2T805 0H492Q99 0 158 385ZM502 399Q492 338 514 315T606 291H762Q883 291 897 399L915 516Q931 629 821 629H657Q536 629 520 516L502 399ZM598 1012Q588
946 614 924T700 901H860Q934 901 959 927T995 1012L1006 1094Q1018 1174 994 1197T909 1221H754Q684 1221 654 1195T610 1094L598 1012Z" />
<glyph unicode="9" glyph-name="nine" horiz-adv-x="1234" d="M137 41L178 295H662Q728 295 773 321T845 402T885 503T911 623Q780 580 535 580Q431 580 361 616T265 711T229 844T236 991L266 1184Q293 1366 399 1434T692 1503H979Q1108 1503 1184 1427T1288 1162T1262
655Q1237 497 1197 380T1114 195T1014 83T907 23T797 -2Q497 -37 137 41ZM567 991Q555 917 570 893T651 868H950Q981 1034 955 1117T819 1200H711Q656 1200 624 1177T582 1087L567 991Z" />
<glyph unicode=":" glyph-name="colon" horiz-adv-x="532" d="M123 47L158 256Q164 307 215 307H416Q469 307 459 256L424 47Q416 0 367 0H166Q117 0 123 47ZM248 827L281 1036Q287 1087 338 1087H539Q588 1087 582 1036L549 827Q541 780 492 780H291Q242 780 248 827Z" />
<glyph unicode=";" glyph-name="semicolon" horiz-adv-x="532" d="M98 -180L117 -70Q158 -70 171 -57T188 -20L190 0H168Q145 0 133 13T125 51L158 254Q168 309 217 309H414Q463 309 455 254L410 -23Q382 -204 182 -193Q134 -191 98 -180ZM250 827L283 1036Q289
1089 340 1090H541Q594 1090 584 1036L551 827Q543 782 492 782H291Q244 782 250 827Z" />
<glyph unicode="&lt;" glyph-name="less" horiz-adv-x="903" d="M158 569L207 872L1020 1155L971 852L518 713L926 571L879 270L158 569Z" />
<glyph unicode="=" glyph-name="equal" horiz-adv-x="956" d="M96 356L139 631H1014L971 356H96ZM166 801L209 1075H1085L1040 801H166Z" />
<glyph unicode="&gt;" glyph-name="greater" horiz-adv-x="903" d="M111 270L160 573L616 737L203 856L250 1155L973 872L926 569L111 270Z" />
<glyph unicode="?" glyph-name="question" horiz-adv-x="1112" d="M217 1208L258 1458Q571 1526 844 1513Q1057 1513 1158 1384T1233 1090L1212 928Q1183 717 1063 638T696 575Q696 573 683 487T670 399H410L475 823H690Q856 829 881 979L891 1055Q905 1137 861
1172T711 1208H217ZM332 47L365 256Q371 307 422 307H623Q676 307 666 256L631 47Q625 0 573 0H373Q326 0 332 47Z" />
<glyph unicode="@" glyph-name="at" horiz-adv-x="1857" d="M88 -123T87 -52T94 94L248 1067Q287 1305 424 1399T807 1493H1544Q1966 1493 1892 975L1794 328Q1771 168 1681 87T1382 6H1165L1116 115Q1024 -10 860 -8Q670 -4 588 148T549 590Q574 752 625 862T745
1026T882 1098T1034 1118Q1351 1118 1499 979L1397 266Q1475 266 1502 298T1548 451L1630 1006Q1650 1145 1614 1189T1470 1233H750Q621 1233 572 1171T506 1006L356 66Q340 -34 376 -86T535 -139H1325L1292 -342Q1016 -397 694 -397H508Q397 -397 315 -370T187
-295T115 -186ZM797 473T794 405T821 292T922 250Q1096 256 1151 389L1221 844Q1135 860 1024 860Q934 860 883 793T807 551Q797 473 794 405Z" />
<glyph unicode="A" glyph-name="A" horiz-adv-x="1429" d="M61 0L788 1499H1178L1413 0H1069L1016 301H575L434 0H61ZM705 592H989L922 1073L705 592Z" />
<glyph unicode="B" glyph-name="B" horiz-adv-x="1228" d="M111 0L348 1499H967Q1188 1499 1277 1376Q1344 1283 1345 1152Q1345 1109 1337 1063Q1321 948 1251 870T1075 778Q1172 762 1228 658Q1269 581 1269 479Q1269 442 1264 403Q1246 274 1207 194T1098 71T946
15T735 0H111ZM492 291H766Q903 291 930 465Q935 493 935 518Q936 562 920 595Q896 647 823 647H549L492 291ZM594 922H852Q913 922 952 959T1001 1063Q1005 1085 1005 1104Q1005 1208 897 1208H639L594 922Z" />
<glyph unicode="C" glyph-name="C" horiz-adv-x="1165" d="M180 384Q174 446 173 515Q173 645 195 801Q254 1176 393 1346T827 1516Q1007 1516 1116 1500T1348 1438L1305 1176Q1101 1210 904 1210Q888 1210 872 1210Q825 1210 807 1209T751 1201T696 1178T648
1129T602 1047T567 923T530 750Q506 618 506 527Q506 444 526 396Q567 294 725 293Q743 293 762 292Q950 292 1169 311L1128 49Q963 -13 653 -13Q621 -13 588 -12Q406 -10 302 97T180 384Z" />
<glyph unicode="D" glyph-name="D" horiz-adv-x="1333" d="M111 0L348 1499H973Q1125 1499 1223 1431T1357 1250Q1393 1138 1401 994Q1403 964 1402 935Q1402 819 1378 696Q1319 303 1177 152T762 0H111ZM492 291H754Q873 291 941 403T1044 745Q1068 875 1068
965Q1068 1003 1064 1034Q1049 1137 1008 1172T885 1208H637L492 291Z" />
<glyph unicode="E" glyph-name="E" horiz-adv-x="1142" d="M147 328L285 1188Q301 1284 340 1349T437 1446T554 1488T686 1499Q1139 1491 1315 1466L1270 1186H729Q690 1186 666 1177T629 1148T612 1113T604 1071L580 907L1124 885L1079 608L528 590L500 414Q494
375 500 352T527 320T564 309T610 307H1133L1087 29Q1013 21 859 12T586 -2L467 -6Q459 -6 451 -6Q398 -6 348 5Q290 18 236 52T158 157Q142 202 142 259Q142 292 147 328Z" />
<glyph unicode="F" glyph-name="F" horiz-adv-x="1144" d="M102 0L285 1155Q316 1343 426 1422Q534 1499 682 1499Q686 1499 690 1499Q1141 1491 1319 1466L1274 1186H733Q696 1186 672 1177T635 1148T618 1113T608 1071L582 901L1128 881L1085 602L530 584L438 0H102Z" />
<glyph unicode="G" glyph-name="G" horiz-adv-x="1259" d="M171 512Q172 653 203 817Q240 1007 281 1129T392 1343T566 1476T821 1516Q1018 1516 1117 1503T1397 1440L1356 1184Q1354 1184 1296 1192T1179 1206T1032 1218T868 1225Q774 1225 719 1193T618 1056T541
752Q514 603 514 507Q514 442 526 400Q557 299 698 299Q757 299 812 323T893 374L918 399L954 612H793L825 823Q940 872 1192 872Q1282 872 1331 868L1192 0H952L877 104Q822 47 756 21T573 -12Q561 -12 550 -12Q416 -12 330 52Q236 121 203 246Q171 367 171 504Q171
508 171 512Z" />
<glyph unicode="H" glyph-name="H" horiz-adv-x="1302" d="M113 0L350 1499H686L588 877H1028L1126 1499H1462L1225 0H889L979 573H539L449 0H113Z" />
<glyph unicode="I" glyph-name="I" horiz-adv-x="546" d="M115 0L352 1499H688L451 0H115Z" />
<glyph unicode="J" glyph-name="J" horiz-adv-x="727" d="M55 49L98 313Q127 312 153 312Q265 312 312 340Q371 375 391 508L549 1499H885L700 338Q661 107 543 37Q461 -9 319 -9Q305 -9 291 -9Q129 -4 55 49Z" />
<glyph unicode="K" glyph-name="K" horiz-adv-x="1306" d="M111 0L348 1499H668L571 889H662L1102 1499H1507L954 721L1270 0H889L649 598H526L432 0H111Z" />
<glyph unicode="L" glyph-name="L" horiz-adv-x="1079" d="M156 303L346 1499H682L510 412Q504 373 510 350T537 318T574 307T621 305H1094L1044 0H432Q289 0 210 74Q150 130 150 233Q150 265 156 303Z" />
<glyph unicode="M" glyph-name="M" horiz-adv-x="1714" d="M84 0L467 1499H930L977 557L1319 1499H1792L1704 0H1374L1432 920L1092 0H705L651 920L422 0H84Z" />
<glyph unicode="N" glyph-name="N" horiz-adv-x="1376" d="M111 0L348 1499H686L1059 612L1198 1499H1534L1296 0H963L586 870L449 0H111Z" />
<glyph unicode="O" glyph-name="O" horiz-adv-x="1363" d="M178 520Q180 634 203 778Q223 907 251 1010T315 1189T389 1318T478 1407T574 1463T685 1494T802 1506T930 1509Q1012 1509 1075 1501T1201 1471T1308 1410T1386 1310Q1422 1249 1436 1165Q1449 1091
1448 992Q1448 978 1448 964Q1446 848 1423 700Q1398 538 1361 419T1270 222T1163 98T1026 29T875 -1T700 -8Q616 -8 553 -1T426 27T318 86T240 182Q204 242 190 324Q177 396 178 493Q178 506 178 520ZM534 381Q572 297 741 297Q901 297 974 385T1087 739Q1106
864 1110 947Q1111 969 1111 988Q1111 1044 1104 1082Q1094 1134 1063 1160T992 1195T887 1204Q774 1204 718 1178T617 1051T539 739Q516 593 516 500Q517 420 534 381Z" />
<glyph unicode="P" glyph-name="P" horiz-adv-x="1224" d="M106 0L344 1499H971Q1051 1499 1119 1475T1248 1394Q1306 1338 1330 1232Q1342 1178 1342 1115Q1342 1053 1331 981Q1315 866 1281 781T1205 650T1114 574T1014 538Q964 532 912 529Q895 528 878 528Q846
528 817 532Q758 536 650 552T532 573L442 0H106ZM571 823H831Q897 823 937 869T993 1022Q998 1056 998 1084Q998 1208 893 1208H633L571 823Z" />
<glyph unicode="Q" glyph-name="Q" horiz-adv-x="1366" d="M180 528Q182 643 205 786Q228 933 262 1046T335 1236T429 1365T533 1446T656 1489T786 1506T932 1509Q1014 1509 1077 1501T1203 1470T1310 1407T1387 1306T1436 1159Q1450 1085 1450 984Q1450 971 1450
958Q1448 840 1425 692Q1402 553 1371 447T1303 267T1212 142T1109 62T986 18T853 -2T702 -8Q620 -8 556 0T429 29T321 89T242 187T192 330Q180 402 180 500Q180 514 180 528ZM536 381Q573 297 745 297Q903 297 976 384T1090 739Q1110 864 1113 946Q1114 966 1114
985Q1114 1041 1107 1082Q1098 1135 1066 1160T995 1195T889 1204Q776 1204 720 1178T619 1051T541 739Q518 593 518 500Q518 420 536 381ZM588 -68H772Q789 -153 923 -153Q992 -153 1092 -131L1051 -387Q987 -399 928 -399Q872 -399 820 -388Q711 -367 642 -284Q585
-217 585 -116Q585 -93 588 -68Z" />
<glyph unicode="R" glyph-name="R" horiz-adv-x="1230" d="M106 0L344 1499H975Q1170 1499 1270 1373Q1342 1282 1342 1122Q1342 1060 1331 987Q1317 883 1286 806T1226 689T1153 624T1087 592T1030 580L1241 0H860L694 563L532 578L442 0H106ZM575 834H827Q905
834 942 878T993 1026Q997 1062 997 1090Q997 1142 983 1168Q961 1208 891 1208H635L575 834Z" />
<glyph unicode="S" glyph-name="S" horiz-adv-x="1191" d="M139 49L180 311Q353 289 659 289Q672 289 686 289Q844 289 860 397L868 457Q871 477 871 494Q871 526 858 546Q838 574 764 575H586Q496 575 429 598T326 660T266 743T236 838Q231 882 232 914Q232 920
232 925Q233 961 238 995L258 1159Q274 1268 316 1340T427 1449T564 1498T729 1511Q759 1511 788 1511Q1123 1511 1307 1448L1266 1186Q1020 1206 786 1206Q777 1206 769 1206Q682 1206 645 1186Q604 1164 592 1085L584 1034Q580 1010 580 992Q580 950 598 934Q624
910 709 911H895Q999 911 1072 869T1170 766T1208 632Q1214 599 1214 568Q1214 531 1206 498L1198 365Q1192 261 1154 186T1070 73T951 14T826 -12T700 -16Q489 -16 373 -4T139 49Z" />
<glyph unicode="T" glyph-name="T" horiz-adv-x="1212" d="M238 1194L287 1499H1419L1370 1194H965L776 0H440L629 1194H238Z" />
<glyph unicode="U" glyph-name="U" horiz-adv-x="1337" d="M193 352T193 456T213 692L342 1499H680L545 647Q530 554 530 487Q530 414 548 374Q582 296 729 295Q872 295 931 377T1020 647L1155 1499H1493L1366 600Q1339 434 1288 319T1178 140T1029 41T867 -2T684
-10Q614 -10 559 -4T445 20T343 69T264 153T210 279Z" />
<glyph unicode="V" glyph-name="V" horiz-adv-x="1415" d="M276 1499H631L750 426L1225 1499H1597L885 0H487L276 1499Z" />
<glyph unicode="W" glyph-name="W" horiz-adv-x="2074" d="M276 1499H629L752 442L1180 1499H1536L1370 1122L1468 440L1905 1499H2259L1610 0H1225L1139 561L897 0H487L276 1499Z" />
<glyph unicode="X" glyph-name="X" horiz-adv-x="1349" d="M61 0L612 774L295 1499H664L844 1032L1171 1499H1548L985 709L1296 0H926L754 451L438 0H61Z" />
<glyph unicode="Y" glyph-name="Y" horiz-adv-x="1363" d="M276 1499H641L780 807L1165 1499H1546L895 440L823 0H487L559 440L276 1499Z" />
<glyph unicode="Z" glyph-name="Z" horiz-adv-x="1136" d="M49 0L98 305L872 1194H238L287 1499H1327L1278 1194L532 305H1139L1090 0H49Z" />
<glyph unicode="[" glyph-name="bracketleft" horiz-adv-x="694" d="M115 -287T107 -204T117 -49L334 1282Q365 1470 464 1551T778 1632H942L897 1358H811Q748 1358 711 1322T659 1196L453 -78Q437 -176 460 -212T549 -248H643L600 -522H412Q306 -522 235 -475T140 -358Z" />
<glyph unicode="\" glyph-name="backslash" horiz-adv-x="962" d="M274 1577H612L915 -147H578L274 1577Z" />
<glyph unicode="]" glyph-name="bracketright" horiz-adv-x="684" d="M-41 -522L2 -248H90Q153 -248 190 -212T244 -86L444 1188Q460 1284 436 1321T344 1358H258L301 1632H471Q571 1632 641 1596T742 1497T786 1353T782 1184L586 -172Q561 -338 468 -430T154 -522H-41Z" />
<glyph unicode="^" glyph-name="asciicircum" horiz-adv-x="780" d="M242 1087L500 1370H737L885 1087H680L604 1206L487 1087H242Z" />
<glyph unicode="_" glyph-name="underscore" horiz-adv-x="1378" d="M53 -2L98 272H1397L1352 -2H53Z" />
<glyph unicode="`" glyph-name="grave" horiz-adv-x="501" d="M244 1376H512L647 1087H446L244 1376Z" />
<glyph unicode="a" glyph-name="a" horiz-adv-x="1114" d="M152 623Q179 752 224 845T319 987T440 1064T563 1099T690 1108Q706 1108 723 1109Q848 1110 976 1082Q1122 1052 1194 981L1051 4H788L737 111Q698 56 609 22T426 -12Q260 -12 176 152Q127 247 126 391Q126
494 152 623ZM470 351Q488 264 569 264Q704 264 766 369L836 834Q784 856 730 856Q698 856 666 848Q619 838 589 821T527 742T479 571Q463 492 463 429Q462 386 470 351Z" />
<glyph unicode="b" glyph-name="b" horiz-adv-x="1140" d="M82 0L336 1608H672L582 1036Q734 1104 893 1104Q1036 1104 1108 1019T1183 794Q1183 779 1183 764Q1183 636 1161 477Q1116 206 1017 96Q920 -13 726 -12Q722 -12 719 -12Q557 -10 436 106L365 0H82ZM471
324Q528 267 664 266Q727 266 764 325T827 553Q844 666 844 732Q844 770 838 792Q822 852 754 852Q625 852 549 815L471 324Z" />
<glyph unicode="c" glyph-name="c" horiz-adv-x="1003" d="M154 590Q181 754 223 860T327 1018T450 1087T598 1106Q905 1106 1102 1036L1069 834Q907 848 725 848Q647 848 611 835T544 754T487 541Q475 460 473 408Q473 396 472 384Q472 348 477 324Q483 292 505
275T556 253T631 248Q715 248 806 253T946 262L995 266L963 61Q848 16 732 1Q640 -11 504 -11Q468 -11 428 -10Q262 -8 184 140Q136 231 135 381Q135 474 154 590Z" />
<glyph unicode="d" glyph-name="d" horiz-adv-x="1124" d="M152 600Q175 725 203 810T280 965T408 1070T596 1104Q760 1104 889 1036L979 1608H1315L1059 0H778L737 106Q580 -12 429 -12Q428 -12 426 -12Q242 -12 174 161Q133 264 133 399Q133 492 152 600ZM486
324Q504 266 565 266Q698 266 774 324L852 815Q791 852 657 852Q596 852 559 793T492 553Q478 454 478 393Q478 348 486 324Z" />
<glyph unicode="e" glyph-name="e" horiz-adv-x="1081" d="M156 631Q189 811 239 906T401 1054T711 1108Q716 1108 722 1108Q912 1108 1032 1040Q1149 974 1150 816Q1150 806 1149 795Q1143 652 1078 558T924 429T736 387Q692 383 655 383Q608 383 570 389Q503
399 473 412Q468 380 468 355Q468 301 492 279Q526 246 637 246Q654 246 672 246Q851 246 1057 283L1016 45Q805 -19 566 -19Q499 -19 430 -14Q130 5 130 379Q130 489 156 631ZM500 629Q510 627 530 624Q549 622 598 620Q605 620 611 619Q652 620 686 628Q725 638
761 666T805 741Q808 757 808 770Q808 808 786 826Q760 848 697 848Q692 848 686 848Q633 848 599 832T546 779T518 714T500 629Z" />
<glyph unicode="f" glyph-name="f" horiz-adv-x="829" d="M160 844L193 1053L360 1087L387 1257Q418 1452 514 1531T797 1610Q955 1610 1051 1561L1020 1364L850 1366Q846 1366 842 1366Q771 1366 750 1331Q729 1294 709 1165L696 1087H930L893 844H657L520 0H184L319
844H160Z" />
<glyph unicode="g" glyph-name="g" horiz-adv-x="1142" d="M27 -508L61 -285H498Q578 -285 633 -236T702 -90L729 82Q625 4 479 4Q252 4 182 163Q139 258 139 405Q139 503 158 623Q201 889 322 999T645 1110Q805 1110 975 1090T1223 1042L1036 -135Q967 -562 583
-562Q543 -562 500 -557L27 -508ZM478 343Q492 258 586 258Q682 258 764 299L854 864H688Q637 864 601 839T545 765T514 679T496 584Q473 476 473 402Q473 369 478 343Z" />
<glyph unicode="h" glyph-name="h" horiz-adv-x="1130" d="M82 0L336 1602H672L571 975Q630 1018 666 1039T772 1083T920 1106Q1016 1106 1077 1075T1161 991T1189 866Q1190 849 1190 832Q1190 776 1178 713L1065 0H729L842 717Q845 741 845 761Q844 798 832 818Q812
848 766 848Q635 848 541 762L418 0H82Z" />
<glyph unicode="i" glyph-name="i" horiz-adv-x="485" d="M76 0L248 1087H584L412 0H76ZM266 1243L297 1450Q303 1501 354 1501H610Q648 1501 648 1464Q648 1457 647 1450L616 1243Q610 1196 561 1196H307Q265 1196 265 1233Q265 1238 266 1243Z" />
<glyph unicode="j" glyph-name="j" horiz-adv-x="518" d="M4 -553L266 1087H602L426 -8Q377 -366 258 -553H4ZM281 1243L313 1450Q319 1501 371 1501H627Q667 1501 667 1464Q667 1457 666 1450L633 1243Q627 1196 578 1196H324Q280 1196 280 1233Q280 1238 281 1243Z" />
<glyph unicode="k" glyph-name="k" horiz-adv-x="1116" d="M82 0L336 1602H672L530 709Q651 756 751 856T893 1087H1245Q1151 743 877 590L1180 0H811L573 481L496 479L418 0H82Z" />
<glyph unicode="l" glyph-name="l" horiz-adv-x="643" d="M139 387L332 1604H668L485 449Q479 387 479 349Q478 312 484 296Q496 264 541 244Q637 203 647 203L616 0H416Q260 0 183 93Q129 158 129 276Q129 327 139 387Z" />
<glyph unicode="m" glyph-name="m" horiz-adv-x="1775" d="M82 0L254 1087H530L573 975Q641 1022 673 1042T771 1083T915 1104Q1114 1104 1165 967Q1384 1104 1565 1104Q1743 1104 1797 1000Q1833 932 1832 828Q1832 774 1823 709L1708 0H1372L1487 717Q1491 741
1491 761Q1491 846 1411 846Q1266 846 1184 770L1174 709L1061 0H725L838 717Q841 739 841 758Q841 846 762 846Q637 846 539 760L418 0H82Z" />
<glyph unicode="n" glyph-name="n" horiz-adv-x="1130" d="M82 0L254 1087H530L573 975Q636 1020 670 1040T773 1083T920 1106Q1016 1106 1077 1075T1161 991T1189 866Q1190 849 1190 832Q1190 776 1178 713L1065 0H729L842 717Q845 738 845 756Q845 848 766 848Q635
848 541 762L418 0H82Z" />
<glyph unicode="o" glyph-name="o" horiz-adv-x="1136" d="M150 567Q177 735 218 838T334 1001T501 1081T741 1102Q1016 1102 1110 956Q1172 860 1172 687Q1172 598 1155 489Q1106 190 985 90T571 -10Q295 -10 199 129Q135 222 135 388Q135 469 150 567ZM482 295Q506
250 608 250Q684 250 717 266T773 339T819 528Q839 648 839 717Q838 762 830 786Q808 844 700 844T555 789T485 528Q471 428 471 369Q471 316 482 295Z" />
<glyph unicode="p" glyph-name="p" horiz-adv-x="1138" d="M-4 -553L252 1036Q459 1097 838 1098Q1041 1098 1122 937Q1174 832 1174 677Q1174 593 1159 496Q1118 220 1008 100T670 -20Q508 -20 430 59L332 -553H-4ZM463 274Q516 231 599 231Q615 231 633 233Q715
237 755 303T825 557Q842 630 842 689Q842 733 832 769Q811 854 727 854H559L463 274Z" />
<glyph unicode="q" glyph-name="q" horiz-adv-x="1132" d="M154 594Q199 877 320 991T647 1106Q809 1106 975 1087T1217 1038L967 -553H631L727 59Q622 -20 479 -20Q477 -20 475 -20Q250 -20 178 138Q135 233 135 379Q135 475 154 594ZM474 310Q489 233 584 233Q680
233 762 274L852 862H684Q635 862 599 835T543 755T512 662T492 559Q469 441 469 367Q469 334 474 310Z" />
<glyph unicode="r" glyph-name="r" horiz-adv-x="847" d="M82 0L254 1087H545L569 950Q708 1097 870 1098Q950 1098 979 1085L928 764Q897 766 770 766Q678 766 619 744T520 645L418 0H82Z" />
<glyph unicode="s" glyph-name="s" horiz-adv-x="1042" d="M109 53L139 258H635Q692 258 702 311L709 346Q713 375 703 388T657 401H436Q289 400 214 490Q158 557 158 660Q158 694 164 733L180 829Q225 1099 512 1100Q637 1100 703 1099T866 1093T1019 1073T1098
1036L1065 831H590Q520 831 512 774L508 739Q506 729 506 720T507 706T513 696T519 690T529 687T541 686H554H565H797Q949 686 1011 594Q1058 524 1058 431Q1058 401 1053 369L1032 246Q995 -12 721 -12Q594 -12 525 -11T353 -4T191 16T109 53Z" />
<glyph unicode="t" glyph-name="t" horiz-adv-x="768" d="M145 846L172 1022L350 1090L451 1393H733L686 1090H901L864 846H647L584 451Q578 387 578 347Q578 311 583 295Q594 262 637 242Q735 201 745 201L715 -2H496Q355 -2 281 93Q230 159 230 275Q230 327
240 389L311 846H145Z" />
<glyph unicode="u" glyph-name="u" horiz-adv-x="1128" d="M120 176Q118 205 118 237Q118 301 127 377L242 1087H578L463 369Q458 341 459 320Q459 286 470 270Q489 242 539 242Q672 242 766 328L885 1087H1221L1049 0H772L731 111Q645 43 573 13T385 -18Q258
-18 193 35T120 176Z" />
<glyph unicode="v" glyph-name="v" horiz-adv-x="1110" d="M164 1087H520L602 369L819 838Q876 965 889 1090H1204Q1210 1054 1210 1017Q1210 884 1130 725L760 0H352L164 1087Z" />
<glyph unicode="w" glyph-name="w" horiz-adv-x="1718" d="M164 1087H518L600 371L815 836Q874 957 885 1090H1200Q1207 1053 1207 1015Q1207 919 1165 815L1143 758L1212 373L1432 838Q1489 959 1501 1090H1815Q1823 1051 1823 1010Q1823 877 1741 725L1362 0H983L920
360L754 0H352L164 1087Z" />
<glyph unicode="x" glyph-name="x" horiz-adv-x="1208" d="M33 0L489 567L205 1087H606L727 795L942 1087H1348L889 506L1163 0H774L651 279L442 0H33Z" />
<glyph unicode="y" glyph-name="y" horiz-adv-x="1163" d="M164 1087H512L557 358Q563 284 649 279L881 838Q918 928 934 1090H1249Q1257 1049 1257 1005Q1257 876 1190 721L877 0Q822 -127 757 -226T625 -387T500 -490T375 -556T272 -588T184 -604V-369Q315 -303
396 -214T541 0Q260 0 233 295L164 1087Z" />
<glyph unicode="z" glyph-name="z" horiz-adv-x="983" d="M72 2L115 274L647 813H172L213 1087H1116L1075 813L567 276H987L944 2H72Z" />
<glyph unicode="{" glyph-name="braceleft" horiz-adv-x="655" d="M115 473L154 719Q293 727 307 821L385 1298Q412 1478 535 1555T901 1632L860 1358Q784 1358 749 1311T692 1128L641 799Q610 615 403 594Q600 553 573 391L504 -41Q486 -164 505 -214T602 -262L561
-522Q92 -522 160 -102L233 360Q241 415 209 446T115 473Z" />
<glyph unicode="|" glyph-name="bar" horiz-adv-x="507" d="M94 -147L365 1577H639L369 -147H94Z" />
<glyph unicode="}" glyph-name="braceright" horiz-adv-x="655" d="M-41 -522L0 -262Q78 -264 111 -217T164 -55L233 371Q258 533 467 573Q266 589 297 778L348 1114Q373 1261 354 1310T258 1358L301 1632Q532 1632 623 1508T684 1192L635 803Q629 748 663 720T758
690L717 446Q584 452 565 342L477 -178Q444 -373 330 -447T-41 -522Z" />
<glyph unicode="~" glyph-name="asciitilde" horiz-adv-x="841" d="M258 1212Q405 1359 532 1360Q577 1360 636 1324T737 1288Q833 1286 942 1370L971 1235Q838 1088 717 1087Q670 1087 601 1123T494 1159T419 1149T361 1127T291 1087L258 1212Z" />
</font>
</defs>
</svg>
