<?xml version="1.0" standalone="no"?> <!DOCTYPE svg PUBLIC "-//W3C//DTD SVG 1.0//EN" "http://www.w3.org/TR/2001/REC-SVG-20010904/DTD/svg10.dtd" > <svg xmlns="http://www.w3.org/2000/svg" width="100%" height="100%">
<defs >
<font id="exo-black-italic" horiz-adv-x="1061" ><font-face
    font-family="Exo"
    units-per-em="2048"
    panose-1="2 0 10 3 0 0 0 0 0 0"
    ascent="2042"
    descent="-709"
    alphabetic="0" />
<missing-glyph horiz-adv-x="2048" />
<glyph unicode=" " glyph-name="space" horiz-adv-x="512" />
<glyph unicode="!" glyph-name="exclam" horiz-adv-x="567" d="M117 47L156 287Q162 338 213 338H449Q496 338 487 287L449 47Q443 0 395 0H160Q111 0 117 47ZM193 401L330 1497H707L492 401H193Z" />
<glyph unicode="&quot;" glyph-name="quotedbl" horiz-adv-x="1017" d="M295 1087L313 1362L336 1499H713L690 1362L627 1087H295ZM737 1087L760 1362L782 1499H1159L1137 1362L1073 1087H737Z" />
<glyph unicode="#" glyph-name="numbersign" horiz-adv-x="1533" d="M84 393L168 664H469L528 838H223L309 1108H625L764 1499H1034L895 1108H1075L1212 1499H1483L1346 1108H1688L1606 838H1262L1202 662H1546L1466 391H1098L961 0H690L827 391L645 393L508 0H238L375
393H84ZM739 664L932 662L991 838H799L739 664Z" />
<glyph unicode="$" glyph-name="dollar" horiz-adv-x="1159" d="M119 53L168 362Q387 339 633 340Q699 340 729 359T768 424L772 457Q780 504 761 525T678 547H555Q463 547 395 575T291 653T236 753T214 866T214 963T221 1034L238 1159Q254 1265 297 1336T409
1443T550 1493T717 1511L743 1688H965L938 1511Q1112 1503 1272 1444L1223 1135Q1039 1155 795 1155Q705 1155 672 1141T629 1065L625 1042Q617 989 636 967T733 944H864Q975 944 1048 891T1148 763T1184 604T1178 459L1167 391Q1151 285 1114 208T1034 89T929
23T816 -8T696 -16L670 -184H449L475 -16Q448 -16 425 -15T384 -13T348 -10T317 -7T286 -1T259 6T229 15T198 26T160 39T119 53Z" />
<glyph unicode="%" glyph-name="percent" horiz-adv-x="1980" d="M205 1022L242 1253Q262 1384 338 1441T569 1499H776Q919 1499 976 1417T1014 1198L977 967Q957 836 880 776T649 715H442Q299 715 242 799T205 1022ZM391 0L1559 1499H1812L659 0H391ZM469 1030T469
1012T484 982T532 971H637Q721 971 731 1053L748 1161Q756 1210 741 1226T684 1243H580Q500 1243 487 1161L471 1053Q469 1030 469 1012ZM1208 303L1243 535Q1263 668 1339 729T1569 791H1778Q1921 791 1978 707T2015 483L1982 252Q1962 121 1884 64T1651 6H1442Q1163
6 1208 303ZM1473 344Q1467 303 1478 283T1536 262H1638Q1722 262 1733 344L1749 453Q1757 502 1742 518T1686 535H1583Q1501 535 1489 453L1473 344Z" />
<glyph unicode="&amp;" glyph-name="ampersand" horiz-adv-x="1456" d="M160 178Q-24 504 305 748L483 881L418 997Q359 1112 378 1217T471 1401T637 1495Q899 1542 1253 1454L1206 1159H934Q821 1159 810 1129T858 999L1044 672L1327 907L1442 727L1298 473L1206
385L1425 0H983L889 166L733 51Q661 -2 555 -14T335 21T160 178ZM481 397Q538 303 631 375L719 444L629 594L530 526Q444 456 481 397Z" />
<glyph unicode="&apos;" glyph-name="quotesingle" horiz-adv-x="524" d="M258 1087L279 1362L301 1499H700L678 1362L614 1087H258Z" />
<glyph unicode="(" glyph-name="parenleft" horiz-adv-x="843" d="M160 131T161 285T190 606Q278 1164 607 1511Q690 1599 752 1638H1102Q1086 1618 1056 1581T949 1426T808 1185T679 887T588 545Q559 350 565 182T602 -121T666 -352T727 -501L754 -553H403Q397
-545 385 -532T340 -466T279 -354T220 -192T175 20Z" />
<glyph unicode=")" glyph-name="parenright" horiz-adv-x="845" d="M-45 -553Q-29 -535 0 -501T105 -355T245 -121T374 182T469 545Q544 1019 358 1507L301 1638H651Q657 1630 669 1614T713 1540T773 1420T830 1253T875 1040T891 784T866 483Q829 256 763 66T627
-234T493 -421T387 -525L346 -553H-45Z" />
<glyph unicode="*" glyph-name="asterisk" horiz-adv-x="854" d="M240 1159L262 1303L553 1341L532 1149L240 1159ZM291 856L385 1139L565 1090L420 813L291 856ZM508 940L639 1102L842 920L739 805L508 940ZM555 1479L698 1524L782 1266L592 1196L555 1479ZM655
1169L926 1335L991 1219L752 1020L655 1169Z" />
<glyph unicode="+" glyph-name="plus" horiz-adv-x="933" d="M131 571L180 887H446L489 1155H805L762 887H1032L983 571H713L670 303H354L397 571H131Z" />
<glyph unicode="," glyph-name="comma" horiz-adv-x="520" d="M80 -180L100 -53Q129 -53 144 -46T164 -32T170 -10L172 0H150Q99 0 106 51L143 285Q151 340 203 340H430Q479 340 471 285L422 -23Q410 -95 371 -136T284 -188T190 -198T112 -188L80 -180Z" />
<glyph unicode="-" glyph-name="hyphen" horiz-adv-x="722" d="M125 436L174 752H817L768 436H125Z" />
<glyph unicode="." glyph-name="period" horiz-adv-x="524" d="M104 47L143 287Q149 338 201 338H432Q485 338 475 287L436 47Q428 0 379 0H147Q98 0 104 47Z" />
<glyph unicode="/" glyph-name="slash" horiz-adv-x="1030" d="M0 -147L848 1577H1255L408 -147H0Z" />
<glyph unicode="0" glyph-name="zero" horiz-adv-x="1267" d="M139 393L250 1085Q283 1292 384 1395T672 1499H1008Q1217 1499 1304 1387T1364 1106L1251 393Q1188 0 850 0H514Q313 0 212 105T139 393ZM551 477Q543 424 559 396T595 362T647 356H733Q792 356 823
377T866 475L954 1024Q972 1143 874 1143H758Q721 1143 696 1130T659 1092T643 1056T637 1024L551 477Z" />
<glyph unicode="1" glyph-name="one" horiz-adv-x="776" d="M215 1081L254 1333Q428 1386 526 1499H920L682 0H285L463 1122Q376 1064 215 1081Z" />
<glyph unicode="2" glyph-name="two" horiz-adv-x="1187" d="M61 0L117 344Q318 465 601 693T901 1022Q915 1110 869 1135T688 1161H231L279 1458Q570 1519 891 1520Q1120 1520 1225 1364T1296 981Q1286 913 1248 843T1174 721T1065 604T960 508T848 421T764 356H1194L1137
0H61Z" />
<glyph unicode="3" glyph-name="three" horiz-adv-x="1175" d="M53 43L102 344H549Q678 344 717 359T766 442L768 463Q772 492 766 510T752 538T715 555T667 562T596 567L264 586L317 909L653 926Q710 928 730 930T782 937T825 952T847 980T862 1026L864 1042Q870
1079 861 1101T822 1133T765 1145T688 1147H215L262 1446Q459 1512 944 1503Q1114 1499 1207 1383T1272 1083L1257 1004Q1218 773 1038 745Q1128 720 1155 621T1161 389L1151 330Q1098 -14 690 -14H614H534Q518 -14 461 -13T382 -11T313 -7T241 0T177 10T111 24T53
43Z" />
<glyph unicode="4" glyph-name="four" horiz-adv-x="1300" d="M94 459L690 1499H1116L659 645H858L903 920L983 1079H1325L1255 645H1378L1331 340L1198 281L1155 4H758L801 281H135L94 459Z" />
<glyph unicode="5" glyph-name="five" horiz-adv-x="1212" d="M94 41L145 358H686Q731 358 759 367T800 398T816 431T823 467L834 530Q842 585 825 612T752 639H662Q572 639 557 547H176L373 1499H1321L1264 1143H702L662 934Q725 969 803 975T956 975Q1124 961
1192 844T1237 553L1206 319Q1153 -9 729 -8Q518 -8 399 0T94 41Z" />
<glyph unicode="6" glyph-name="six" horiz-adv-x="1226" d="M168 266T168 425T201 827Q226 985 265 1103T348 1291T449 1408T557 1472T670 1501Q951 1544 1341 1458L1294 1155H846Q791 1155 753 1141T694 1109T656 1050T634 981T618 895Q677 924 739 931T938
938Q1315 938 1247 510L1217 303Q1186 119 1080 59T770 -2H487Q389 -2 323 37T212 171ZM546 438T570 396T696 354H741Q792 354 814 373T844 449L852 489Q866 555 855 578T791 602H571Q546 438 570 396Z" />
<glyph unicode="7" glyph-name="seven" horiz-adv-x="1148" d="M215 1143L272 1499H1257L1327 1339L647 0H225L811 1143H215Z" />
<glyph unicode="8" glyph-name="eight" horiz-adv-x="1261" d="M143 408L160 516Q189 688 350 715Q284 750 258 814T233 931T248 1063L268 1196Q284 1298 326 1365T437 1461T569 1500T725 1509H1044Q1226 1509 1309 1408T1362 1112L1348 1022Q1340 963 1293 901T1155
825Q1218 813 1248 747T1273 613T1264 494L1239 338Q1223 242 1190 176T1122 75T1025 24T921 3T803 0H485Q80 0 143 408ZM551 430Q543 377 560 357T631 336H737Q798 336 821 358T850 430L862 512Q870 559 856 583T786 608H676Q617 608 593 584T563 512L551 430ZM643
1012Q635 955 652 939T725 922H831Q894 922 914 941T942 1012L950 1073Q950 1110 951 1130T935 1160T907 1171T870 1174H764Q711 1174 687 1157T651 1073L643 1012Z" />
<glyph unicode="9" glyph-name="nine" horiz-adv-x="1224" d="M125 41L172 344H621Q689 344 731 361T796 421T828 497T850 604Q791 575 729 568T528 561Q422 561 351 600T251 701T214 845T223 1010L250 1176Q279 1362 387 1431T692 1501H975Q1112 1501 1190 1419T1293
1144T1264 631Q1239 473 1199 360T1118 182T1017 77T911 23T799 -2Q516 -45 125 41ZM602 944T612 921T676 897H895Q920 1057 895 1101T768 1145H725Q674 1145 653 1126T623 1051L616 1010Q602 944 612 921Z" />
<glyph unicode=":" glyph-name="colon" horiz-adv-x="526" d="M104 47L143 287Q149 338 201 338H432Q485 338 475 287L436 47Q428 0 379 0H147Q98 0 104 47ZM223 797L262 1036Q268 1087 319 1087H551Q602 1087 592 1036L555 797Q547 750 498 750H266Q217 750 223 797Z" />
<glyph unicode=";" glyph-name="semicolon" horiz-adv-x="526" d="M80 -180L100 -53Q129 -53 144 -46T164 -32T170 -10L172 0H150Q99 0 106 51L143 285Q151 340 203 340H430Q479 340 471 285L422 -23Q410 -95 371 -136T284 -188T190 -198T112 -188L80 -180ZM225
797L262 1036Q268 1087 319 1087H551Q604 1087 594 1036L557 797Q549 750 498 750H266Q219 750 225 797Z" />
<glyph unicode="&lt;" glyph-name="less" horiz-adv-x="882" d="M143 545L199 893L1010 1159L954 811L561 713L922 614L866 266L143 545Z" />
<glyph unicode="=" glyph-name="equal" horiz-adv-x="956" d="M92 332L141 647H1016L967 332H92ZM164 780L213 1096H1087L1038 780H164Z" />
<glyph unicode="&gt;" glyph-name="greater" horiz-adv-x="880" d="M98 266L154 614L549 741L184 811L240 1159L965 893L911 545L98 266Z" />
<glyph unicode="?" glyph-name="question" horiz-adv-x="1116" d="M205 1155L252 1452Q543 1526 840 1513Q1059 1513 1164 1376T1243 1073L1225 928Q1198 719 1087 638T721 565L696 399H399L471 854H659Q739 858 779 889T831 997L836 1028Q846 1094 807 1124T678
1155H205ZM322 47L360 287Q366 338 418 338H649Q702 338 692 287L653 47Q645 0 596 0H365Q316 0 322 47Z" />
<glyph unicode="@" glyph-name="at" horiz-adv-x="1884" d="M82 121L231 1067Q254 1206 305 1297T440 1435T615 1497T838 1513H1565Q2016 1513 1931 944L1839 322Q1814 150 1718 78T1405 6H1151L1102 109Q1022 -12 866 -8Q676 -2 595 161T555 598Q580 762 631
870T754 1030T897 1099T1057 1118Q1235 1118 1337 1087T1520 977L1423 301Q1497 301 1519 330T1561 485L1634 985Q1654 1122 1619 1169T1470 1217H770Q700 1217 653 1199T581 1143T544 1072T524 985L381 80Q367 -16 402 -64T561 -113H1352L1313 -352Q1037 -407
715 -408H535Q2 -407 82 121ZM842 506T839 471T840 386T871 311T950 287Q1130 293 1143 430L1202 815Q1128 825 1040 825Q954 825 914 768T850 561Q842 506 839 471Z" />
<glyph unicode="A" glyph-name="A" horiz-adv-x="1456" d="M51 0L758 1499H1227L1444 0H1036L993 262H608L492 0H51ZM752 600H967L920 1001L752 600Z" />
<glyph unicode="B" glyph-name="B" horiz-adv-x="1230" d="M92 0L330 1499H961Q1190 1499 1284 1375Q1354 1282 1354 1147Q1354 1101 1346 1049Q1330 947 1257 867T1077 778Q1188 760 1246 654Q1288 577 1288 477Q1288 440 1282 401Q1268 305 1246 237T1184 124T1107
55T1002 18T881 3T733 0H92ZM543 336H766Q821 336 849 372T889 479Q894 508 894 531Q894 626 811 627H588L543 336ZM639 942H842Q887 942 915 971T950 1047Q953 1066 953 1082Q953 1163 879 1163Q878 1163 877 1163H674L639 942Z" />
<glyph unicode="C" glyph-name="C" horiz-adv-x="1159" d="M180 817Q237 1188 379 1352T819 1516Q1032 1516 1124 1501T1348 1434L1298 1124L1286 1126Q1274 1128 1253 1131T1203 1139T1137 1146T1061 1152T976 1157T887 1159H826Q810 1159 776 1154T729 1140T694
1111T659 1063T631 990T602 887T578 750Q555 611 555 526Q554 456 570 421Q604 344 758 344Q854 344 958 348T1120 357L1178 362L1128 53Q1024 12 912 -2Q824 -13 671 -13Q627 -13 578 -12Q155 -6 155 528Q155 657 180 817Z" />
<glyph unicode="D" glyph-name="D" horiz-adv-x="1323" d="M92 0L330 1499H977Q1403 1499 1402 960Q1402 835 1380 682Q1349 469 1300 334T1173 126T1003 27T774 0H92ZM543 336H756Q852 336 901 429T985 745Q1010 875 1010 960Q1010 992 1006 1018Q992 1112 962
1137T866 1163H674L543 336Z" />
<glyph unicode="E" glyph-name="E" horiz-adv-x="1136" d="M131 354L260 1171Q276 1275 320 1345T430 1447T556 1489T696 1499Q1083 1499 1319 1466L1266 1133H760Q721 1133 698 1124T662 1095T645 1061T637 1018L625 936L1128 913L1075 584L565 565L549 467Q543
428 549 405T576 373T613 363T659 360H1145L1092 29Q996 17 842 8T583 -4L477 -6Q466 -6 454 -6Q415 -6 378 -1Q330 6 277 29T188 91Q152 128 134 196Q124 233 125 278Q125 314 131 354Z" />
<glyph unicode="F" glyph-name="F" horiz-adv-x="1140" d="M82 0L260 1130Q276 1236 321 1311T430 1425T559 1481T700 1499Q1087 1499 1323 1466L1272 1133H766Q727 1133 703 1124T666 1095T649 1060T641 1018L627 928L1133 905L1081 575L567 557L479 0H82Z" />
<glyph unicode="G" glyph-name="G" horiz-adv-x="1265" d="M152 522Q155 668 190 840Q227 1030 269 1149T382 1355T555 1479T809 1516Q1051 1516 1135 1505T1419 1436L1370 1135Q1368 1135 1341 1140T1266 1151T1162 1163T1028 1174T879 1180Q740 1180 685 1095T588
754Q570 641 564 582Q558 530 558 484Q558 477 558 470Q559 418 578 398T628 366T716 354T814 377T866 425L879 449L903 602H803L842 848Q946 899 1208 899Q1274 899 1348 893L1204 0H924L827 100Q772 41 723 20T557 -10Q538 -11 519 -11Q391 -11 308 50Q213 119
182 248Q152 368 152 501Q152 512 152 522Z" />
<glyph unicode="H" glyph-name="H" horiz-adv-x="1302" d="M92 0L330 1499H727L633 903H981L1075 1499H1473L1235 0H838L924 547H575L489 0H92Z" />
<glyph unicode="I" glyph-name="I" horiz-adv-x="577" d="M92 0L330 1499H727L489 0H92Z" />
<glyph unicode="J" glyph-name="J" horiz-adv-x="724" d="M47 51L96 367Q205 367 254 386T319 440T350 565L498 1499H895L711 338Q676 109 553 37Q472 -9 327 -9Q310 -9 292 -8Q121 -2 47 51Z" />
<glyph unicode="K" glyph-name="K" horiz-adv-x="1351" d="M92 0L330 1499H707L612 909H674L1073 1499H1550L1020 715L1313 0H866L662 573H561L471 0H92Z" />
<glyph unicode="L" glyph-name="L" horiz-adv-x="1075" d="M141 319L328 1499H725L561 463Q555 424 561 401T588 369T625 358T672 356H1094L1036 0H430Q278 0 196 78Q134 136 134 243Q134 278 141 319Z" />
<glyph unicode="M" glyph-name="M" horiz-adv-x="1738" d="M63 0L461 1499H1014L1008 657L1266 1499H1829L1753 0H1362L1403 817L1145 0H680L678 817L465 0H63Z" />
<glyph unicode="N" glyph-name="N" horiz-adv-x="1386" d="M92 0L330 1499H731L1038 723L1159 1499H1556L1319 0H922L610 756L492 0H92Z" />
<glyph unicode="O" glyph-name="O" horiz-adv-x="1363" d="M167 532Q170 648 193 791Q216 938 252 1051T327 1241T424 1369T531 1448T657 1489T788 1506T934 1509Q1016 1509 1079 1501T1206 1470T1315 1407T1395 1306T1445 1158Q1458 1083 1459 982Q1459 968 1458
954Q1456 836 1434 688Q1411 549 1377 442T1307 260T1215 136T1109 58T983 15T847 -4T694 -8Q610 -8 545 0T416 30T308 91T230 190Q196 252 180 334Q167 403 167 495Q167 513 167 532ZM576 426Q604 348 750 348Q883 348 940 426T1036 739Q1063 876 1063 962Q1063
984 1061 1002Q1053 1094 1014 1123T879 1153T734 1126T653 1012T590 739Q565 598 566 513Q565 457 576 426Z" />
<glyph unicode="P" glyph-name="P" horiz-adv-x="1228" d="M90 0L328 1499H954Q1040 1499 1113 1474T1250 1390Q1316 1332 1340 1220Q1352 1165 1352 1098T1339 952Q1323 852 1294 775T1232 650T1151 571T1066 525T972 506Q925 503 896 503Q888 503 882 503Q852
504 797 508T663 527T573 549L487 0H90ZM621 844H809Q913 844 940 1008Q945 1038 945 1061Q945 1161 861 1161Q861 1161 860 1161H672L621 844Z" />
<glyph unicode="Q" glyph-name="Q" horiz-adv-x="1363" d="M167 542Q170 658 193 801Q211 916 236 1010T289 1173T358 1296T433 1385T521 1444T612 1481T714 1501T820 1508T934 1509Q1014 1509 1079 1500T1207 1468T1315 1404T1395 1300T1445 1150Q1458 1075 1458
973Q1458 959 1458 945Q1456 825 1434 678Q1411 539 1377 433T1307 253T1214 131T1109 56T982 15T847 -3T694 -8Q610 -8 544 1T415 33T307 96T229 196T180 342Q167 412 167 505Q167 523 167 542ZM573 -68H782Q782 -71 782 -74Q782 -115 808 -136Q836 -158 890 -160Q905
-161 920 -161Q957 -161 989 -157Q1034 -152 1096 -139L1051 -426Q998 -436 946 -436Q903 -436 860 -429Q768 -414 698 -377T592 -260Q568 -204 568 -135Q568 -103 573 -68ZM576 426Q604 348 750 348Q883 348 940 426T1036 739Q1063 876 1063 962Q1063 983 1061
1002Q1053 1094 1014 1123T879 1153T734 1126T653 1012T590 739Q565 598 565 513Q565 457 576 426Z" />
<glyph unicode="R" glyph-name="R" horiz-adv-x="1226" d="M90 0L328 1499H956Q1166 1499 1274 1367Q1351 1273 1352 1109Q1352 1044 1339 967Q1323 865 1295 790T1237 676T1168 612T1105 579T1047 567L1255 0H803L649 551L575 559L487 0H90ZM625 858H803Q877
858 901 893T940 1018Q945 1047 945 1070Q946 1104 934 1126Q916 1160 852 1161H674L625 858Z" />
<glyph unicode="S" glyph-name="S" horiz-adv-x="1200" d="M131 53L180 362Q390 340 662 340Q674 340 686 340Q752 340 782 359T821 424L825 457Q827 471 827 483Q827 512 814 526Q795 548 731 547H588Q496 547 425 572T317 642T255 732T226 833T221 923T225 991L248
1163Q260 1249 292 1312T366 1413T468 1471T585 1501T721 1511Q767 1512 811 1512Q1146 1512 1325 1444L1276 1135Q1092 1155 807 1155Q717 1155 684 1141T641 1065L637 1042Q635 1027 635 1014Q634 982 648 966Q668 944 745 944H897Q1008 944 1082 899T1184 789T1226
647Q1233 610 1232 576Q1232 541 1225 510L1221 381Q1217 270 1180 193T1096 75T973 14T845 -12T713 -16Q467 -16 368 -6T131 53Z" />
<glyph unicode="T" glyph-name="T" horiz-adv-x="1222" d="M221 1143L279 1499H1442L1384 1143H995L815 0H418L598 1143H221Z" />
<glyph unicode="U" glyph-name="U" horiz-adv-x="1335" d="M174 490Q176 592 197 717L324 1499H721L588 655Q574 558 570 490Q570 483 569 477Q569 418 605 384Q645 346 737 346Q803 346 846 365T913 434T949 527T973 655L1106 1499H1505L1382 594Q1362 467 1328
368T1253 205T1163 96T1061 32T952 0Q904 -10 858 -10Q850 -10 842 -10Q820 -9 799 -9Q767 -9 735 -11Q698 -10 680 -10Q619 -10 574 -7T472 7T376 40T294 97T228 186Q204 242 188 314Q175 376 174 462Q174 476 174 490Z" />
<glyph unicode="V" glyph-name="V" horiz-adv-x="1431" d="M266 1499H684L764 487L1180 1499H1618L932 0H453L266 1499Z" />
<glyph unicode="W" glyph-name="W" horiz-adv-x="2082" d="M266 1499H684L768 508L1118 1499H1536L1405 1167L1495 508L1855 1499H2273L1669 0H1206L1135 494L946 0H453L266 1499Z" />
<glyph unicode="X" glyph-name="X" horiz-adv-x="1390" d="M57 0L602 784L289 1499H729L879 1083L1159 1499H1599L1042 702L1352 0H911L768 401L498 0H57Z" />
<glyph unicode="Y" glyph-name="Y" horiz-adv-x="1390" d="M266 1499H698L797 836L1128 1499H1577L932 410L866 0H469L535 410L266 1499Z" />
<glyph unicode="Z" glyph-name="Z" horiz-adv-x="1130" d="M41 0L98 356L797 1143H221L279 1499H1329L1272 1143L612 356H1149L1092 0H41Z" />
<glyph unicode="[" glyph-name="bracketleft" horiz-adv-x="706" d="M88 -246T91 -177T102 -39L313 1241Q346 1442 454 1522T795 1602H958L909 1286H848Q787 1286 749 1250T696 1126L500 -78Q486 -166 510 -202T596 -238H668L618 -553H422Q330 -553 263 -520T161
-434T108 -314Z" />
<glyph unicode="\" glyph-name="backslash" horiz-adv-x="1017" d="M270 1577H672L975 -147H573L270 1577Z" />
<glyph unicode="]" glyph-name="bracketright" horiz-adv-x="694" d="M-45 -553L4 -238H66Q127 -238 166 -202T219 -78L410 1126Q437 1286 307 1286H246L297 1602H469Q672 1602 755 1470T809 1122L625 -190Q602 -360 501 -456T160 -553H-45Z" />
<glyph unicode="^" glyph-name="asciicircum" horiz-adv-x="774" d="M229 1087L479 1374H748L889 1087H662L598 1192L500 1087H229Z" />
<glyph unicode="_" glyph-name="underscore" horiz-adv-x="1378" d="M59 -2L109 313H1407L1358 -2H59Z" />
<glyph unicode="`" glyph-name="grave" horiz-adv-x="497" d="M240 1380H537L647 1087H424L240 1380Z" />
<glyph unicode="a" glyph-name="a" horiz-adv-x="1118" d="M141 639Q161 733 192 808T255 931T332 1014T415 1067T507 1094T598 1106T692 1108Q1075 1108 1208 981L1065 4H752L690 106Q628 -10 407 -10Q405 -10 403 -10Q246 -10 162 168Q114 269 114 408Q114 513
141 639ZM516 397Q518 350 537 329T594 307Q717 307 727 414L782 803Q764 819 730 819Q706 819 674 811Q637 803 615 788T567 723T530 590Q520 520 517 482Q515 459 515 433Q515 416 516 397Z" />
<glyph unicode="b" glyph-name="b" horiz-adv-x="1144" d="M70 0L324 1608H721L633 1042Q760 1103 911 1104Q1052 1104 1124 1022T1200 796Q1200 778 1200 760Q1200 629 1176 457Q1153 312 1116 218T1022 74T900 7T735 -12Q651 -12 598 14T485 100L410 0H70ZM524
354Q542 309 651 309Q700 309 728 356T780 559Q797 655 797 711Q796 721 796 729Q792 786 778 802T731 819Q627 819 594 788L524 354Z" />
<glyph unicode="c" glyph-name="c" horiz-adv-x="1001" d="M143 606Q168 760 211 863T314 1018T438 1088T588 1108Q920 1108 1106 1034L1069 801Q948 813 766 813Q705 813 676 808T618 777T572 696T539 541Q528 478 524 436Q522 418 522 401Q522 380 526 364Q532
334 539 319T571 295T617 286T682 285Q766 285 847 289T967 297L1006 301L969 68Q860 18 742 2Q647 -11 492 -11Q455 -11 414 -10Q252 -8 173 146Q124 241 124 395Q124 489 143 606Z" />
<glyph unicode="d" glyph-name="d" horiz-adv-x="1124" d="M141 621Q186 873 280 988T584 1104Q738 1104 844 1042L934 1608H1331L1077 0H737L692 100Q614 43 553 16T408 -12Q230 -12 160 163Q120 264 120 402Q120 502 141 621ZM528 395Q532 340 546 325T594 309Q698
309 733 354L803 788Q780 819 674 819Q627 819 599 770T543 559Q527 470 527 417Q527 405 528 395Z" />
<glyph unicode="e" glyph-name="e" horiz-adv-x="1083" d="M145 651Q194 911 305 1008T707 1108Q797 1108 871 1096T1015 1051T1124 952Q1161 890 1161 804Q1161 800 1161 795Q1159 668 1116 578T1008 445Q942 404 868 382Q807 364 747 364Q734 364 721 364Q647
368 598 375T524 393Q522 378 522 365Q522 320 549 305Q584 285 696 285Q897 285 1087 324L1038 45Q833 -22 594 -22Q512 -22 426 -14Q234 2 162 176Q122 274 121 413Q121 520 145 651ZM555 647Q561 645 573 642T616 637Q625 636 634 637Q654 637 672 640Q698 645
721 665T752 723Q754 737 754 748Q754 776 740 792Q722 813 683 813Q679 813 676 813Q617 811 592 770T555 647Z" />
<glyph unicode="f" glyph-name="f" horiz-adv-x="831" d="M150 813L188 1053L340 1087L373 1290Q402 1468 504 1539T801 1610Q969 1610 1057 1561L1020 1333L870 1335Q866 1335 861 1335Q803 1335 786 1310Q768 1282 754 1196Q752 1178 750 1167L737 1087H938L895
813H694L565 0H168L297 813H150Z" />
<glyph unicode="g" glyph-name="g" horiz-adv-x="1146" d="M10 -508L51 -244H457Q631 -244 662 -49L684 90Q612 12 473 12Q248 12 173 172Q128 269 128 420Q128 519 147 641Q190 913 313 1012T647 1112Q817 1112 989 1092T1237 1038L1055 -111Q1037 -228 997 -313T889
-460T716 -546Q648 -562 567 -562Q520 -562 469 -557L10 -508ZM528 362Q541 299 616 299Q686 299 723 338L803 838H707Q664 838 635 820T589 760T564 688T547 596Q525 473 525 406Q525 379 528 362Z" />
<glyph unicode="h" glyph-name="h" horiz-adv-x="1136" d="M70 0L324 1602H719L621 981Q666 1018 699 1041T798 1085T942 1106Q1075 1106 1139 1051T1206 904Q1206 894 1206 883Q1206 800 1192 696L1081 0H684L795 705Q799 732 799 752Q798 776 792 788Q780 810
745 811Q628 811 584 735L467 0H70Z" />
<glyph unicode="i" glyph-name="i" horiz-adv-x="516" d="M59 0L231 1087H629L457 0H59ZM254 1237L291 1477Q297 1528 348 1528H655Q693 1528 693 1491Q693 1484 692 1477L655 1237Q649 1190 602 1190H295Q253 1190 253 1227Q253 1232 254 1237Z" />
<glyph unicode="j" glyph-name="j" horiz-adv-x="542" d="M-12 -553L248 1087H645L471 -8Q455 -121 439 -196T384 -375T291 -553H-12ZM266 1237L305 1477Q311 1528 362 1528H670Q710 1528 710 1491Q710 1484 709 1477L670 1237Q664 1190 616 1190H309Q265 1190
265 1227Q265 1232 266 1237Z" />
<glyph unicode="k" glyph-name="k" horiz-adv-x="1155" d="M70 0L324 1602H721L582 729Q801 823 889 1087H1305Q1248 878 1163 767T971 590L1239 0H809L618 459L541 457L467 0H70Z" />
<glyph unicode="l" glyph-name="l" horiz-adv-x="659" d="M125 387L317 1604H715L537 469Q530 410 531 373Q531 342 535 328Q545 296 582 274Q660 231 674 231L637 0H416Q256 0 174 92Q116 158 116 280Q116 329 125 387Z" />
<glyph unicode="m" glyph-name="m" horiz-adv-x="1755" d="M70 0L242 1087H573L623 981Q682 1026 710 1045T801 1085T942 1106Q1139 1106 1188 981Q1256 1020 1296 1041T1412 1084T1561 1106Q1694 1106 1758 1051T1825 904Q1825 894 1826 885Q1826 801 1810 696L1700
0H1303L1415 705Q1420 733 1420 752Q1420 776 1413 788Q1401 810 1364 811Q1247 811 1200 750Q1200 742 1197 725T1192 696L1081 0H684L795 705Q799 732 799 752Q798 776 792 788Q780 810 745 811Q628 811 584 735L467 0H70Z" />
<glyph unicode="n" glyph-name="n" horiz-adv-x="1136" d="M70 0L242 1087H573L623 981Q674 1022 705 1043T800 1085T942 1106Q1075 1106 1139 1051T1206 904Q1206 894 1206 883Q1206 800 1192 696L1081 0H684L795 705Q799 732 799 752Q798 776 792 788Q780 810
745 811Q628 811 584 735L467 0H70Z" />
<glyph unicode="o" glyph-name="o" horiz-adv-x="1132" d="M139 580Q166 748 208 850T325 1008T494 1084T739 1104Q1020 1104 1115 956Q1177 859 1177 685Q1177 592 1159 477Q1134 323 1096 230T983 83T813 10T563 -10Q284 -10 188 134Q124 231 124 399Q124 481
139 580ZM521 326Q532 286 610 285Q692 285 712 319T762 528Q787 662 787 724Q786 744 784 756Q774 808 692 809Q612 809 591 771T544 576Q539 544 537 528Q518 413 518 359Q518 338 521 326Z" />
<glyph unicode="p" glyph-name="p" horiz-adv-x="1136" d="M-16 -553L233 1026Q317 1059 494 1079T842 1100Q1039 1100 1128 943Q1186 841 1186 679Q1186 592 1169 487Q1124 196 1013 88T664 -20Q525 -20 477 59L381 -553H-16ZM516 305Q543 266 610 266Q686 266
715 323T774 563Q791 626 791 686Q791 713 788 740Q776 825 696 825H600L516 305Z" />
<glyph unicode="q" glyph-name="q" horiz-adv-x="1134" d="M143 610Q188 899 311 1003T645 1108Q815 1108 985 1088T1231 1034L981 -553H584L680 59Q607 -20 472 -20Q471 -20 469 -20Q244 -20 169 140Q124 238 124 389Q124 488 143 610ZM524 328Q537 266 612 266Q682
266 719 305L801 834H705Q670 834 643 816T602 776T575 710T556 641T543 563Q521 440 521 373Q521 346 524 328Z" />
<glyph unicode="r" glyph-name="r" horiz-adv-x="839" d="M70 0L242 1087H594L616 950Q655 1009 727 1053T877 1098Q940 1098 971 1087L911 707H750Q709 707 687 705T633 692T585 655T559 584L467 0H70Z" />
<glyph unicode="s" glyph-name="s" horiz-adv-x="1044" d="M100 66L137 300H610Q649 300 655 334L657 344Q663 381 623 381H428Q283 381 206 478Q148 551 148 659Q148 694 154 733L170 827Q213 1097 502 1098Q887 1098 986 1079Q1080 1062 1106 1024L1069 791H612Q596
791 588 790T572 780T561 754L559 741Q557 729 559 722T568 713T581 710T600 709H805Q965 710 1026 610Q1071 537 1071 443Q1071 409 1065 373L1047 252Q1006 -10 731 -10H659Q528 -10 463 -9T307 -2T169 21T100 66Z" />
<glyph unicode="t" glyph-name="t" horiz-adv-x="768" d="M131 815L162 1012L328 1090L434 1393H774L725 1090H907L864 815H682L627 471Q620 409 620 372Q620 342 625 326Q635 294 670 272Q750 229 764 229L727 -2H481Q344 -2 265 93Q208 161 208 284Q208 332
217 389L285 815H131Z" />
<glyph unicode="u" glyph-name="u" horiz-adv-x="1134" d="M104 183Q104 191 104 199Q104 284 119 391L229 1087H627L514 383Q509 355 509 335Q509 311 516 299Q528 276 565 276Q682 276 727 352L844 1087H1241L1067 0H735L688 106Q616 38 550 10T369 -18Q236
-18 171 37T104 183Z" />
<glyph unicode="v" glyph-name="v" horiz-adv-x="1128" d="M154 1087H575L616 428L776 809Q842 942 852 1092H1233Q1239 1056 1239 1018Q1239 862 1137 666L801 0H322L154 1087Z" />
<glyph unicode="w" glyph-name="w" horiz-adv-x="1746" d="M154 1087H575L616 428L776 809Q842 942 852 1092H1233Q1238 1060 1238 1025Q1238 919 1192 791L1180 758L1237 428L1397 809Q1463 942 1473 1092H1853Q1859 1056 1859 1018Q1859 862 1757 666L1421 0H967L920
291L801 0H322L154 1087Z" />
<glyph unicode="x" glyph-name="x" horiz-adv-x="1255" d="M29 0L475 573L201 1087H676L758 838L924 1087H1399L946 498L1210 0H752L666 236L504 0H29Z" />
<glyph unicode="y" glyph-name="y" horiz-adv-x="1177" d="M156 1087H567L584 399Q586 323 659 319L836 807Q877 920 889 1090H1270Q1277 1049 1277 1005Q1277 855 1196 664L930 0Q690 -561 203 -619Q187 -620 178 -623V-344Q319 -278 400 -200T541 0Q226 0 205
319L156 1087Z" />
<glyph unicode="z" glyph-name="z" horiz-adv-x="999" d="M66 2L115 313L592 772H158L207 1087H1141L1092 772L647 317H1018L969 2H66Z" />
<glyph unicode="{" glyph-name="braceleft" horiz-adv-x="657" d="M106 420L152 700Q275 712 291 809L367 1282Q396 1462 521 1532T907 1602L858 1286Q795 1286 773 1243T727 1057L684 778Q666 669 604 619T434 561Q641 518 614 350L549 -57Q529 -157 539 -207T614
-258L567 -553Q307 -553 207 -447T139 -139L211 311Q219 364 192 394T106 420Z" />
<glyph unicode="|" glyph-name="bar" horiz-adv-x="512" d="M74 -147L346 1577H662L389 -147H74Z" />
<glyph unicode="}" glyph-name="braceright" horiz-adv-x="659" d="M-45 -553L2 -258Q68 -258 89 -215T129 -57L195 350Q222 518 440 561Q336 569 289 619T260 778L303 1057Q328 1196 318 1241T246 1286L297 1602Q537 1602 634 1480T700 1161L662 809Q652 711
768 700L723 420Q606 428 586 311L496 -221Q461 -420 346 -486T-45 -553Z" />
<glyph unicode="~" glyph-name="asciitilde" horiz-adv-x="825" d="M250 1225Q381 1377 526 1376Q573 1376 632 1341T731 1305Q837 1299 936 1386L965 1235Q844 1088 711 1087Q666 1087 595 1123T485 1159Q387 1159 283 1087L250 1225Z" />
</font>
</defs>
</svg>
