<?xml version="1.0" standalone="no"?> <!DOCTYPE svg PUBLIC "-//W3C//DTD SVG 1.0//EN" "http://www.w3.org/TR/2001/REC-SVG-20010904/DTD/svg10.dtd" > <svg xmlns="http://www.w3.org/2000/svg" width="100%" height="100%">
<defs >
<font id="exo-demibold-italic" horiz-adv-x="1047" ><font-face
    font-family="Exo"
    units-per-em="2048"
    panose-1="2 0 7 3 0 0 0 0 0 0"
    ascent="2048"
    descent="-620"
    alphabetic="0" />
<missing-glyph horiz-adv-x="2048" />
<glyph unicode=" " glyph-name="space" horiz-adv-x="512" />
<glyph unicode="!" glyph-name="exclam" horiz-adv-x="550" d="M154 47L180 207Q186 258 238 258H393Q440 258 432 207L406 47Q400 0 352 0H197Q148 0 154 47ZM229 408L381 1497H631L434 408H229Z" />
<glyph unicode="&quot;" glyph-name="quotedbl" horiz-adv-x="862" d="M342 1087L362 1362L385 1499H616L594 1362L530 1087H342ZM678 1087L698 1362L721 1499H952L930 1362L866 1087H678Z" />
<glyph unicode="#" glyph-name="numbersign" horiz-adv-x="1449" d="M104 446L156 610H471L561 891H244L297 1055H618L764 1499H928L782 1055H1065L1210 1499H1374L1229 1055H1585L1532 891H1176L1085 608H1442L1393 444H1028L883 0H719L864 444L580 446L434 0H270L416
446H104ZM635 610L922 608L1012 891H725L635 610Z" />
<glyph unicode="$" glyph-name="dollar" horiz-adv-x="1169" d="M147 41L178 219Q203 219 289 215T474 208T657 205T811 238T895 356L911 459Q917 508 918 544T888 600T786 621H571Q479 621 413 649T315 722T264 819T247 924T254 1020L274 1151Q305 1352 422 1428T729
1511L758 1688H913L885 1507Q1057 1497 1251 1456L1221 1270Q852 1290 754 1290Q645 1294 585 1258T508 1118L494 1022Q482 934 512 896T649 858H868Q972 858 1040 819T1129 721T1159 591T1151 459L1133 344Q1074 -29 643 -16L616 -184H463L489 -10Q288 4 147 41Z"
/>
<glyph unicode="%" glyph-name="percent" horiz-adv-x="1972" d="M225 989L266 1247Q286 1382 353 1440T580 1499H786Q923 1499 977 1432T1012 1227L971 969Q948 828 881 772T659 715H453Q326 715 266 786T225 989ZM406 999Q396 938 414 915T496 891H668Q738 891
762 913T799 999L831 1214Q841 1282 824 1302T739 1323H569Q499 1323 474 1301T438 1214L406 999ZM436 0L1583 1499H1765L625 0H436ZM1198 272L1239 530Q1259 667 1326 726T1552 786H1759Q2025 786 1985 512L1946 254Q1923 115 1855 59T1630 2H1423Q1296 2 1237
72T1198 272ZM1378 287Q1368 224 1386 201T1470 178H1640Q1710 178 1735 201T1772 287L1804 502Q1814 570 1797 590T1712 610H1542Q1472 610 1447 588T1411 502L1378 287Z" />
<glyph unicode="&amp;" glyph-name="ampersand" horiz-adv-x="1341" d="M88 320T130 473T334 750L522 893L434 1047Q371 1162 392 1258T486 1417T649 1491Q911 1524 1214 1454L1188 1286H821Q686 1286 648 1241T676 1069L989 522L1266 764L1337 676L1194 430L1098
338L1294 0H1038L918 205L766 76Q688 10 579 -8T358 17T180 168Q88 320 130 473ZM375 293Q426 219 509 208T668 260L811 385L618 707L471 594Q271 445 375 293Z" />
<glyph unicode="&apos;" glyph-name="quotesingle" horiz-adv-x="430" d="M291 1087L311 1362L334 1499H573L551 1362L487 1087H291Z" />
<glyph unicode="(" glyph-name="parenleft" horiz-adv-x="739" d="M207 227T210 366T236 647Q267 833 331 1012T465 1314T599 1531T706 1672L748 1718H987Q971 1698 943 1662T840 1510T701 1272T571 973T473 625Q440 428 445 261T481 -42T547 -273T610 -421L639
-473H410Q404 -465 394 -448T356 -373T305 -252T256 -87T219 120Z" />
<glyph unicode=")" glyph-name="parenright" horiz-adv-x="743" d="M-33 -473Q-17 -455 11 -419T114 -270T253 -35T384 266T481 623Q512 813 508 979T473 1281T408 1514T344 1665L315 1718H545Q551 1708 561 1691T599 1614T649 1490T696 1323T733 1117T743 875T719
600Q686 407 624 226T494 -77T364 -292T261 -429L221 -473H-33Z" />
<glyph unicode="*" glyph-name="asterisk" horiz-adv-x="882" d="M268 1159L285 1262L578 1315L561 1149L268 1159ZM346 850L438 1128L594 1090L436 819L346 850ZM555 963L668 1102L866 918L795 834L555 963ZM580 1473L684 1509L788 1262L625 1196L580 1473ZM684
1169L954 1329L993 1241L768 1042L684 1169Z" />
<glyph unicode="+" glyph-name="plus" horiz-adv-x="1013" d="M178 625L213 834H532L582 1155H791L741 834H1065L1030 625H707L655 303H446L498 625H178Z" />
<glyph unicode="," glyph-name="comma" horiz-adv-x="538" d="M129 -180L143 -94Q204 -94 215 -37L221 0H199Q148 0 156 51L180 205Q188 260 240 260H387Q436 260 428 205L391 -23Q381 -82 350 -121T284 -171T212 -186T153 -185L129 -180Z" />
<glyph unicode="-" glyph-name="hyphen" horiz-adv-x="724" d="M123 489L158 698H801L766 489H123Z" />
<glyph unicode="." glyph-name="period" horiz-adv-x="542" d="M154 47L180 207Q186 258 238 258H389Q442 258 432 207L406 47Q398 0 348 0H197Q148 0 154 47Z" />
<glyph unicode="/" glyph-name="slash" horiz-adv-x="892" d="M10 -147L858 1577H1106L258 -147H10Z" />
<glyph unicode="0" glyph-name="zero" horiz-adv-x="1296" d="M176 352L301 1139Q358 1499 711 1499H1047Q1231 1499 1307 1397T1360 1147L1235 352Q1206 172 1108 86T836 0H500Q330 0 239 88T176 352ZM410 326T418 291T453 243T501 226T563 223H811Q975 223 1001
381L1118 1118Q1130 1202 1101 1239T985 1276H725Q557 1276 535 1118L418 383Q410 326 418 291Z" />
<glyph unicode="1" glyph-name="one" horiz-adv-x="751" d="M254 1169L279 1327Q365 1327 470 1390T616 1499H850L614 0H377L575 1241Q530 1208 440 1189T254 1169Z" />
<glyph unicode="2" glyph-name="two" horiz-adv-x="1206" d="M84 0L119 211Q209 266 308 332T542 499T780 693T964 888T1057 1069Q1073 1184 1022 1239T838 1294H274L303 1470Q620 1519 928 1520Q1133 1520 1225 1384T1294 1051Q1284 953 1215 840T1069 645T871
463T696 324T553 223H1155L1120 0H84Z" />
<glyph unicode="3" glyph-name="three" horiz-adv-x="1202" d="M70 43L98 211H651Q866 211 891 369L905 455Q909 486 910 510T905 552T893 582T872 604T845 617T811 626T774 630T731 633L293 649L324 840L766 858Q875 862 930 901T999 1024L1014 1122Q1028 1216
979 1248T834 1280H254L279 1446Q369 1477 484 1490T710 1504T948 1503Q1104 1499 1193 1397T1255 1137L1237 1016Q1198 778 1042 745Q1112 714 1137 632T1145 430L1126 330Q1075 -14 694 -14H620H540Q524 -14 468 -13T392 -11T325 -7T254 0T193 10T128 24T70 43Z"
/>
<glyph unicode="4" glyph-name="four" horiz-adv-x="1257" d="M106 459L848 1499H1122L471 578H909L969 950L1065 1106H1235L1151 578H1313L1284 393L1114 348L1061 4H819L872 348H158L106 459Z" />
<glyph unicode="5" glyph-name="five" horiz-adv-x="1226" d="M137 39L168 223H762Q854 223 896 272T946 385L973 549Q1002 719 848 719H614Q555 719 509 685T453 586H227L416 1499H1311L1276 1276H610L528 881Q585 928 696 936Q757 942 934 934Q1084 930 1159
825T1212 559L1180 332Q1149 139 1039 66T760 -10Q551 -10 438 -2T137 39Z" />
<glyph unicode="6" glyph-name="six" horiz-adv-x="1255" d="M207 248T205 403T236 801Q295 1174 422 1336T702 1507Q1009 1525 1335 1468L1307 1288H766Q561 1288 485 856Q708 897 950 897Q1032 899 1092 878T1182 820T1230 738T1247 644T1241 549L1204 303Q1177
133 1075 67T803 0H508Q422 0 361 35T253 159ZM457 682Q381 219 592 219H805Q955 219 979 362L1006 543Q1020 627 995 654T885 682H457Z" />
<glyph unicode="7" glyph-name="seven" horiz-adv-x="1128" d="M254 1276L289 1499H1245L1294 1380L561 0H295L983 1276H254Z" />
<glyph unicode="8" glyph-name="eight" horiz-adv-x="1282" d="M172 240T174 274T182 348L207 516Q223 612 281 667T424 735Q252 805 291 1036L311 1169Q342 1366 448 1437T741 1509H1049Q1213 1509 1289 1413T1339 1141L1319 1022Q1317 999 1307 969T1275 901T1214
836T1122 797Q1202 774 1227 684T1239 508L1210 324Q1192 213 1153 145T1052 46T938 8T807 0H502Q400 0 330 27T230 93T186 185ZM422 352Q410 276 442 247T569 217H801Q955 217 973 352L1001 520Q1011 590 978 626T877 662H627Q471 662 449 520L422 352ZM526 1012Q514
932 555 900T659 868H907Q1057 868 1077 1012L1096 1124Q1112 1224 1083 1259T971 1294H739Q643 1294 601 1257T543 1124L526 1012Z" />
<glyph unicode="9" glyph-name="nine" horiz-adv-x="1253" d="M158 39L186 219H729Q792 219 843 262T926 375T977 512T1010 651Q793 612 543 608Q443 608 375 642T283 728T249 843T254 965L291 1196Q318 1368 419 1437T690 1507H985Q1073 1507 1134 1471T1242
1342T1289 1092T1257 692Q1151 20 793 0Q457 -20 158 39ZM489 965Q475 881 500 853T610 825H1038Q1052 944 1057 1046T1025 1218T903 1288H688Q538 1288 516 1145L489 965Z" />
<glyph unicode=":" glyph-name="colon" horiz-adv-x="544" d="M154 47L180 207Q186 258 238 258H389Q442 258 432 207L406 47Q398 0 348 0H197Q148 0 154 47ZM287 879L311 1038Q317 1089 369 1090H520Q573 1090 563 1038L539 879Q531 832 479 831H328Q281 832 287 879Z" />
<glyph unicode=";" glyph-name="semicolon" horiz-adv-x="544" d="M129 -180L143 -94Q204 -94 215 -37L221 0H199Q179 0 166 14T156 51L180 205Q184 228 200 244T240 260H387Q436 260 428 205L391 -23Q381 -82 350 -121T284 -171T212 -186T153 -185L129 -180ZM289
879L313 1038Q319 1089 371 1090H522Q575 1090 565 1038L541 879Q533 832 483 831H332Q283 832 289 879Z" />
<glyph unicode="&lt;" glyph-name="less" horiz-adv-x="937" d="M182 608L219 838L1034 1147L999 918L449 715L934 502L897 279L182 608Z" />
<glyph unicode="=" glyph-name="equal" horiz-adv-x="956" d="M102 397L137 606H1012L977 397H102ZM170 834L205 1042H1079L1044 834H170Z" />
<glyph unicode="&gt;" glyph-name="greater" horiz-adv-x="940" d="M131 279L168 510L725 731L231 930L268 1147L985 838L950 608L131 279Z" />
<glyph unicode="?" glyph-name="question" horiz-adv-x="1107" d="M238 1294L266 1466Q620 1523 852 1513Q1055 1513 1150 1395T1219 1114L1192 928Q1159 715 1026 640T657 592Q657 590 650 544T636 451T629 399H424L483 774Q612 770 737 774Q821 778 881 821T956
952L979 1098Q995 1204 946 1249T764 1294H238ZM346 47L371 207Q377 258 428 258H580Q633 258 623 207L598 47Q590 0 541 0H389Q340 0 346 47Z" />
<glyph unicode="@" glyph-name="at" horiz-adv-x="1814" d="M115 53L274 1067Q337 1460 760 1460H1513Q1706 1460 1782 1344T1827 1024L1724 336Q1716 273 1698 223T1641 119T1527 36T1348 6H1188L1139 123Q1033 -8 850 -8Q451 -8 539 575Q623 1116 999 1116Q1325
1116 1464 983L1352 209Q1434 209 1472 242T1528 393L1624 1038Q1626 1089 1630 1126T1621 1187T1599 1226T1565 1247T1522 1255T1473 1257H719Q508 1257 475 1038L317 41Q301 -61 337 -120T494 -180H1284L1260 -326Q984 -381 662 -381H467Q260 -381 172 -257T115
53ZM735 535Q712 353 740 273T879 193Q1045 195 1161 324L1249 891Q1149 916 995 915Q899 915 832 834T735 535Z" />
<glyph unicode="A" glyph-name="A" horiz-adv-x="1386" d="M78 0L838 1499H1100L1364 0H1122L1055 362H524L340 0H78ZM627 580H1026L926 1186L627 580Z" />
<glyph unicode="B" glyph-name="B" horiz-adv-x="1224" d="M139 0L377 1499H975Q1086 1499 1161 1463T1274 1367T1322 1236Q1328 1199 1327 1159Q1327 1123 1323 1085Q1307 956 1238 877T1071 778Q1147 766 1200 664Q1240 587 1240 482Q1240 446 1235 408Q1206
193 1091 97T739 0H139ZM412 217H768Q961 217 997 442Q1002 473 1002 501Q1002 565 976 613Q940 682 840 682H485L412 217ZM520 891H866Q1054 891 1085 1087Q1089 1118 1089 1144Q1090 1211 1060 1241Q1018 1282 932 1282H582L520 891Z" />
<glyph unicode="C" glyph-name="C" horiz-adv-x="1173" d="M196 483Q194 516 193 550Q193 660 217 776Q248 966 291 1095T404 1323T582 1468T840 1516Q1092 1516 1346 1446L1315 1260Q1088 1292 886 1292Q869 1292 852 1292Q809 1292 792 1291T731 1280T666 1252T606
1194T547 1099T499 953T455 750Q433 626 433 530Q433 426 459 354Q508 219 672 211Q698 210 729 211Q884 211 1157 227L1128 41Q956 -12 648 -12Q626 -12 604 -12Q465 -12 373 54T244 231T196 483Z" />
<glyph unicode="D" glyph-name="D" horiz-adv-x="1351" d="M139 0L377 1497Q377 1499 967 1499Q1094 1499 1184 1448T1318 1319Q1362 1242 1382 1134Q1399 1041 1398 953Q1398 940 1398 926Q1395 826 1376 721Q1317 352 1167 176T741 0H139ZM412 219H750Q906 219
1004 362T1139 745Q1160 878 1160 976Q1160 1094 1130 1160Q1074 1282 911 1282H580L412 219Z" />
<glyph unicode="E" glyph-name="E" horiz-adv-x="1150" d="M176 287L324 1212Q369 1499 653 1499Q663 1499 672 1499Q1225 1479 1307 1466L1276 1272H678Q641 1272 617 1263T580 1235T562 1201T553 1157L506 862L1118 842L1087 647L469 629L422 328Q416 289 422
266T449 234T486 223T532 221H1112L1079 29L453 -6Q443 -6 433 -6Q318 -6 238 58Q170 112 170 220Q170 251 176 287Z" />
<glyph unicode="F" glyph-name="F" horiz-adv-x="1155" d="M135 0L324 1196Q373 1499 656 1499Q665 1499 674 1499Q1227 1479 1311 1466L1280 1272H680Q612 1272 588 1241T555 1157L510 860L1122 840L1092 645L471 625L373 0H135Z" />
<glyph unicode="G" glyph-name="G" horiz-adv-x="1253" d="M199 554Q203 663 223 782Q256 975 298 1101T409 1325T584 1468T842 1513Q849 1513 855 1513Q1081 1513 1362 1448L1333 1264Q1120 1295 854 1298Q801 1298 764 1292T677 1256T592 1170T522 1008T465
750Q441 624 441 524Q441 427 464 356Q509 213 664 213Q666 213 668 213Q734 213 812 239T937 293L983 319L1036 629H776L801 782Q944 831 1167 831Q1255 831 1305 827L1174 0H999L952 111Q829 -10 600 -12Q595 -12 590 -12Q482 -12 402 32Q319 78 275 155T213
338Q198 425 198 514Q198 534 199 554Z" />
<glyph unicode="H" glyph-name="H" horiz-adv-x="1323" d="M145 0L383 1499H621L514 836H1102L1208 1499H1446L1208 0H971L1069 614H481L383 0H145Z" />
<glyph unicode="I" glyph-name="I" horiz-adv-x="499" d="M152 0L389 1499H627L389 0H152Z" />
<glyph unicode="J" glyph-name="J" horiz-adv-x="731" d="M68 45L102 227Q188 219 260 215Q265 215 271 215Q336 215 386 260Q440 309 457 418L629 1499H866L682 338Q647 107 526 37Q441 -11 305 -11Q297 -11 289 -11Q142 -8 68 45Z" />
<glyph unicode="K" glyph-name="K" horiz-adv-x="1232" d="M139 0L377 1499H606L504 856H641L1147 1499H1438L848 731L1200 0H926L629 639H471L371 0H139Z" />
<glyph unicode="L" glyph-name="L" horiz-adv-x="1087" d="M180 279L377 1499H612L426 330Q420 291 427 268T455 236T492 225T539 223H1094L1059 0H436Q307 0 232 68Q175 120 175 216Q175 245 180 279Z" />
<glyph unicode="M" glyph-name="M" horiz-adv-x="1675" d="M117 0L475 1499H795L930 393L1403 1499H1735L1628 0H1393L1477 1083L1006 0H743L610 1081L356 0H117Z" />
<glyph unicode="N" glyph-name="N" horiz-adv-x="1361" d="M139 0L377 1499H612L1092 436L1260 1499H1497L1260 0H1026L545 1055L379 0H139Z" />
<glyph unicode="O" glyph-name="O" horiz-adv-x="1363" d="M196 501Q198 615 221 758Q244 905 276 1020T346 1214T434 1348T532 1434T649 1482T778 1504T924 1509Q1006 1509 1068 1502T1192 1474T1297 1415T1373 1319Q1408 1260 1422 1178Q1435 1106 1434 1008Q1434
995 1434 981Q1432 866 1409 721Q1384 559 1348 438T1261 238T1157 109T1027 34T880 0T709 -8Q627 -8 567 -2T444 24T338 79T260 170T210 307Q196 380 196 481Q196 491 196 501ZM434 511Q434 499 433 488Q434 412 446 360Q460 300 499 269T592 227T731 215Q864
215 943 253T1079 406T1171 739Q1195 887 1195 988Q1195 992 1195 996Q1194 1100 1179 1157T1117 1243T1026 1279T901 1286Q815 1286 769 1280T668 1246T580 1160T516 999T459 739Q436 602 434 511Z" />
<glyph unicode="P" glyph-name="P" horiz-adv-x="1220" d="M131 0L369 1499H995Q1067 1499 1128 1477T1243 1403T1316 1256Q1327 1205 1328 1142Q1328 1088 1319 1026Q1303 913 1272 829T1203 699T1120 623T1029 585T937 572Q915 569 894 570Q871 570 850 573Q787
577 631 592T467 612L369 0H131ZM494 791H868Q950 791 1003 844T1079 1044Q1086 1091 1086 1128Q1086 1202 1060 1234Q1021 1282 946 1282H571L494 791Z" />
<glyph unicode="Q" glyph-name="Q" horiz-adv-x="1370" d="M200 504Q202 619 225 762Q248 909 280 1023T350 1215T438 1349T537 1435T655 1483T783 1505T928 1509Q1010 1509 1073 1502T1198 1473T1303 1414T1379 1318T1426 1174Q1438 1103 1438 1006Q1438 992
1438 977Q1436 862 1413 717Q1384 522 1335 388T1229 177T1084 58T918 4T715 -8Q633 -8 573 -2T449 24T342 80T264 172T214 309Q200 382 200 483Q200 494 200 504ZM438 511Q438 499 438 488Q438 412 450 360Q463 299 504 269T598 227T737 215Q870 215 948 253T1083
405T1176 739Q1196 868 1201 960Q1202 986 1202 1009Q1202 1069 1193 1112Q1180 1171 1160 1207T1096 1260T1014 1282T907 1286Q835 1286 795 1282T705 1262T626 1211T563 1116T507 963T463 739Q440 602 438 511ZM612 -68H754Q808 -146 925 -146Q993 -146 1083
-119L1051 -326Q998 -343 942 -343Q921 -343 899 -340Q819 -332 754 -307T647 -218Q611 -162 611 -90Q611 -79 612 -68Z" />
<glyph unicode="R" glyph-name="R" horiz-adv-x="1241" d="M131 0L369 1499H1004Q1172 1498 1260 1384Q1325 1299 1325 1141Q1325 1085 1317 1020Q1305 911 1273 832T1209 711T1129 643T1059 610T1004 600L1217 0H950L766 584L465 606L369 0H131ZM498 795H868Q1052
795 1077 1038Q1082 1086 1082 1124Q1082 1202 1062 1234Q1034 1282 952 1282H573L498 795Z" />
<glyph unicode="S" glyph-name="S" horiz-adv-x="1179" d="M152 41L180 227Q352 207 686 207Q901 207 924 356L940 459Q944 488 944 512Q944 557 930 582Q908 621 817 621H582Q484 621 413 647T310 717Q278 760 260 811Q245 851 246 891Q246 902 247 912Q252 962
254 1004L276 1153Q292 1266 335 1340T444 1451T580 1500Q640 1511 717 1511Q729 1511 741 1511Q1058 1511 1280 1456L1251 1270Q1216 1272 1092 1277T872 1285T756 1288Q743 1288 731 1288Q634 1288 584 1260Q528 1228 512 1118L498 1022Q494 991 493 968T496
927T505 898T524 879T548 866T578 860T612 858H651H891Q987 858 1053 822T1146 730Q1172 674 1182 606Q1186 577 1186 550Q1186 513 1178 477L1161 340Q1151 244 1113 174T1029 69T916 13T798 -12T680 -16Q340 -16 152 41Z" />
<glyph unicode="T" glyph-name="T" horiz-adv-x="1198" d="M262 1276L299 1499H1382L1346 1276H918L715 0H477L680 1276H262Z" />
<glyph unicode="U" glyph-name="U" horiz-adv-x="1339" d="M220 418Q222 520 238 653L373 1499H612L475 631Q459 531 458 457Q458 355 490 303Q544 213 717 213T977 308T1098 631L1235 1499H1475L1341 610Q1290 286 1140 138T688 -10Q606 -10 540 2T413 44T313
122T246 244Q220 314 220 408Q220 413 220 418Z" />
<glyph unicode="V" glyph-name="V" horiz-adv-x="1392" d="M293 1499H543L725 330L1298 1499H1565L811 0H545L293 1499Z" />
<glyph unicode="W" glyph-name="W" horiz-adv-x="2062" d="M293 1499H539L725 338L1276 1499H1534L1315 1049L1425 332L1982 1499H2236L1511 0H1251L1145 670L817 0H545L293 1499Z" />
<glyph unicode="X" glyph-name="X" horiz-adv-x="1286" d="M70 0L629 760L303 1499H559L791 950L1194 1499H1466L893 719L1208 0H950L731 526L344 0H70Z" />
<glyph unicode="Y" glyph-name="Y" horiz-adv-x="1325" d="M293 1499H549L754 760L1223 1499H1497L836 489L758 0H520L598 489L293 1499Z" />
<glyph unicode="Z" glyph-name="Z" horiz-adv-x="1144" d="M61 0L96 223L991 1276H262L299 1499H1323L1286 1276L406 223H1120L1085 0H61Z" />
<glyph unicode="[" glyph-name="bracketleft" horiz-adv-x="673" d="M137 -264T131 -192T139 -63L367 1350Q396 1520 477 1600T750 1681H913L881 1473H752Q689 1473 652 1438T600 1311L377 -78Q359 -191 379 -227T473 -264H604L571 -473H397Q299 -473 237 -431T156 -327Z" />
<glyph unicode="\" glyph-name="backslash" horiz-adv-x="876" d="M283 1577H518L821 -147H586L283 1577Z" />
<glyph unicode="]" glyph-name="bracketright" horiz-adv-x="669" d="M-33 -473L0 -264H129Q192 -264 229 -230T283 -102L502 1286Q520 1399 499 1436T403 1473H274L309 1681H475Q569 1681 631 1644T715 1548T745 1419T739 1284L522 -141Q497 -303 419 -388T145
-473H-33Z" />
<glyph unicode="^" glyph-name="asciicircum" horiz-adv-x="792" d="M258 1087L530 1362H719L879 1087H707L614 1231L465 1087H258Z" />
<glyph unicode="_" glyph-name="underscore" horiz-adv-x="1378" d="M45 -2L80 207H1378L1343 -2H45Z" />
<glyph unicode="`" glyph-name="grave" horiz-adv-x="512" d="M250 1368H471L649 1087H479L250 1368Z" />
<glyph unicode="a" glyph-name="a" horiz-adv-x="1107" d="M166 594Q191 723 232 818T319 965T428 1049T540 1091T653 1108Q682 1110 713 1111Q816 1110 938 1084Q1096 1050 1169 981L1026 2H846L809 117Q764 70 662 29T461 -12Q143 -12 143 364Q143 465 166 594ZM396
281Q426 197 528 197Q620 197 686 221T829 297L918 883Q813 915 729 915Q688 915 651 907Q600 897 571 885T504 837T441 729T397 541Q381 452 381 386Q381 322 396 281Z" />
<glyph unicode="b" glyph-name="b" horiz-adv-x="1136" d="M104 0L358 1608H594L502 1028Q684 1104 862 1104Q975 1104 1043 1055T1135 916T1159 729T1139 510Q1119 385 1090 298T1012 134Q963 56 883 20Q811 -13 715 -12Q705 -12 694 -12Q602 -8 504 32T358 115L293
0H104ZM385 276Q512 199 676 199Q678 199 680 199Q770 199 821 279T901 545Q921 654 921 730Q922 781 912 817Q890 905 791 905Q621 905 477 860L385 276Z" />
<glyph unicode="c" glyph-name="c" horiz-adv-x="1009" d="M168 565Q197 741 242 854T349 1019T470 1087T614 1104Q704 1104 847 1087T1094 1040L1069 887Q844 903 662 903Q605 903 575 895T510 853T451 744T403 539Q386 436 386 367T403 261Q438 188 547 188L977
209L952 53Q756 -12 476 -12Q464 -12 451 -12Q283 -10 201 130Q150 218 150 366Q150 455 168 565Z" />
<glyph unicode="d" glyph-name="d" horiz-adv-x="1126" d="M159 288Q155 333 155 381Q155 469 168 567Q188 690 216 778T294 945T424 1064T614 1104Q796 1104 958 1028L1051 1608H1286L1030 0H842L811 115Q745 70 644 29T453 -12Q324 -12 247 74T159 288ZM408
545Q393 456 393 390Q393 199 520 199Q686 199 838 276L930 860Q803 905 631 905Q549 905 496 831T408 545Z" />
<glyph unicode="e" glyph-name="e" horiz-adv-x="1077" d="M170 598Q190 709 213 780T274 919T369 1025T512 1085T717 1108Q813 1108 888 1093T1023 1044T1111 948Q1132 901 1132 837Q1132 817 1130 795Q1120 682 1067 601T937 482T774 426Q704 411 636 411Q621
411 606 412Q524 416 468 423T389 440Q378 378 378 332Q378 270 398 240Q432 186 543 184Q584 181 628 181Q794 181 1010 217L983 45Q776 -16 527 -16Q482 -16 436 -14Q241 -8 178 144Q144 225 144 350Q144 458 170 598ZM412 600Q430 598 460 595Q478 593 512 593Q535
593 567 594Q645 596 706 610T823 666T889 770Q892 789 892 806Q892 860 858 880Q816 906 715 905Q708 905 700 905Q618 905 564 884T483 817T442 730T416 624Q414 608 412 600Z" />
<glyph unicode="f" glyph-name="f" horiz-adv-x="827" d="M174 893L201 1051L391 1087L412 1206Q447 1429 529 1518T791 1608Q938 1608 1040 1559L1018 1415H815Q725 1415 696 1368T641 1163L629 1087H920L889 893H598L451 0H213L358 893H174Z" />
<glyph unicode="g" glyph-name="g" horiz-adv-x="1136" d="M53 -508L78 -350H563Q641 -350 697 -300T768 -156L803 70Q645 -8 489 -8Q262 -8 196 148Q155 242 155 385Q155 477 172 590Q254 1104 641 1104Q932 1104 1198 1049L1004 -176Q971 -379 853 -477Q753
-560 607 -560Q580 -560 551 -557L53 -508ZM398 291Q424 191 539 190Q678 190 829 238L938 909H662Q467 909 412 565Q392 433 392 357Q392 315 398 291Z" />
<glyph unicode="h" glyph-name="h" horiz-adv-x="1120" d="M104 0L358 1604H596L494 967Q654 1061 730 1084Q804 1106 883 1106Q1052 1106 1116 1002Q1161 929 1161 828Q1161 785 1153 737L1036 0H799L915 739Q919 765 919 788Q919 905 799 905Q707 905 640 883T469
803L342 0H104Z" />
<glyph unicode="i" glyph-name="i" horiz-adv-x="438" d="M100 0L272 1087H510L338 0H100ZM283 1253L307 1409Q313 1460 365 1460H539Q577 1460 576 1425Q576 1418 575 1409L553 1253Q547 1206 498 1206H324Q282 1206 282 1243Q282 1248 283 1253Z" />
<glyph unicode="j" glyph-name="j" horiz-adv-x="477" d="M33 -553L293 1087H530L356 -8Q305 -352 203 -553H33ZM303 1253L328 1409Q334 1460 385 1460H559Q599 1460 599 1423Q599 1416 598 1409L573 1253Q567 1206 518 1206H344Q302 1206 302 1243Q302 1248 303 1253Z" />
<glyph unicode="k" glyph-name="k" horiz-adv-x="1054" d="M104 0L358 1602H596L449 676Q582 721 723 845T897 1087H1153Q1104 917 975 783T725 590L1087 0H817L502 518L424 516L342 0H104Z" />
<glyph unicode="l" glyph-name="l" horiz-adv-x="616" d="M162 387L354 1604H592L406 416Q393 359 393 318Q393 298 396 282Q406 234 421 221T475 195Q600 156 606 156L582 0H414Q152 0 152 271Q152 324 162 387Z" />
<glyph unicode="m" glyph-name="m" horiz-adv-x="1808" d="M104 0L276 1087H461L496 965Q502 969 537 990T581 1017T621 1039T666 1061T709 1076T760 1090T812 1098T872 1102Q968 1102 1037 1059T1130 944Q1357 1102 1571 1102Q1726 1102 1796 1000Q1847 926 1846
818Q1846 777 1839 731L1724 0H1487L1604 733Q1607 753 1607 771Q1607 823 1581 856Q1546 901 1485 901Q1301 901 1155 805Q1155 803 1150 768T1145 729L1028 0H791L907 733Q910 753 910 771Q910 823 884 856Q850 901 788 901Q696 901 634 880T467 799L342 0H104Z"
/>
<glyph unicode="n" glyph-name="n" horiz-adv-x="1120" d="M104 0L276 1087H461L496 967Q578 1018 614 1037T728 1081T883 1106Q1052 1106 1116 1002Q1161 929 1161 828Q1161 785 1153 737L1036 0H799L915 739Q919 765 919 788Q919 905 799 905Q707 905 640 883T469
803L342 0H104Z" />
<glyph unicode="o" glyph-name="o" horiz-adv-x="1146" d="M168 547Q219 875 342 987T743 1100Q1008 1100 1102 958Q1164 864 1164 699Q1164 614 1147 510Q1098 207 981 99T586 -10Q316 -10 218 122Q152 211 153 373Q153 452 168 547ZM392 376Q392 373 392 371Q392
312 402 278Q414 242 444 224T511 199T604 193Q680 193 721 201T802 242T865 344T909 528Q927 637 927 710Q927 789 906 827Q866 899 717 899Q639 899 594 888T510 837T449 725T406 528Q392 438 392 376Z" />
<glyph unicode="p" glyph-name="p" horiz-adv-x="1140" d="M16 -553L281 1053Q514 1096 831 1096Q942 1096 1017 1046T1120 913T1157 726Q1159 696 1159 665Q1159 589 1145 508Q1110 254 1000 118T680 -18Q481 -18 352 59L254 -553H16ZM381 227Q486 177 592 177Q631
177 670 184Q762 194 819 266T909 547Q922 628 922 691Q922 901 774 901H492L381 227Z" />
<glyph unicode="q" glyph-name="q" horiz-adv-x="1132" d="M172 569Q254 1101 649 1102Q930 1102 1196 1047L944 -553H707L803 59Q645 -20 487 -20H483Q262 -20 194 133Q154 225 154 363Q154 456 172 569ZM388 356Q387 342 387 329Q387 296 393 278Q401 254 416
227T463 189T539 178Q678 178 829 225L936 907H653Q461 907 410 553Q400 479 396 445T388 356Z" />
<glyph unicode="r" glyph-name="r" horiz-adv-x="862" d="M104 0L276 1087H469L492 950Q564 997 606 1023T721 1074T862 1100Q956 1100 991 1085L954 854Q901 862 801 862Q699 862 623 836T459 741L342 0H104Z" />
<glyph unicode="s" glyph-name="s" horiz-adv-x="1040" d="M121 35L145 190H676Q762 190 776 274L788 350Q791 364 791 376Q791 400 780 414Q764 436 715 436H449Q176 436 176 662Q176 695 182 733L199 834Q222 969 297 1036T526 1104Q966 1104 1083 1057L1059
899H551Q449 899 434 809L424 735Q426 715 421 700T425 675T435 660T451 651T470 649H490H510H782Q923 649 987 566Q1035 504 1036 418Q1036 390 1030 360L1012 233Q1002 170 977 123T923 50T853 8T778 -12T702 -16Q546 -16 357 -3T121 35Z" />
<glyph unicode="t" glyph-name="t" horiz-adv-x="770" d="M168 895L190 1038L385 1090L477 1393H670L623 1090H893L862 895H592L516 416Q510 346 506 307Q505 298 505 290Q505 262 516 244Q530 220 543 212T586 195Q713 156 719 156L694 0H518Q264 0 264 269Q264
323 274 387L354 895H168Z" />
<glyph unicode="u" glyph-name="u" horiz-adv-x="1118" d="M143 352L258 1087H496L379 348Q375 320 375 297Q374 245 396 220Q428 184 498 184Q592 184 659 206T827 287L952 1087H1190L1018 0H831L801 119Q721 70 679 48T563 4T412 -18Q242 -18 179 83Q135 154
135 257Q135 302 143 352Z" />
<glyph unicode="v" glyph-name="v" horiz-adv-x="1079" d="M178 1087H430L582 270L885 883Q932 981 946 1090H1159Q1167 1052 1167 1013Q1167 919 1118 817L696 0H403L178 1087Z" />
<glyph unicode="w" glyph-name="w" horiz-adv-x="1673" d="M178 1087H426L573 279L879 879Q926 977 940 1085H1145Q1156 1044 1156 1003Q1156 931 1124 856L1081 760L1174 285L1487 883Q1534 981 1548 1090H1755Q1765 1048 1765 1006Q1765 911 1714 817L1268 0H1012L918
475L680 0H403L178 1087Z" />
<glyph unicode="x" glyph-name="x" horiz-adv-x="1136" d="M41 0L512 557L213 1087H494L678 729L975 1087H1268L797 518L1085 0H811L629 348L342 0H41Z" />
<glyph unicode="y" glyph-name="y" horiz-adv-x="1142" d="M180 1087H426L516 295Q526 215 635 215L952 885Q989 965 1006 1092H1219Q1230 1049 1230 1005Q1230 912 1182 813L795 2Q555 -508 193 -575V-408Q394 -291 543 0Q443 0 370 60T281 258L180 1087Z" />
<glyph unicode="z" glyph-name="z" horiz-adv-x="956" d="M82 2L113 209L737 879H195L223 1087H1077L1049 879L440 211H938L905 2H82Z" />
<glyph unicode="{" glyph-name="braceleft" horiz-adv-x="655" d="M127 559L158 748Q199 750 215 751T264 760T314 788T336 842L412 1323Q469 1681 893 1681L860 1473Q764 1475 711 1424T637 1243L571 831Q546 671 352 643Q434 629 478 579T510 457L434 -16Q411
-159 448 -216T586 -270L553 -473Q330 -473 246 -352T193 -45L270 438Q280 495 237 529T127 559Z" />
<glyph unicode="|" glyph-name="bar" horiz-adv-x="503" d="M125 -147L397 1577H606L334 -147H125Z" />
<glyph unicode="}" glyph-name="braceright" horiz-adv-x="649" d="M-33 -473L0 -270Q94 -272 147 -222T221 -51L295 406Q318 556 510 590Q426 600 383 650T354 780L422 1206Q447 1360 411 1418T274 1473L309 1681Q524 1681 607 1556T659 1243L594 795Q586 738
631 705T739 674L709 487Q660 487 630 483T569 457T530 391L449 -109Q416 -299 303 -386T-33 -473Z" />
<glyph unicode="~" glyph-name="asciitilde" horiz-adv-x="870" d="M274 1190Q280 1194 304 1215T336 1243T365 1265T397 1288T428 1305T464 1321T499 1329T541 1333Q586 1333 645 1298T745 1262Q823 1262 950 1343L981 1235L963 1218Q945 1201 942 1198T920 1179T895
1158T871 1140T843 1122T817 1109T786 1097T757 1091T725 1087Q678 1087 612 1123T506 1159Q477 1159 450 1152T405 1137T356 1112T305 1087L274 1190Z" />
</font>
</defs>
</svg>
