<?xml version="1.0" standalone="no"?> <!DOCTYPE svg PUBLIC "-//W3C//DTD SVG 1.0//EN" "http://www.w3.org/TR/2001/REC-SVG-20010904/DTD/svg10.dtd" > <svg xmlns="http://www.w3.org/2000/svg" width="100%" height="100%">
<defs >
<font id="exo-regular" horiz-adv-x="1060" ><font-face
    font-family="Exo"
    units-per-em="2048"
    panose-1="2 0 5 3 0 0 0 0 0 0"
    ascent="2052"
    descent="-596"
    alphabetic="0" />
<missing-glyph horiz-adv-x="2048" />
<glyph unicode=" " glyph-name="space" horiz-adv-x="512" />
<glyph unicode="!" glyph-name="exclam" horiz-adv-x="550" d="M168 47V164Q168 215 217 215H330Q377 215 377 164V47Q377 0 330 0H217Q168 0 168 47ZM180 1497H362L348 401H195L180 1497Z" />
<glyph unicode="&quot;" glyph-name="quotedbl" horiz-adv-x="778" d="M174 1362V1499H328V1362L307 1087H197L174 1362ZM451 1362V1499H604V1362L584 1087H473L451 1362Z" />
<glyph unicode="#" glyph-name="numbersign" horiz-adv-x="1406" d="M41 475L57 582H383L436 920H111L129 1026H453L528 1499H635L559 1026H899L973 1499H1079L1006 1026H1368L1350 920H987L934 580H1296L1280 473H918L842 0H735L811 473L471 475L395 0H289L365
475H41ZM489 582L827 580L881 920H543L489 582Z" />
<glyph unicode="$" glyph-name="dollar" horiz-adv-x="1177" d="M113 1012V1147Q115 1350 216 1428T500 1511V1688H618V1505Q694 1499 843 1482T1010 1462V1343L518 1362Q459 1364 417 1358T338 1331T283 1263T264 1147V1012Q264 811 477 811H743Q843 811 911
782T1010 697T1053 586T1065 459V319Q1065 217 1027 147T923 40T782 -8T618 -16V-184H500V-6Q424 2 296 18T160 35V147Q187 147 364 141T649 135Q913 135 913 319V459Q913 660 743 659H477Q371 659 295 690T181 775T128 886T113 1012Z" />
<glyph unicode="%" glyph-name="percent" horiz-adv-x="1955" d="M86 971V1243Q86 1378 143 1438T350 1499H557Q702 1499 759 1439T817 1243V971Q817 836 760 776T553 715H346Q201 715 144 775T86 971ZM219 971Q219 897 245 873T346 848H553Q639 848 661 872T684
971V1243Q684 1317 658 1341T557 1366H350Q266 1366 243 1342T219 1243V971ZM465 0L1362 1499H1507L610 0H465ZM1139 260V532Q1139 667 1196 727T1403 788H1610Q1755 788 1812 728T1870 532V260Q1870 125 1813 65T1606 4H1399Q1254 4 1197 64T1139 260ZM1272 260Q1272
186 1298 162T1399 137H1606Q1692 137 1714 161T1737 260V532Q1737 606 1710 630T1610 655H1403Q1319 655 1296 631T1272 532V260Z" />
<glyph unicode="&amp;" glyph-name="ampersand" horiz-adv-x="1304" d="M49 318T72 475T233 750L410 899L281 1073Q203 1186 214 1277T286 1427T424 1495Q688 1520 969 1454V1352H553Q461 1352 414 1331T371 1252T442 1102L924 451L1157 694L1204 645L1100 426L1016
334L1255 0H1075L907 227L760 90Q637 -27 452 -7T160 168Q49 318 72 475ZM289 250Q355 166 459 145T651 195L815 348L496 774L336 641Q121 465 289 250Z" />
<glyph unicode="&apos;" glyph-name="quotesingle" horiz-adv-x="378" d="M113 1362V1499H266V1362L246 1087H135L113 1362Z" />
<glyph unicode="(" glyph-name="parenleft" horiz-adv-x="686" d="M154 668Q154 826 187 995T268 1296T363 1536T445 1703L479 1761H645Q631 1738 609 1700T528 1538T424 1292T342 996T305 668Q305 180 566 -298Q612 -381 645 -430H479Q467 -412 445 -378T366
-232T266 2T189 305T154 668Z" />
<glyph unicode=")" glyph-name="parenright" horiz-adv-x="686" d="M41 -430Q55 -410 77 -374T158 -221T262 16T344 316T381 668Q381 1117 114 1631Q41 1762 41 1761H207Q219 1738 241 1700T320 1539T420 1294T497 998T532 668Q532 488 499 308T417 0T322 -228T241
-380L207 -430H41Z" />
<glyph unicode="*" glyph-name="asterisk" horiz-adv-x="901" d="M102 1159V1241L387 1300L397 1149L102 1159ZM242 848L291 1124L438 1090L317 823L242 848ZM360 1468L440 1501L594 1260L455 1196L360 1468ZM426 975L510 1102L735 915L692 850L426 975ZM514 1169L760
1325L799 1253L612 1055L514 1169Z" />
<glyph unicode="+" glyph-name="plus" horiz-adv-x="1056" d="M102 653V805H451V1155H602V805H954V653H602V303H451V653H102Z" />
<glyph unicode="," glyph-name="comma" horiz-adv-x="552" d="M174 51V162Q174 217 225 217H330Q379 217 379 162V-23Q379 -170 241 -182L184 -180V-115Q247 -117 248 -51V0H225Q174 0 174 51Z" />
<glyph unicode="-" glyph-name="hyphen" horiz-adv-x="724" d="M41 518V670H684V518H41Z" />
<glyph unicode="." glyph-name="period" horiz-adv-x="557" d="M174 47V164Q174 215 223 215H332Q383 215 383 164V47Q383 0 332 0H223Q174 0 174 47Z" />
<glyph unicode="/" glyph-name="slash" horiz-adv-x="819" d="M41 -147L616 1577H778L203 -147H41Z" />
<glyph unicode="0" glyph-name="zero" horiz-adv-x="1316" d="M143 332V1167Q143 1327 242 1413T496 1499H831Q1007 1499 1090 1406T1174 1167V332Q1174 0 831 0H496Q342 0 243 80T143 332ZM295 332Q295 238 353 195T496 152H831Q1021 152 1022 332V1167Q1022
1347 831 1348H496Q394 1348 345 1298T295 1167V332Z" />
<glyph unicode="1" glyph-name="one" horiz-adv-x="741" d="M82 1217V1325L426 1499H578V0H426V1327L82 1217Z" />
<glyph unicode="2" glyph-name="two" horiz-adv-x="1222" d="M82 1366V1479Q404 1520 705 1520Q912 1520 1016 1393T1120 1090Q1120 977 1057 848T907 616T709 409T524 249T389 152H1120V0H96V139Q186 200 274 265T496 441T727 655T895 877T967 1094Q967 1215
902 1290T702 1366H82Z" />
<glyph unicode="3" glyph-name="three" horiz-adv-x="1216" d="M61 1352V1446Q145 1477 257 1490T477 1504T713 1503Q877 1501 970 1406T1063 1165V1024Q1063 799 928 745Q1063 659 1063 451V330Q1063 -14 698 -14H622H544Q530 -14 475 -13T400 -11T333 -7T263
0T201 10T133 24T74 43L76 139H686Q733 139 767 145T835 170T888 228T907 330V451Q907 660 698 668L201 682V801L698 821Q911 831 911 1024V1165Q911 1257 849 1304T698 1352H61Z" />
<glyph unicode="4" glyph-name="four" horiz-adv-x="1234" d="M41 459L698 1499H879L276 543H858V967L934 1120H1010V543H1194V422L1010 383V4H858V383H111L41 459Z" />
<glyph unicode="5" glyph-name="five" horiz-adv-x="1234" d="M156 41V154H778Q874 154 918 209T963 344V569Q963 606 959 629T939 689T883 743T778 762H463Q395 762 345 723T295 608H160L205 1499H1069V1348H344L319 852Q358 899 471 913Q520 919 579 919T700
917T778 913Q952 913 1033 822T1114 573V340Q1114 242 1081 169T993 61T885 9T778 -8Q571 -8 461 0T156 41Z" />
<glyph unicode="6" glyph-name="six" horiz-adv-x="1275" d="M133 786Q133 1161 236 1336T485 1511Q819 1511 1104 1473V1360H512Q446 1360 399 1305T330 1159T297 991T285 834Q652 877 823 877Q1013 877 1083 795T1153 571V303Q1153 -2 823 -2H518Q428 -2 363
32T243 149T161 391T133 786ZM285 725Q285 662 287 614T295 492T317 364T357 257T423 178T518 150H823Q913 150 958 182T1004 315V571Q1004 725 823 725H285Z" />
<glyph unicode="7" glyph-name="seven" horiz-adv-x="1118" d="M61 1348V1499H1001L1057 1401L514 0H334L862 1348H61Z" />
<glyph unicode="8" glyph-name="eight" horiz-adv-x="1298" d="M154 315V516Q154 586 182 634T243 700T328 735Q238 766 196 847T154 1022V1155Q154 1350 248 1429T514 1509H813Q981 1509 1063 1425T1145 1155V1022Q1147 997 1143 969T1126 899T1077 827T991 784Q1067
770 1107 684T1145 516V315Q1145 221 1112 155T1025 57T920 13T811 0H514Q414 0 342 25T235 85T180 169T157 248T154 315ZM305 309Q305 151 514 152H811Q885 152 939 192T993 309V524Q993 606 942 648T817 690H492Q412 690 359 651T305 524V309ZM305 1012Q305 920
363 880T492 840H817Q993 840 993 1012V1151Q993 1262 949 1310T813 1358H514Q403 1358 354 1319T305 1151V1012Z" />
<glyph unicode="9" glyph-name="nine" horiz-adv-x="1275" d="M123 938V1206Q123 1511 453 1511H758Q848 1511 913 1478T1033 1360T1115 1117T1143 723Q1143 348 1040 173T791 -2Q361 -2 172 37V150H764Q830 150 877 205T946 350T979 518T991 676Q626 633 453
633Q263 633 193 715T123 938ZM272 938Q272 784 453 784H991Q991 847 989 895T981 1018T959 1146T919 1252T853 1332T758 1360H453Q363 1360 318 1327T272 1194V938Z" />
<glyph unicode=":" glyph-name="colon" horiz-adv-x="557" d="M174 47V164Q174 215 223 215H332Q383 215 383 164V47Q383 0 332 0H223Q174 0 174 47ZM174 922V1038Q174 1089 223 1090H332Q383 1090 383 1038V922Q383 875 332 874H223Q174 875 174 922Z" />
<glyph unicode=";" glyph-name="semicolon" horiz-adv-x="561" d="M174 51V162Q174 185 188 201T225 217H330Q353 217 366 202T379 162V-23Q379 -170 241 -182L184 -180V-115Q247 -117 248 -51V0H225Q205 0 190 16T174 51ZM178 924V1040Q178 1091 227 1092H336Q387
1092 387 1040V924Q387 877 336 877H227Q178 877 178 924Z" />
<glyph unicode="&lt;" glyph-name="less" horiz-adv-x="972" d="M102 643V807L870 1139V975L305 725L870 455V287L102 643Z" />
<glyph unicode="=" glyph-name="equal" horiz-adv-x="956" d="M41 434V586H915V434H41ZM41 862V1014H915V862H41Z" />
<glyph unicode="&gt;" glyph-name="greater" horiz-adv-x="972" d="M102 287V455L668 725L102 975V1139L870 807V643L102 287Z" />
<glyph unicode="?" glyph-name="question" horiz-adv-x="1107" d="M41 1360V1473Q68 1477 139 1486T231 1497T320 1506T410 1513T508 1516T618 1513Q835 1513 930 1408T1026 1135V928Q1026 729 888 650T528 606V399H375V731H666Q752 735 814 784T877 928V1135Q877
1254 811 1307T596 1360H41ZM348 47V164Q348 215 397 215H510Q557 215 557 164V47Q557 0 510 0H397Q348 0 348 47Z" />
<glyph unicode="@" glyph-name="at" horiz-adv-x="1728" d="M133 0V713Q133 748 136 777T157 861T209 952T311 1019T477 1049H918Q1047 1049 1139 982T1231 762V0H1116L1087 131L1067 116Q1047 101 1011 79T931 35T831 -3T723 -18Q610 -20 535 48T461 221V330Q461
455 530 528T725 602H1083Q1085 758 1083 758Q1083 840 1042 868T911 897H477Q387 897 336 860T285 713V0Q285 -211 477 -211H1192Q1313 -211 1358 -161T1403 0V1049Q1403 1164 1346 1223T1192 1282H365V1378Q641 1435 954 1434H1192Q1360 1430 1457 1333T1554
1049V0Q1554 -365 1192 -365H477Q317 -365 225 -271T133 0ZM612 233Q612 198 650 165T737 133Q792 133 864 153T968 189T1083 244V496L735 463Q676 457 643 419T612 326V233Z" />
<glyph unicode="A" glyph-name="A" horiz-adv-x="1372" d="M92 0L643 1499H795L1321 0H1141L1012 418H414L279 0H92ZM469 569H958L717 1268L469 569Z" />
<glyph unicode="B" glyph-name="B" horiz-adv-x="1220" d="M164 0V1499H741Q944 1499 1037 1381T1130 1110Q1130 838 942 778Q1020 760 1079 669T1139 418Q1139 334 1121 264T1059 132T935 35T741 0H164ZM317 152H741Q987 152 987 422Q987 545 926 627T741 709H317V152ZM317
860H741Q979 860 979 1110Q979 1348 741 1348H317V860Z" />
<glyph unicode="C" glyph-name="C" horiz-adv-x="1183" d="M113 754Q113 1143 218 1329T612 1516Q835 1516 1112 1464V1343L1094 1345Q1076 1346 1045 1348T974 1352T887 1356T794 1360T700 1363T612 1364Q479 1364 407 1314T299 1132T264 750Q264 140 612 139L1112
154V33Q870 -12 612 -12Q113 -12 113 754Z" />
<glyph unicode="D" glyph-name="D" horiz-adv-x="1345" d="M164 0V1499H721Q854 1499 953 1449T1108 1323T1198 1141T1243 941T1253 743Q1253 637 1236 536T1179 336T1080 164T928 45T721 0H164ZM315 158H721Q850 158 938 241T1064 452T1102 745Q1102 1062 1005
1205T721 1348H315V158Z" />
<glyph unicode="E" glyph-name="E" horiz-adv-x="1161" d="M164 252V1233Q164 1374 236 1438Q304 1499 409 1499Q415 1499 422 1499L1069 1466V1348H422Q373 1348 348 1329T319 1290T315 1233V823L987 803V682L315 662V252Q315 201 337 177T380 149T442 145H1069V29L442
-6Q427 -7 412 -7Q164 -7 164 252Z" />
<glyph unicode="F" glyph-name="F" horiz-adv-x="1161" d="M164 0V1233Q164 1374 236 1438Q304 1499 409 1499Q415 1499 422 1499L1069 1466V1348H422Q373 1348 348 1329T319 1290T315 1233V823L987 803V682L315 662V0H164Z" />
<glyph unicode="G" glyph-name="G" horiz-adv-x="1257" d="M113 758Q113 928 131 1052T199 1287T346 1457T592 1516Q672 1516 839 1499T1112 1460V1339Q1110 1339 1074 1341T982 1347T861 1356T722 1362T592 1364Q397 1364 331 1224T264 754Q264 412 338 277T600
139Q670 139 768 162T930 210L993 233V643H649V745Q835 796 1006 797Q1072 797 1145 791V0H1030L997 100Q798 -10 604 -10Q602 -10 600 -10Q594 -10 588 -10Q473 -10 387 28Q297 68 245 132T162 300T122 509T113 758Z" />
<glyph unicode="H" glyph-name="H" horiz-adv-x="1306" d="M164 0V1499H315V801H1032V1499H1184V0H1032V649H315V0H164Z" />
<glyph unicode="I" glyph-name="I" horiz-adv-x="438" d="M164 0V1499H315V0H164Z" />
<glyph unicode="J" glyph-name="J" horiz-adv-x="735" d="M72 43L80 154Q211 122 285 122Q312 122 331 126Q459 155 461 338V1499H612V338Q612 105 506 37Q427 -12 298 -12Q293 -12 288 -12Q152 -10 72 43Z" />
<glyph unicode="K" glyph-name="K" horiz-adv-x="1210" d="M164 0V1499H315V827H483L954 1499H1139L623 752L1139 0H954L483 676H317V0H164Z" />
<glyph unicode="L" glyph-name="L" horiz-adv-x="1140" d="M164 258V1499H315V258Q315 219 325 196T358 164T396 154T442 152H1069V0H442Q383 0 340 8T254 41T188 121T164 258Z" />
<glyph unicode="M" glyph-name="M" horiz-adv-x="1640" d="M113 0L211 1499H420L819 252L1206 1499H1413L1528 0H1376L1284 1225L899 0H743L346 1225L264 0H113Z" />
<glyph unicode="N" glyph-name="N" horiz-adv-x="1392" d="M164 0V1499H319L1118 283V1499H1270V0H1118L317 1217V0H164Z" />
<glyph unicode="O" glyph-name="O" horiz-adv-x="1384" d="M133 739Q133 911 151 1039T209 1251T294 1387T411 1466T550 1501T715 1509Q799 1509 859 1503T984 1479T1092 1428T1176 1338T1240 1199T1278 1004T1292 739Q1292 544 1267 408T1197 191T1076 65T918
6T715 -8Q613 -8 543 0T402 33T285 109T203 242T150 447T133 739ZM285 739Q285 540 304 424T380 244T510 162T715 143Q817 143 882 156T1001 206T1083 309T1126 480T1141 739Q1141 841 1135 922T1120 1065T1092 1172T1055 1249T1006 1301T950 1334T880 1351T803
1357T715 1358T628 1357T552 1351T482 1335T424 1302T374 1250T336 1173T306 1065T291 922T285 739Z" />
<glyph unicode="P" glyph-name="P" horiz-adv-x="1189" d="M123 0V1499H739Q1097 1499 1098 1065Q1098 942 1075 854T1017 720T930 649T836 617T739 610Q680 610 482 628T274 651V0H123ZM274 762H739Q837 762 890 821T944 1065Q942 1159 922 1220T865 1306T803
1338T739 1346H274V762Z" />
<glyph unicode="Q" glyph-name="Q" horiz-adv-x="1384" d="M133 739Q133 946 160 1089T233 1315T357 1441T514 1497T711 1509Q811 1509 878 1501T1018 1467T1136 1388T1219 1251T1274 1039T1292 739Q1292 544 1266 408T1195 191T1073 65T913 6T711 -8Q609 -8 539
0T398 33T283 109T203 242T150 447T133 739ZM285 739Q285 540 304 424T378 244T506 162T711 143Q840 143 914 164T1044 250T1120 431T1141 739Q1141 841 1135 922T1119 1065T1091 1172T1054 1249T1004 1301T948 1334T877 1351T799 1357T711 1358T624 1357T548 1351T479
1335T422 1302T373 1250T336 1173T306 1065T291 922T285 739ZM649 -68H756Q846 -131 931 -138Q945 -139 959 -139Q1030 -139 1100 -109V-272Q1033 -291 958 -291Q941 -291 924 -290Q831 -285 748 -225T649 -68Z" />
<glyph unicode="R" glyph-name="R" horiz-adv-x="1214" d="M123 0V1499H762Q1108 1499 1108 1049Q1108 656 848 618L1163 0H999L684 612L274 641V0H123ZM274 776H762Q799 776 819 778T869 793T914 834T942 916T954 1049Q954 1229 901 1287T762 1346H274V776Z" />
<glyph unicode="S" glyph-name="S" horiz-adv-x="1196" d="M133 1012V1147Q133 1354 239 1432T539 1511Q678 1511 1051 1462V1339L539 1360Q522 1361 506 1361Q402 1361 348 1326Q286 1286 285 1147V1012Q285 885 335 848T494 811H784Q1103 811 1104 459V319Q1104
215 1069 146T971 42T842 -4T690 -16Q618 -16 437 2T178 35V158Q403 135 690 135Q952 135 952 319V459Q952 555 916 607T784 659H498Q381 659 304 688T193 772T146 881T133 1012Z" />
<glyph unicode="T" glyph-name="T" horiz-adv-x="1183" d="M92 1348V1499H1133V1348H682V0H530V1348H92Z" />
<glyph unicode="U" glyph-name="U" horiz-adv-x="1386" d="M164 655V1499H315V655Q315 469 338 360T425 205T540 151T703 141H719Q762 141 786 142T850 147T911 161T964 187T1013 230T1052 295T1084 384T1103 502T1110 655V1499H1264V655Q1264 465 1228 333T1146
136T1015 35T875 -5T719 -10H700Q645 -10 618 -9T540 -5T463 7T394 31T329 72T275 133T228 218T195 330T171 475T164 655Z" />
<glyph unicode="V" glyph-name="V" horiz-adv-x="1372" d="M92 1499H258L696 242L1155 1499H1321L770 0H618L92 1499Z" />
<glyph unicode="W" glyph-name="W" horiz-adv-x="1970" d="M92 1499H258L694 264L1065 1499H1237L1098 1020L1370 252L1753 1499H1919L1450 0H1298L1018 766L770 0H618L92 1499Z" />
<glyph unicode="X" glyph-name="X" horiz-adv-x="1220" d="M92 1499H258L627 870L1004 1499H1169L727 760L1159 0H993L627 631L264 0H98L526 760L92 1499Z" />
<glyph unicode="Y" glyph-name="Y" horiz-adv-x="1290" d="M92 1499H258L645 713L1073 1499H1239L721 532V0H569V532L92 1499Z" />
<glyph unicode="Z" glyph-name="Z" horiz-adv-x="1153" d="M72 0V152L883 1348H72V1499H1081V1348L270 152H1081V0H72Z" />
<glyph unicode="[" glyph-name="bracketleft" horiz-adv-x="657" d="M174 -78V1372Q174 1429 183 1480T219 1592T305 1688T453 1724H616V1573H453Q396 1573 361 1519T326 1372V-78Q326 -170 360 -224T453 -279H616V-430H453Q365 -430 306 -394T220 -298T184 -187T174
-78Z" />
<glyph unicode="\" glyph-name="backslash" horiz-adv-x="819" d="M41 1577H203L778 -147H616L41 1577Z" />
<glyph unicode="]" glyph-name="bracketright" horiz-adv-x="657" d="M41 -279H205Q262 -279 297 -225T332 -78V1372Q332 1464 297 1518T205 1573H41V1724H205Q293 1724 352 1689T438 1593T474 1481T483 1372V-78Q483 -135 474 -186T439 -298T353 -394T205 -430H41V-279Z" />
<glyph unicode="^" glyph-name="asciicircum" horiz-adv-x="802" d="M102 1087L342 1354H487L700 1087H555L412 1233L250 1087H102Z" />
<glyph unicode="_" glyph-name="underscore" horiz-adv-x="1380" d="M41 -2V150H1339V-2H41Z" />
<glyph unicode="`" glyph-name="grave" horiz-adv-x="495" d="M41 1360H236L455 1087H313L41 1360Z" />
<glyph unicode="a" glyph-name="a" horiz-adv-x="1062" d="M82 258V383Q82 508 154 581T354 655Q582 654 695 654T809 655Q810 723 810 757T809 793Q809 961 641 961Q457 961 117 936V1047Q324 1104 647 1108Q650 1108 654 1108Q786 1108 872 1031Q960 952 961
793V0H848L809 131L779 117Q749 103 700 81T594 38T472 2T354 -12Q237 -12 160 59T82 258ZM233 268Q233 139 354 139Q517 139 809 244V537L354 504Q293 498 263 461T233 371V268Z" />
<glyph unicode="b" glyph-name="b" horiz-adv-x="1134" d="M123 0V1608H270V1022Q362 1059 480 1081T674 1104Q785 1104 859 1057T970 923T1019 747T1032 539Q1032 435 1017 346T965 171T854 37T674 -12Q580 -12 452 36T272 121L231 0H123ZM272 233Q503 139 674
139Q881 139 881 539Q881 777 831 864T674 952Q477 952 272 899V233Z" />
<glyph unicode="c" glyph-name="c" horiz-adv-x="1024" d="M102 373T102 545T128 830T205 1000T315 1077T461 1098Q641 1098 928 1044V934Q643 946 461 946Q406 946 375 936T313 888T268 764T254 537Q254 308 300 225T461 141Q545 141 664 146T863 158L942 164V49Q745
-6 461 -10Q377 -10 319 10T208 87T129 258Z" />
<glyph unicode="d" glyph-name="d" horiz-adv-x="1134" d="M102 539Q102 658 115 747T165 923T275 1057T461 1104Q537 1104 653 1082T862 1022V1608H1012V0H903L862 121Q811 84 683 36T461 -12Q355 -12 281 37T170 171T118 345T102 539ZM254 539Q254 140 461 139Q631
139 862 233V899Q657 952 461 952Q355 952 305 865T254 539Z" />
<glyph unicode="e" glyph-name="e" horiz-adv-x="1075" d="M102 549Q102 729 127 838T216 1004T359 1078T578 1096Q691 1096 754 1086T878 1038T966 922T993 711Q993 461 713 461H254Q254 271 297 206T461 141Q834 141 973 162V47Q770 -10 461 -10Q254 -10 178
108T102 549ZM254 610H713Q842 610 842 711Q842 869 796 906T580 944Q508 944 474 942T394 931T329 902T288 844T260 750T254 610Z" />
<glyph unicode="f" glyph-name="f" horiz-adv-x="819" d="M41 936V1053L240 1087V1290Q240 1335 242 1367T258 1449T297 1531T372 1586T492 1610Q619 1610 778 1561V1460L526 1462Q479 1462 451 1451T410 1412T394 1360T391 1290V1087H694V936H391V0H240V936H41Z" />
<glyph unicode="g" glyph-name="g" horiz-adv-x="1134" d="M92 -63L174 70Q98 123 98 236Q98 293 129 343T219 406Q100 482 100 705Q100 895 193 993T455 1092H1094V977L928 940Q930 936 942 915T960 880T975 841T987 782T991 705Q991 648 978 588T932 460T828
348T653 305H334Q250 305 250 244Q250 174 334 174H770Q895 174 964 97T1034 -109V-238Q1034 -293 1023 -340T982 -439T887 -522T727 -553H420Q270 -553 181 -473T92 -238V-63ZM244 39V-238Q244 -401 418 -401Q419 -401 420 -401H727Q883 -401 883 -238V-119Q883
-41 855 -9T743 23H336Q307 23 285 27T253 35L244 39ZM252 705Q252 662 260 623T286 544T345 481T440 457H641Q752 457 798 534Q840 606 840 690Q840 698 840 705Q834 824 793 882T639 940H455Q454 940 453 940Q252 940 252 705Z" />
<glyph unicode="h" glyph-name="h" horiz-adv-x="1114" d="M123 0V1606H274V961Q280 963 319 986T367 1014T411 1037T460 1061T508 1077T562 1094T614 1102T676 1106Q832 1106 922 1004T1012 758V0H860V758Q860 856 810 905T676 954Q598 954 529 938T417 905T274
838V0H123Z" />
<glyph unicode="i" glyph-name="i" horiz-adv-x="403" d="M102 1264V1374Q102 1425 152 1425H254Q301 1425 301 1374V1264Q301 1217 254 1217H152Q102 1217 102 1264ZM123 0V1087H274V0H123Z" />
<glyph unicode="j" glyph-name="j" horiz-adv-x="444" d="M123 1264V1374Q123 1425 172 1425H274Q321 1425 322 1374V1264Q322 1217 274 1217H172Q123 1217 123 1264ZM145 -553V1087H297V-8Q297 -32 297 -54Q297 -380 244 -553H145Z" />
<glyph unicode="k" glyph-name="k" horiz-adv-x="1024" d="M123 0V1602H274V700H356L772 1087H983L500 625L983 0H795L356 549H274V0H123Z" />
<glyph unicode="l" glyph-name="l" horiz-adv-x="614" d="M123 387V1604H274V387Q274 262 303 214T391 152Q559 109 573 109V0H393Q123 0 123 387Z" />
<glyph unicode="m" glyph-name="m" horiz-adv-x="1839" d="M123 0V1087H229L274 956Q286 964 324 986T377 1017T427 1042T482 1066T534 1083T597 1097T662 1100Q764 1100 846 1057T963 940Q1156 1100 1401 1100Q1544 1100 1640 1002T1737 750V0H1585V750Q1585
840 1533 894T1401 948Q1278 948 1189 924T999 834V754V0H848V750Q848 840 796 894T662 948Q586 948 520 932T416 900T274 834V0H123Z" />
<glyph unicode="n" glyph-name="n" horiz-adv-x="1114" d="M123 0V1087H229L274 961Q280 963 319 986T367 1014T411 1037T460 1061T508 1077T562 1094T614 1102T676 1106Q832 1106 922 1004T1012 758V0H860V758Q860 854 809 904T676 954Q598 954 529 938T417 905T274
838V0H123Z" />
<glyph unicode="o" glyph-name="o" horiz-adv-x="1163" d="M102 528Q102 858 206 978T582 1098Q856 1098 958 976T1061 528Q1061 223 959 107T582 -10Q312 -10 207 110T102 528ZM254 528Q254 395 273 316T341 199T439 152T582 141Q676 141 728 151T826 200T890
316T909 528Q909 673 894 757T834 884T736 936T582 946Q504 946 459 940T369 912T303 844T268 722T254 528Z" />
<glyph unicode="p" glyph-name="p" horiz-adv-x="1134" d="M123 -553V1087H231L270 967Q321 1004 450 1052T674 1100Q780 1100 854 1051T964 916T1016 742T1032 549Q1032 430 1019 341T970 165T859 31T674 -16Q598 -16 480 6T270 66V-553H123ZM270 188Q475 135
674 135Q780 135 830 223T881 549Q881 948 674 948Q502 948 270 854V188Z" />
<glyph unicode="q" glyph-name="q" horiz-adv-x="1136" d="M102 549Q102 813 196 956T479 1100Q575 1100 683 1091T890 1068T1014 1053V-553H862V59Q667 -20 484 -20Q481 -20 479 -20Q364 -20 289 21T173 144T118 321T102 549ZM254 549Q254 339 283 261Q332 131
479 131Q594 131 664 140T862 182V948H479Q254 948 254 549Z" />
<glyph unicode="r" glyph-name="r" horiz-adv-x="872" d="M123 0V1087H229L274 950Q284 956 326 981T382 1013T432 1038T490 1064T546 1081T612 1096T680 1100Q799 1100 831 1083V934Q782 946 680 946Q602 946 532 930T419 895T274 827V0H123Z" />
<glyph unicode="s" glyph-name="s" horiz-adv-x="1036" d="M82 733V827Q82 960 147 1029T365 1098Q560 1098 899 1065V948H365Q318 948 289 940T249 913T236 877T233 827V733Q233 692 242 668T272 633T311 620T365 616H688Q817 616 885 544T954 352V252Q954 100
881 45T688 -10Q495 -10 127 29V141H688Q688 143 699 141T728 145T761 160T790 192T803 252V352Q803 409 778 437T688 465H365Q215 465 149 522T82 733Z" />
<glyph unicode="t" glyph-name="t" horiz-adv-x="774" d="M41 938V1053L244 1090L281 1393H395V1090H713V938H395V389Q395 264 424 216T512 154Q680 111 694 111V2H514Q244 2 244 389V938H41Z" />
<glyph unicode="u" glyph-name="u" horiz-adv-x="1114" d="M102 330V1087H254V330Q254 234 305 184T438 133Q516 133 585 149T697 183T840 250V1087H991V0H885L840 127Q834 125 795 102T747 74T703 51T654 27T606 11T552 -6T500 -14T438 -18Q282 -18 192 84T102 330Z" />
<glyph unicode="v" glyph-name="v" horiz-adv-x="1097" d="M41 1087H207L547 223L891 1087H1057L621 0H469L41 1087Z" />
<glyph unicode="w" glyph-name="w" horiz-adv-x="1640" d="M41 1087H207L528 223L811 1087H975L864 739L1102 223L1434 1087H1599L1184 0H1032L791 532L612 0H449L41 1087Z" />
<glyph unicode="x" glyph-name="x" horiz-adv-x="1073" d="M49 0L442 545L49 1087H238L532 670L836 1087H1024L627 539L1008 0H836L537 414L238 0H49Z" />
<glyph unicode="y" glyph-name="y" horiz-adv-x="1134" d="M43 1087H209L473 238Q489 187 523 166T583 152L608 158L920 1087H1090L610 -344L457 -553H362L555 0Q379 0 309 225L43 1087Z" />
<glyph unicode="z" glyph-name="z" horiz-adv-x="933" d="M61 936V1087H872V936L291 154H872V2H92V154L684 936H61Z" />
<glyph unicode="{" glyph-name="braceleft" horiz-adv-x="655" d="M41 614V752Q45 752 67 754T99 757T129 761T159 769T183 782T206 801T219 826T225 860V1343Q225 1505 323 1614T614 1724V1573Q503 1573 440 1523T377 1343V860Q377 788 329 743T203 684Q277 674
326 626T375 514V-78Q375 -176 440 -230T614 -279V-430Q505 -430 426 -399T304 -314T243 -202T223 -78V506Q223 565 167 592T41 614Z" />
<glyph unicode="|" glyph-name="bar" horiz-adv-x="501" d="M176 -147V1577H328V-147H176Z" />
<glyph unicode="}" glyph-name="braceright" horiz-adv-x="655" d="M41 -279Q150 -285 215 -231T281 -78V514Q281 577 330 625T453 684Q375 698 327 743T279 860V1343Q279 1472 216 1522T41 1573V1724Q234 1724 332 1615T430 1343V860Q430 842 436 827T449 801T472
783T496 769T526 761T556 757T587 754T614 752V614Q544 620 488 593T432 506V-78Q432 -144 413 -202T351 -313T230 -398T41 -430V-279Z" />
<glyph unicode="~" glyph-name="asciitilde" horiz-adv-x="897" d="M102 1171Q118 1183 157 1219T215 1268T268 1296T342 1311Q389 1311 454 1275T559 1239Q582 1239 603 1244T646 1259T682 1278T718 1300T750 1321L795 1235Q791 1231 752 1193T695 1140T637 1106T559
1087Q512 1087 444 1123T336 1159Q301 1159 272 1148T206 1118T145 1087L102 1171Z" />
</font>
</defs>
</svg>
