<?xml version="1.0" standalone="no"?> <!DOCTYPE svg PUBLIC "-//W3C//DTD SVG 1.0//EN" "http://www.w3.org/TR/2001/REC-SVG-20010904/DTD/svg10.dtd" > <svg xmlns="http://www.w3.org/2000/svg" width="100%" height="100%">
<defs >
<font id="exo-medium-italic" horiz-adv-x="1061" ><font-face
    font-family="Exo"
    units-per-em="2048"
    panose-1="2 0 6 3 0 0 0 0 0 0"
    ascent="2050"
    descent="-605"
    alphabetic="0" />
<missing-glyph horiz-adv-x="2048" />
<glyph unicode=" " glyph-name="space" horiz-adv-x="512" />
<glyph unicode="!" glyph-name="exclam" horiz-adv-x="544" d="M166 47L186 182Q192 233 244 233H375Q422 233 414 182L393 47Q387 0 340 0H209Q160 0 166 47ZM242 408L395 1497H608L416 408H242Z" />
<glyph unicode="&quot;" glyph-name="quotedbl" horiz-adv-x="815" d="M358 1087L377 1362L399 1499H588L565 1362L502 1087H358ZM659 1087L680 1362L702 1499H889L866 1362L803 1087H659Z" />
<glyph unicode="#" glyph-name="numbersign" horiz-adv-x="1425" d="M111 463L152 594H473L571 907H250L293 1038H616L764 1499H895L748 1038H1063L1208 1499H1339L1194 1038H1554L1509 907H1151L1051 592H1411L1370 461H1008L858 0H727L877 461L559 463L410 0H279L428
463H111ZM604 594L920 592L1020 907H702L604 594Z" />
<glyph unicode="$" glyph-name="dollar" horiz-adv-x="1171" d="M158 37L182 176Q205 176 294 172T482 165T666 162Q703 162 740 169T821 194T895 249T934 336L952 459Q960 514 962 555T931 619T821 643H575Q469 643 398 680T299 772T261 892T264 1016L285 1149Q318
1350 432 1428T733 1511L762 1688H897L868 1505Q995 1497 1243 1460L1221 1313Q1174 1313 1058 1318T846 1327T741 1331Q628 1335 559 1291T471 1135L455 1016Q439 918 473 875T623 831H870Q1202 831 1143 459L1122 330Q1063 -37 627 -16L600 -184H467L494 -8Q308
8 158 37Z" />
<glyph unicode="%" glyph-name="percent" horiz-adv-x="1970" d="M231 979L272 1245Q292 1382 357 1440T582 1499H788Q923 1499 976 1437T1010 1237L969 971Q946 826 882 771T662 715H455Q332 715 272 783T231 979ZM385 983Q373 915 394 891T485 866H678Q754 866
780 889T819 983L858 1231Q868 1305 851 1326T758 1348H565Q487 1348 461 1323T424 1231L385 983ZM451 0L1589 1499H1751L614 0H451ZM1196 262L1237 528Q1257 665 1321 724T1546 784H1753Q1888 784 1941 722T1974 522L1933 256Q1910 113 1846 57T1624 0H1417Q1294
0 1235 67T1196 262ZM1350 268Q1338 200 1359 176T1450 152H1640Q1718 152 1745 175T1784 268L1823 516Q1833 590 1816 611T1720 633H1530Q1450 633 1425 610T1389 516L1350 268Z" />
<glyph unicode="&amp;" glyph-name="ampersand" horiz-adv-x="1306" d="M96 316T138 471T342 750L535 897L438 1061Q375 1178 397 1270T491 1421T653 1489Q927 1518 1202 1454L1182 1327H788Q696 1327 644 1307T578 1233T621 1090L973 477L1247 721L1307 659L1161
416L1063 322L1253 0H1055L928 217L774 84Q696 16 587 -5T366 16T188 164Q96 316 138 471ZM342 262Q399 178 497 166T680 225L840 367L616 739L453 614Q217 440 342 262Z" />
<glyph unicode="&apos;" glyph-name="quotesingle" horiz-adv-x="401" d="M299 1087L319 1362L342 1499H532L510 1362L446 1087H299Z" />
<glyph unicode="(" glyph-name="parenleft" horiz-adv-x="708" d="M221 256T224 390T250 659Q281 839 343 1016T472 1319T601 1544T705 1694L745 1743H952Q936 1725 909 1689T806 1537T668 1301T538 1001T438 649Q405 452 409 285T444 -18T511 -250T575 -397L604
-449H410Q404 -439 395 -421T359 -344T311 -221T267 -55T233 151Z" />
<glyph unicode=")" glyph-name="parenright" horiz-adv-x="712" d="M-29 -449Q-13 -431 15 -395T118 -244T256 -9T386 291T485 645Q518 840 514 1007T478 1310T412 1542T348 1691L319 1743H512Q518 1733 527 1716T562 1638T610 1512T655 1345T689 1140T698 903T674
637Q643 455 581 276T452 -29T324 -253T222 -400L182 -449H-29Z" />
<glyph unicode="*" glyph-name="asterisk" horiz-adv-x="892" d="M279 1159L291 1249L586 1307L571 1149L279 1159ZM362 850L455 1126L604 1090L442 821L362 850ZM569 969L678 1102L872 915L813 844L569 969ZM586 1470L680 1505L791 1260L635 1196L586 1470ZM692
1169L963 1327L995 1247L774 1049L692 1169Z" />
<glyph unicode="+" glyph-name="plus" horiz-adv-x="1038" d="M195 641L221 817H557L610 1155H786L733 817H1073L1047 641H707L651 303H475L530 641H195Z" />
<glyph unicode="," glyph-name="comma" horiz-adv-x="542" d="M143 -180L156 -106Q219 -106 229 -45L236 0H213Q162 0 170 51L190 180Q200 235 252 236H375Q422 236 414 180L381 -23Q357 -182 196 -184L143 -180Z" />
<glyph unicode="-" glyph-name="hyphen" horiz-adv-x="724" d="M123 506L152 682H795L766 506H123Z" />
<glyph unicode="." glyph-name="period" horiz-adv-x="548" d="M168 47L190 182Q196 233 248 233H375Q428 233 418 182L395 47Q387 0 338 0H211Q162 0 168 47Z" />
<glyph unicode="/" glyph-name="slash" horiz-adv-x="849" d="M14 -147L862 1577H1061L213 -147H14Z" />
<glyph unicode="0" glyph-name="zero" horiz-adv-x="1306" d="M186 340L315 1155Q370 1499 723 1499H1059Q1237 1499 1309 1399T1358 1159L1229 340Q1200 162 1102 81T831 0H496Q336 0 248 83T186 340ZM373 325T373 302T375 262T387 232T402 210T424 196T448 187T478
183T507 182H537H836Q1014 182 1042 352L1169 1147Q1181 1235 1150 1276T1020 1317H717Q529 1317 504 1147L377 354Q373 325 373 302Z" />
<glyph unicode="1" glyph-name="one" horiz-adv-x="743" d="M266 1196L285 1327Q363 1327 451 1369T583 1446T643 1499H827L594 0H406L608 1278Q565 1245 473 1221T266 1196Z" />
<glyph unicode="2" glyph-name="two" horiz-adv-x="1212" d="M90 0L119 170Q221 233 321 299T565 471T816 675T1007 883T1104 1083Q1143 1335 883 1335H287L309 1475Q635 1520 938 1520Q1137 1520 1225 1390T1292 1073Q1257 698 487 182H1143L1114 0H90Z" />
<glyph unicode="3" glyph-name="three" horiz-adv-x="1210" d="M76 43L96 170H682Q774 170 844 213T930 346L948 453Q954 488 954 515T948 562T935 597T913 621T886 637T851 646T813 650T772 653L301 668L326 817L801 838Q1012 846 1042 1024L1061 1147Q1077 1247
1026 1284T879 1321H266L285 1446Q375 1477 489 1490T713 1504T950 1503Q1102 1499 1188 1402T1251 1153L1229 1020Q1192 784 1044 745Q1175 682 1139 442L1120 330Q1065 -14 696 -14H622H542Q526 -14 471 -13T396 -11T329 -7T258 0T198 10T134 24T76 43Z" />
<glyph unicode="4" glyph-name="four" horiz-adv-x="1243" d="M111 459L897 1499H1122L414 557H924L989 961L1092 1114H1206L1118 557H1292L1270 410L1087 369L1032 4H838L895 369H164L111 459Z" />
<glyph unicode="5" glyph-name="five" horiz-adv-x="1230" d="M152 39L174 182H784Q878 182 926 237T985 360L1016 555Q1049 743 877 743H600Q534 743 483 708T420 598H242L430 1499H1309L1280 1317H582L487 864Q542 915 664 924Q719 930 928 922Q1071 920 1150
819T1206 561L1171 336Q1140 141 1036 67T770 -10Q567 -12 456 -4T152 39Z" />
<glyph unicode="6" glyph-name="six" horiz-adv-x="1263" d="M246 793Q305 1168 434 1336T713 1509Q1039 1519 1335 1470L1311 1329H741Q678 1329 625 1279T537 1147T481 993T444 844Q741 885 954 885Q1034 887 1093 866T1182 810T1229 733T1246 646T1241 561L1200
303Q1173 137 1074 69T811 0H514Q121 0 246 793ZM422 707Q338 177 559 176H825Q995 176 1020 336L1055 559Q1069 647 1038 677T913 707H422Z" />
<glyph unicode="7" glyph-name="seven" horiz-adv-x="1122" d="M266 1317L295 1499H1241L1286 1393L535 0H317L1036 1317H266Z" />
<glyph unicode="8" glyph-name="eight" horiz-adv-x="1288" d="M186 229T187 262T195 330L223 516Q239 618 300 674T446 741Q352 774 321 856T303 1028L326 1161Q357 1358 460 1433T748 1509H1051Q1209 1509 1284 1415T1333 1149L1311 1022Q1309 989 1293 945T1228
850T1112 786Q1190 761 1217 677T1231 512L1200 319Q1184 213 1145 145T1046 47T935 9T809 0H508Q410 0 341 27T242 91T199 178ZM383 328Q369 244 407 212T551 180H819Q891 180 945 215T1012 328L1042 522Q1054 598 1015 638T905 678H612Q438 678 414 522L383 328ZM489
1012Q475 926 523 889T639 852H930Q1094 852 1120 1012L1141 1139Q1159 1252 1128 1291T1004 1331H733Q620 1331 574 1288T510 1139L489 1012Z" />
<glyph unicode="9" glyph-name="nine" horiz-adv-x="1261" d="M168 39L190 180H762Q825 180 878 230T966 362T1022 518T1059 668Q772 625 547 625Q467 623 409 644T321 700T274 778T258 865T264 950L303 1204Q352 1509 690 1509H989Q1384 1509 1257 711Q1226 516
1173 373T1056 152T926 38T791 0Q426 -10 168 39ZM449 950Q435 862 466 833T590 803H1081Q1165 1333 944 1333H678Q508 1333 483 1174L449 950Z" />
<glyph unicode=":" glyph-name="colon" horiz-adv-x="550" d="M168 47L190 182Q196 233 248 233H375Q428 233 418 182L395 47Q387 0 338 0H211Q162 0 168 47ZM305 903L326 1038Q332 1089 383 1090H510Q563 1090 553 1038L532 903Q524 856 473 856H346Q299 856 305 903Z" />
<glyph unicode=";" glyph-name="semicolon" horiz-adv-x="550" d="M143 -180L156 -106Q219 -106 229 -45L236 0H213Q193 0 180 15T170 51L190 180Q194 203 211 219T252 236H375Q422 236 414 180L381 -23Q357 -182 196 -184L143 -180ZM309 905L330 1040Q336 1091
387 1092H514Q567 1092 557 1040L537 905Q529 858 479 858H352Q303 858 309 905Z" />
<glyph unicode="&lt;" glyph-name="less" horiz-adv-x="956" d="M195 629L225 819L1042 1143L1014 950L416 717L938 467L907 283L195 629Z" />
<glyph unicode="=" glyph-name="equal" horiz-adv-x="956" d="M106 418L135 594H1010L981 418H106ZM172 850L203 1026H1077L1047 850H172Z" />
<glyph unicode="&gt;" glyph-name="greater" horiz-adv-x="958" d="M139 283L172 479L780 727L246 967L276 1143L993 819L963 629L139 283Z" />
<glyph unicode="?" glyph-name="question" horiz-adv-x="1105" d="M248 1335L270 1470L344 1480Q403 1489 418 1491T484 1499T556 1506T622 1511T698 1516H771Q813 1516 856 1513Q1055 1513 1147 1401T1212 1126L1182 928Q1159 781 1083 698T894 599T639 600L623
503Q607 406 608 399H432L487 750Q669 746 762 750Q848 754 913 800T995 938L1024 1118Q1042 1239 990 1287T791 1335H248ZM352 47L375 182Q381 233 432 233H559Q612 233 602 182L580 47Q572 0 522 0H395Q346 0 352 47Z" />
<glyph unicode="@" glyph-name="at" horiz-adv-x="1792" d="M123 33L287 1067Q348 1444 735 1444H1497Q1677 1444 1750 1341T1796 1049L1690 340Q1682 283 1667 237T1615 132T1507 40T1329 6H1198L1151 127Q1034 -6 844 -8Q752 -8 688 18T576 110T520 288T532
569Q557 731 608 844T725 1013T852 1091T981 1114Q1311 1114 1446 985L1329 180Q1413 180 1457 214T1520 365L1622 1055Q1628 1100 1628 1134T1624 1191T1606 1229T1581 1253T1549 1265T1514 1269T1475 1270H705Q492 1270 461 1055L297 29Q281 -75 316 -138T473
-201H1264L1243 -317Q967 -372 645 -373H446Q268 -373 182 -257T123 33ZM700 526Q673 323 706 245T856 164Q944 164 1014 191T1167 291L1266 913Q1151 944 981 944Q753 944 700 526Z" />
<glyph unicode="A" glyph-name="A" horiz-adv-x="1366" d="M86 0L862 1499H1061L1339 0H1147L1073 395H498L293 0H86ZM588 573H1044L928 1243L588 573Z" />
<glyph unicode="B" glyph-name="B" horiz-adv-x="1222" d="M154 0L391 1499H979Q1088 1499 1161 1463T1270 1366T1315 1238Q1321 1201 1321 1161Q1321 1129 1317 1096Q1282 830 1069 778Q1135 768 1187 666Q1225 593 1224 492Q1224 453 1219 410Q1192 209 1081
105T741 0H154ZM373 180H768Q991 180 1030 430Q1035 464 1035 494Q1034 568 1004 622Q960 698 850 698H455L373 180ZM483 874H874Q1089 874 1126 1100Q1132 1138 1132 1168Q1132 1240 1098 1273Q1050 1319 948 1319H553L483 874Z" />
<glyph unicode="C" glyph-name="C" horiz-adv-x="1179" d="M208 486Q206 520 205 554Q205 659 227 764Q260 954 302 1084T413 1316T590 1467T848 1516Q1057 1516 1343 1450L1321 1303Q1037 1334 883 1334Q861 1334 842 1333Q801 1333 784 1332T722 1320T653 1290T586
1227T519 1124T464 968T416 750Q394 624 394 525Q394 188 647 170Q682 168 730 168Q876 168 1149 186L1128 37Q952 -12 612 -12Q475 -12 382 56T254 235T208 486Z" />
<glyph unicode="D" glyph-name="D" horiz-adv-x="1359" d="M154 0L391 1497Q391 1499 963 1499Q1092 1499 1183 1446T1318 1312Q1362 1232 1380 1124Q1395 1036 1396 956Q1396 940 1395 922Q1391 828 1374 733Q1315 375 1161 188T731 0H154ZM371 184H750Q924 184
1036 342T1188 745Q1208 872 1208 970Q1208 1104 1170 1182Q1106 1318 926 1319H551L371 184Z" />
<glyph unicode="E" glyph-name="E" horiz-adv-x="1157" d="M190 266L342 1225Q387 1499 644 1499Q654 1499 664 1499Q1268 1470 1303 1466L1280 1315H651Q585 1315 560 1284T526 1200L469 840L1116 819L1092 668L440 647L381 285Q377 246 383 223T410 191T447
180T494 178H1102L1075 29L444 -6Q434 -6 425 -6Q319 -6 246 56Q185 108 185 205Q185 234 190 266Z" />
<glyph unicode="F" glyph-name="F" horiz-adv-x="1159" d="M152 0L344 1217Q389 1499 646 1499Q656 1499 666 1499Q1270 1470 1307 1466L1282 1315H655Q587 1315 563 1284T530 1200L473 840L1118 819L1096 666L442 645L340 0H152Z" />
<glyph unicode="G" glyph-name="G" horiz-adv-x="1249" d="M210 544Q213 651 231 764Q264 957 306 1085T417 1316T593 1466T850 1513Q856 1513 861 1513Q1044 1513 1343 1452L1323 1303Q1143 1330 846 1335Q809 1335 786 1333T721 1320T653 1288T587 1223T523
1120T470 964T426 748Q407 621 407 517Q407 481 410 448Q418 319 479 245T653 170Q721 170 811 197T957 253L1014 281L1077 637H768L788 762Q964 811 1155 811Q1243 811 1292 807L1163 0H1022L991 115Q938 66 833 27T614 -14Q501 -14 420 32T294 154T228 334Q210
425 210 518Q210 531 210 544Z" />
<glyph unicode="H" glyph-name="H" horiz-adv-x="1306" d="M162 0L399 1499H588L477 815H1139L1249 1499H1438L1200 0H1012L1114 635H453L350 0H162Z" />
<glyph unicode="I" glyph-name="I" horiz-adv-x="477" d="M170 0L408 1499H596L358 0H170Z" />
<glyph unicode="J" glyph-name="J" horiz-adv-x="735" d="M74 45L102 186Q153 176 183 171T261 163Q271 162 281 162Q316 162 340 171Q371 182 404 202T458 267T489 373L668 1499H856L672 338Q637 107 518 37Q433 -11 303 -11Q296 -11 288 -11Q148 -8 74 45Z" />
<glyph unicode="K" glyph-name="K" horiz-adv-x="1198" d="M154 0L391 1499H575L471 840H633L1171 1499H1403L795 737L1165 0H942L618 659H444L340 0H154Z" />
<glyph unicode="L" glyph-name="L" horiz-adv-x="1091" d="M193 266L391 1499H580L385 289Q379 250 386 227T414 195T451 184T498 182H1094L1065 0H438Q317 0 245 64Q189 114 189 210Q189 236 193 266Z" />
<glyph unicode="M" glyph-name="M" horiz-adv-x="1656" d="M133 0L479 1499H729L905 313L1446 1499H1706L1589 0H1403L1499 1165L965 0H762L590 1163L322 0H133Z" />
<glyph unicode="N" glyph-name="N" horiz-adv-x="1355" d="M154 0L391 1499H575L1108 348L1290 1499H1479L1241 0H1059L524 1147L344 0H154Z" />
<glyph unicode="O" glyph-name="O" horiz-adv-x="1363" d="M204 492Q206 605 229 748Q252 898 283 1012T351 1206T436 1342T532 1431T647 1481T774 1504T920 1509Q1002 1509 1064 1502T1187 1475T1291 1418T1366 1324T1413 1184Q1425 1112 1425 1016Q1425 1002
1425 988Q1423 874 1401 731Q1376 567 1341 447T1256 245T1153 114T1026 37T882 1T713 -8Q633 -8 574 -2T452 22T347 73T269 163T218 300Q204 372 204 472Q204 482 204 492ZM392 490Q392 484 392 479Q392 388 408 328Q424 264 469 231T572 186T725 174Q872 174
959 214T1111 379T1212 739Q1230 860 1234 952Q1236 1001 1237 1041Q1237 1076 1235 1106Q1231 1168 1207 1210T1160 1275T1090 1310T1007 1325T907 1327Q848 1327 815 1325T735 1316T662 1293T600 1249T544 1178T498 1075T454 930T418 739Q393 589 392 490Z" />
<glyph unicode="P" glyph-name="P" horiz-adv-x="1218" d="M143 0L381 1499H1008Q1160 1500 1253 1394Q1322 1316 1322 1165Q1322 1112 1313 1049Q1299 953 1274 878T1224 755T1157 674T1089 626T1012 602T939 594H866Q805 596 624 611T434 631L332 0H143ZM455
774H885Q977 774 1036 830T1122 1057Q1128 1118 1129 1161Q1129 1164 1129 1167Q1129 1206 1117 1233Q1104 1262 1092 1279T1056 1305T1015 1317T973 1319H541L455 774Z" />
<glyph unicode="Q" glyph-name="Q" horiz-adv-x="1372" d="M211 493Q213 607 236 750Q263 922 299 1049T386 1258T488 1392T616 1468T759 1501T928 1509Q1010 1509 1072 1502T1196 1474T1298 1416T1373 1322T1420 1183Q1432 1112 1432 1016Q1432 1002 1432 987Q1430
872 1407 729Q1378 534 1330 399T1226 184T1085 61T921 5T721 -8Q641 -8 582 -2T459 22T353 73T276 163T224 300Q211 370 211 467Q211 480 211 493ZM399 490Q399 479 399 469Q399 384 414 328Q430 264 476 231T580 186T733 174Q880 174 966 214T1117 379T1219 739Q1244
893 1244 1000Q1244 1010 1244 1020Q1241 1133 1223 1194T1151 1285T1052 1321T915 1327Q864 1327 834 1326T760 1319T693 1303T635 1272T581 1222T535 1148T493 1046T457 911T424 739Q401 589 399 490ZM625 -68H745Q816 -140 927 -140Q996 -140 1079 -113L1051
-295Q999 -315 941 -315Q926 -315 910 -314Q836 -307 771 -285T664 -205Q625 -151 625 -75Q625 -72 625 -68Z" />
<glyph unicode="R" glyph-name="R" horiz-adv-x="1245" d="M143 0L381 1499H1020Q1174 1500 1256 1390Q1318 1307 1317 1146Q1317 1095 1311 1036Q1301 944 1278 872T1222 755T1159 682T1091 639T1034 620T989 610L1204 0H995L801 594L430 621L332 0H143ZM457
776H889Q1096 776 1120 1044Q1124 1094 1124 1133Q1124 1188 1116 1224Q1102 1286 1071 1302T983 1319H543L457 776Z" />
<glyph unicode="S" glyph-name="S" horiz-adv-x="1173" d="M158 37L180 186Q323 166 686 166Q930 166 954 336L975 459Q980 506 980 543Q980 549 980 555Q979 596 945 619T842 643H580Q256 643 256 918Q256 960 264 1008L285 1149Q303 1264 345 1339T452 1452T588
1501Q648 1511 724 1511Q737 1511 750 1511Q852 1509 1016 1493T1266 1460L1243 1311Q1196 1311 1075 1316T852 1325T741 1329Q724 1330 708 1330Q608 1330 554 1298Q492 1260 473 1135L455 1016Q449 981 448 955T452 909T463 876T482 854T506 841T536 834Q560
831 570 831H607H623H889Q981 831 1044 798T1134 712Q1158 660 1168 594Q1172 569 1172 543Q1172 504 1163 467L1145 328Q1129 213 1079 140T951 34T813 -7T670 -16Q541 -16 386 1T158 37Z" />
<glyph unicode="T" glyph-name="T" horiz-adv-x="1189" d="M274 1317L305 1499H1364L1333 1317H893L684 0H496L705 1317H274Z" />
<glyph unicode="U" glyph-name="U" horiz-adv-x="1341" d="M250 633L387 1499H578L440 625Q424 521 423 444Q424 326 462 268Q524 172 709 172Q902 172 1000 273T1137 625L1274 1499H1464L1329 614Q1311 499 1286 415T1213 246T1099 109T929 23T690 -10Q428 -10
312 138Q233 239 233 434Q233 524 250 633Z" />
<glyph unicode="V" glyph-name="V" horiz-adv-x="1380" d="M301 1499H500L713 281L1335 1499H1548L774 0H573L301 1499Z" />
<glyph unicode="W" glyph-name="W" horiz-adv-x="2056" d="M301 1499H494L711 287L1325 1499H1534L1288 1012L1405 276L2021 1499H2224L1464 0H1266L1149 725L778 0H573L301 1499Z" />
<glyph unicode="X" glyph-name="X" horiz-adv-x="1253" d="M74 0L637 752L307 1499H508L764 909L1204 1499H1425L846 723L1165 0H963L719 565L295 0H74Z" />
<glyph unicode="Y" glyph-name="Y" horiz-adv-x="1304" d="M301 1499H502L739 737L1251 1499H1473L805 514L723 0H535L616 514L301 1499Z" />
<glyph unicode="Z" glyph-name="Z" horiz-adv-x="1150" d="M68 0L96 182L1051 1317H274L305 1499H1321L1290 1317L342 182H1112L1083 0H68Z" />
<glyph unicode="[" glyph-name="bracketleft" horiz-adv-x="663" d="M147 -252T143 -187T152 -72L383 1384Q410 1546 483 1626T735 1706H899L870 1530H723Q660 1530 623 1495T569 1366L340 -78Q320 -199 340 -235T436 -272H586L557 -449H389Q297 -449 239 -409T164 -311Z" />
<glyph unicode="\" glyph-name="backslash" horiz-adv-x="831" d="M287 1577H469L772 -147H590L287 1577Z" />
<glyph unicode="]" glyph-name="bracketright" horiz-adv-x="663" d="M-29 -449L-2 -272H147Q210 -272 247 -238T301 -109L530 1335Q548 1456 528 1493T432 1530H285L313 1706H477Q567 1706 626 1668T702 1573T726 1453T719 1335L492 -127Q467 -285 395 -367T141
-449H-29Z" />
<glyph unicode="^" glyph-name="asciicircum" horiz-adv-x="796" d="M268 1087L545 1358H709L874 1087H721L621 1243L455 1087H268Z" />
<glyph unicode="_" glyph-name="underscore" horiz-adv-x="1378" d="M41 -2L70 174H1368L1339 -2H41Z" />
<glyph unicode="`" glyph-name="grave" horiz-adv-x="516" d="M254 1364H451L651 1087H498L254 1364Z" />
<glyph unicode="a" glyph-name="a" horiz-adv-x="1105" d="M152 333Q150 354 151 377Q151 466 174 580Q203 740 253 847T371 1006T499 1079T637 1108Q672 1112 710 1112Q806 1112 922 1086Q1084 1050 1159 981L1016 0H877L848 121Q789 74 686 30T481 -14Q407 -14
353 1T251 56T182 162T152 333ZM356 526Q342 435 342 368Q342 290 361 246Q397 162 510 162Q610 162 683 185T862 262L961 907Q832 944 732 944Q685 944 645 936Q588 926 554 912T478 858T406 737T356 526Z" />
<glyph unicode="b" glyph-name="b" horiz-adv-x="1134" d="M115 0L369 1608H553L463 1024Q664 1104 848 1104Q1147 1104 1147 741Q1147 646 1126 526Q1110 432 1094 364T1043 217T964 91Q920 44 847 14Q783 -12 704 -12Q693 -12 682 -12Q588 -8 477 36T319 119L258
0H115ZM342 252Q526 164 690 164Q792 164 850 256T938 541Q959 652 959 732Q958 788 948 830Q924 932 809 932Q625 932 442 883L342 252Z" />
<glyph unicode="c" glyph-name="c" horiz-adv-x="1011" d="M176 553Q201 700 237 803T313 964T407 1053T509 1093T623 1102Q830 1102 1090 1042L1069 913Q811 929 629 930Q574 930 543 921T476 876T414 758T362 537Q342 428 342 353Q342 282 360 242Q397 160 506
160Q590 160 704 165T893 175L967 180L946 49Q740 -12 480 -12Q472 -12 463 -12Q291 -10 208 126Q157 210 157 354Q157 442 176 553Z" />
<glyph unicode="d" glyph-name="d" horiz-adv-x="1128" d="M164 350Q162 379 162 408Q162 480 176 551Q196 674 225 763T303 935T433 1061T625 1104Q699 1104 805 1083T993 1024L1087 1608H1272L1016 0H872L848 119Q789 76 674 32T467 -12Q367 -12 297 38T200
169T164 350ZM365 541Q350 451 351 382Q351 164 498 164Q662 164 870 252L971 883Q803 932 616 932Q524 932 463 849T365 541Z" />
<glyph unicode="e" glyph-name="e" horiz-adv-x="1075" d="M176 582Q203 723 232 808T321 967T478 1075T721 1108Q928 1108 1034 1036Q1123 976 1124 848Q1124 823 1120 795Q1106 666 1028 581T849 466T638 430Q594 428 556 428Q498 428 452 433Q376 442 348 455Q334
373 334 316Q334 254 351 220Q383 156 494 154Q541 151 594 151Q761 151 987 184L965 45Q750 -15 493 -15Q466 -15 438 -14Q243 -12 182 134Q150 211 150 331Q150 439 176 582ZM367 586Q387 584 423 581Q438 580 464 580Q498 580 551 582Q643 586 715 602T854 664T932
784Q936 806 936 825Q936 885 896 907Q847 934 726 934Q718 934 709 934Q611 934 547 912T449 831T403 737T372 613Q369 594 367 586Z" />
<glyph unicode="f" glyph-name="f" horiz-adv-x="825" d="M182 918L205 1049L408 1087L424 1180Q463 1420 538 1514T788 1608Q901 1608 1034 1559L1016 1440H799Q701 1440 668 1387T608 1161L596 1087H913L887 918H567L416 0H227L377 918H182Z" />
<glyph unicode="g" glyph-name="g" horiz-adv-x="1134" d="M66 -508L86 -383H596Q674 -383 730 -333T801 -188L840 63Q660 -14 498 -14Q496 -14 494 -14Q375 -14 299 31T195 156T161 344Q160 362 160 381Q160 472 180 575Q223 833 342 967T639 1102Q850 1102 1186
1051L989 -197Q958 -387 846 -480Q750 -559 623 -559Q601 -559 578 -557L66 -508ZM354 285Q379 156 512 156Q513 156 514 156Q678 156 862 205L979 932H647Q432 932 369 555Q350 420 350 343Q350 308 354 285Z" />
<glyph unicode="h" glyph-name="h" horiz-adv-x="1116" d="M115 0L369 1606H557L455 963Q547 1014 587 1035T707 1081T866 1106Q1026 1106 1096 1002Q1148 925 1147 823Q1147 788 1141 750L1022 0H834L952 750Q956 776 956 797Q956 854 930 888Q894 934 815 934Q743
934 678 919T569 886T434 823L303 0H115Z" />
<glyph unicode="i" glyph-name="i" horiz-adv-x="415" d="M113 0L285 1087H473L301 0H113ZM293 1257L311 1389Q317 1440 369 1440H502Q542 1440 542 1403Q542 1397 541 1389L522 1257Q516 1210 467 1210H334Q292 1210 292 1247Q292 1252 293 1257Z" />
<glyph unicode="j" glyph-name="j" horiz-adv-x="458" d="M47 -553L307 1087H496L322 -8Q273 -338 176 -553H47ZM313 1257L334 1389Q340 1440 391 1440H524Q564 1440 564 1403Q564 1396 563 1389L543 1257Q537 1210 487 1210H354Q312 1210 312 1247Q312 1252 313 1257Z" />
<glyph unicode="k" glyph-name="k" horiz-adv-x="1026" d="M115 0L369 1602H557L408 659Q549 704 710 839T899 1087H1106Q1061 929 919 789T651 590L1040 0H819L467 535L389 532L303 0H115Z" />
<glyph unicode="l" glyph-name="l" horiz-adv-x="602" d="M174 387L367 1604H555L365 399Q360 324 354 284Q353 274 352 265Q352 238 364 220Q380 196 395 187T442 170Q583 133 586 133L565 0H414Q164 0 164 268Q164 322 174 387Z" />
<glyph unicode="m" glyph-name="m" horiz-adv-x="1824" d="M115 0L287 1087H428L455 961Q471 969 508 990T561 1020T611 1044T666 1068T720 1084T784 1097T852 1100Q944 1100 1017 1053T1112 932Q1350 1100 1573 1100Q1716 1100 1795 1000Q1855 924 1855 814Q1855
779 1849 741L1731 0H1542L1661 743Q1664 764 1664 783Q1664 840 1633 878Q1591 928 1522 928Q1405 928 1322 906T1141 821Q1141 819 1136 779T1128 737L1012 0H823L940 743Q944 764 944 783Q944 840 912 878Q870 928 801 928Q729 928 667 913T567 882T432 819L303
0H115Z" />
<glyph unicode="n" glyph-name="n" horiz-adv-x="1116" d="M115 0L287 1087H428L455 963Q634 1062 717 1085Q791 1106 866 1106Q1026 1106 1096 1002Q1148 925 1147 823Q1147 788 1141 750L1022 0H834L952 750Q956 775 956 797Q956 855 928 888Q890 934 815 934Q743
934 678 919T569 886T434 823L303 0H115Z" />
<glyph unicode="o" glyph-name="o" horiz-adv-x="1150" d="M176 537Q227 865 349 981T745 1098Q1004 1098 1098 958Q1160 865 1160 705Q1160 622 1143 520Q1094 215 978 103T592 -10Q324 -10 228 118Q162 205 162 368Q162 444 176 537ZM348 386Q348 376 348 367Q348
320 358 286Q370 246 389 222T442 185T513 168T602 164Q686 164 734 173T829 218T905 328T954 528Q976 631 976 705Q976 748 968 780Q948 868 894 897T723 926Q635 926 584 914T487 860T415 740T365 528Q350 446 348 386Z" />
<glyph unicode="p" glyph-name="p" horiz-adv-x="1142" d="M27 -553L297 1061Q516 1094 827 1094Q1151 1094 1151 687Q1151 608 1139 514Q1106 272 997 128T686 -16Q471 -16 313 59L213 -553H27ZM338 203Q476 151 597 151Q643 151 686 158Q733 166 766 180T836
231T903 346T950 543Q964 628 964 694Q964 924 799 924H459L338 203Z" />
<glyph unicode="q" glyph-name="q" horiz-adv-x="1132" d="M166 259Q162 297 162 338Q162 437 180 557Q268 1102 651 1102Q727 1102 816 1095T960 1081T1095 1064T1186 1051L932 -553H743L840 59Q652 -20 491 -20Q489 -20 487 -20Q335 -20 256 55T166 259ZM347
348Q346 332 346 320Q346 281 353 262Q362 238 379 206T431 163T514 152Q678 152 864 201L979 932H639Q571 932 519 893T438 789T393 668T369 551Q359 471 355 440T347 348Z" />
<glyph unicode="r" glyph-name="r" horiz-adv-x="868" d="M115 0L287 1087H430L453 950Q461 954 489 971T527 994T564 1013T604 1034T642 1051T683 1068T723 1080T767 1090T811 1097T858 1100Q967 1100 999 1083L969 899Q924 909 817 909Q708 909 627 883T428
791L303 0H115Z" />
<glyph unicode="s" glyph-name="s" horiz-adv-x="1040" d="M127 25L147 156H696Q798 156 813 256L829 350Q832 368 832 382Q832 410 820 427Q801 453 743 453H457Q187 453 187 666Q187 697 193 733L209 836Q232 973 306 1039T535 1106Q646 1106 827 1094T1077
1067L1055 934H532Q411 934 395 825L381 735Q373 712 377 695T381 667T391 648T404 637T422 632T442 630T463 630T483 631H776Q910 631 974 553Q1023 492 1024 407Q1024 383 1020 356L1001 227Q989 147 957 95T877 21T787 -10T692 -18Q590 -18 385 -3T127 25Z"
/>
<glyph unicode="t" glyph-name="t" horiz-adv-x="772" d="M180 920L201 1047L403 1090L489 1393H639L592 1090H889L860 920H563L481 399Q475 324 471 284Q470 276 470 269Q470 240 482 220Q498 196 512 187T559 170Q700 131 705 131L686 0H530Q282 0 282 265Q282
320 293 387L375 920H180Z" />
<glyph unicode="u" glyph-name="u" horiz-adv-x="1114" d="M150 340L268 1087H457L338 338Q333 307 333 283Q334 225 360 196Q398 156 477 156Q581 156 656 179T858 266L987 1087H1176L1004 0H862L834 123Q659 26 578 3Q504 -18 426 -18Q262 -18 194 81Q144 154
143 259Q143 297 150 340Z" />
<glyph unicode="v" glyph-name="v" horiz-adv-x="1064" d="M186 1087H385L571 223L920 907Q961 993 975 1087H1135Q1148 1044 1148 1002Q1148 932 1112 864L664 0H430L186 1087Z" />
<glyph unicode="w" glyph-name="w" horiz-adv-x="1650" d="M186 1087H379L561 231L909 901Q954 993 967 1083H1118Q1131 1039 1131 996Q1131 934 1104 877L1051 760L1153 242L1516 907Q1561 999 1571 1087H1724Q1737 1041 1737 998Q1737 928 1702 864L1221 0H1026L918
530L643 0H430L186 1087Z" />
<glyph unicode="x" glyph-name="x" horiz-adv-x="1099" d="M45 0L522 553L217 1087H438L653 694L989 1087H1227L750 526L1047 0H829L616 383L291 0H45Z" />
<glyph unicode="y" glyph-name="y" horiz-adv-x="1130" d="M186 1087H383L496 262Q498 246 504 234T518 213T535 199T555 190T574 184T594 181T610 181T622 182H627L989 909Q1024 983 1040 1092H1204Q1215 1053 1215 1013Q1215 938 1178 860L752 2Q621 -266 489
-398T197 -561V-428Q277 -379 347 -298T456 -156T543 0Q463 0 393 52T303 240L186 1087Z" />
<glyph unicode="z" glyph-name="z" horiz-adv-x="942" d="M88 2L111 178L782 911H205L229 1087H1059L1034 911L377 178H913Q886 2 887 2H88Z" />
<glyph unicode="{" glyph-name="braceleft" horiz-adv-x="655" d="M133 602L158 762H194Q227 762 236 763T272 770T310 784T334 810T350 852L426 1335Q485 1706 889 1706L862 1530Q756 1532 693 1481T608 1300L539 848Q512 698 328 670Q406 658 447 608T479 489L399
-4Q374 -158 419 -219T575 -274L549 -449Q338 -449 259 -324T209 -16L289 477Q299 536 249 571T133 602Z" />
<glyph unicode="|" glyph-name="bar" horiz-adv-x="501" d="M139 -147L412 1577H588L315 -147H139Z" />
<glyph unicode="}" glyph-name="braceright" horiz-adv-x="647" d="M-29 -449L-2 -274Q102 -276 165 -225T250 -51L326 422Q349 565 532 600Q454 610 414 659T383 780L459 1253Q486 1411 441 1472T285 1530L313 1706Q520 1706 599 1578T647 1270L573 791Q563 732
613 697T729 666L705 508H677Q653 508 646 507T618 504T587 498T563 488T539 472T522 449T512 416L432 -76Q372 -449 -29 -449Z" />
<glyph unicode="~" glyph-name="asciitilde" horiz-adv-x="884" d="M281 1180Q295 1192 330 1219T382 1259T429 1289T486 1314T545 1321Q590 1321 649 1285T750 1249Q766 1249 782 1251T816 1259T846 1270T876 1284T903 1299T930 1317T954 1331L985 1235L948 1201Q911
1167 897 1158T850 1127T789 1096T729 1087Q682 1087 618 1123T514 1159Q477 1159 448 1149T377 1119T311 1087L281 1180Z" />
</font>
</defs>
</svg>
